<svg width="328" height="571" viewBox="0 0 328 571" xmlns="http://www.w3.org/2000/svg">
<defs>
<clipPath id="svgPath" >
	<path d="M43 69.5C43 76.9521 36.7357 83 29 83H16C8.26802 83 2 89.268 2 97L2.00004 555C2.00004 562.732 8.26805 569 16 569H312C319.732 569 326 562.732 326 555L326 97C326 89.268 319.732 83 312 83L111 83C103.264 83 97 76.9521 97 69.5C97 62.0479 103.264 56 111 56L123 56C130.732 56 137 49.732 137 42V16C137 8.26801 130.732 2 123 2L16 2.00002C8.26801 2.00003 2.00001 8.26804 2.00001 16L2.00001 42C2.00002 49.732 8.26804 56 16 56L29 56C36.7357 56 43 62.048 43 69.5Z" fill="purple" fill-opacity="0.5" stroke-opacity="0.8" stroke="#000000" />
</clipPath>
</defs>
</svg>

