{
	"accessors": [
		{
			"bufferView": 9,
			"byteOffset": 0,
			"componentType": 5125,
			"count": 1350,
			"type": "SCALAR"
		},
		{
			"bufferView": 10,
			"byteOffset": 0,
			"componentType": 5126,
			"count": 484,
			"max": [
				-46.6084518432617,
				-37.7367248535156,
				200.0
			],
			"min": [
				-131.628173828125,
				-125.417785644531,
				7.62939453125e-06
			],
			"type": "VEC3"
		},
		{
			"bufferView": 11,
			"byteOffset": 0,
			"componentType": 5126,
			"count": 484,
			"type": "VEC3"
		},
		{
			"bufferView": 12,
			"byteOffset": 0,
			"componentType": 5126,
			"count": 484,
			"type": "VEC2"
		}
	],
	"asset": {
		"extras": {
			"created": "Mon Dec 25 15:01:22 2023"
		},
		"generator": "Gestaltor 2023.1.0 Titan Professional",
		"version": "2.0"
	},
	"bufferViews": [
		{
			"buffer": 0,
			"byteLength": 44877,
			"byteOffset": 0
		},
		{
			"buffer": 0,
			"byteLength": 47429,
			"byteOffset": 44877
		},
		{
			"buffer": 0,
			"byteLength": 44378,
			"byteOffset": 92306
		},
		{
			"buffer": 0,
			"byteLength": 43886,
			"byteOffset": 136684
		},
		{
			"buffer": 0,
			"byteLength": 43386,
			"byteOffset": 180570
		},
		{
			"buffer": 0,
			"byteLength": 41383,
			"byteOffset": 223956
		},
		{
			"buffer": 0,
			"byteLength": 51749,
			"byteOffset": 265339
		},
		{
			"buffer": 0,
			"byteLength": 52156,
			"byteOffset": 317088
		},
		{
			"buffer": 0,
			"byteLength": 52076,
			"byteOffset": 369244
		},
		{
			"buffer": 0,
			"byteLength": 5400,
			"byteOffset": 421320,
			"target": 34963
		},
		{
			"buffer": 0,
			"byteLength": 5808,
			"byteOffset": 426720,
			"target": 34962
		},
		{
			"buffer": 0,
			"byteLength": 5808,
			"byteOffset": 432528,
			"target": 34962
		},
		{
			"buffer": 0,
			"byteLength": 3872,
			"byteOffset": 438336,
			"target": 34962
		}
	],
	"buffers": [
		{
			"byteLength": 442208,
			"uri": "cactus_opt.bin"
		}
	],
	"extensions": {
		"KHR_materials_variants": {
			"variants": [
				{
					"name": "cactus_v1"
				},
				{
					"name": "cactus_v2"
				},
				{
					"name": "cactus_v3"
				},
				{
					"name": "cactus_v4"
				},
				{
					"name": "cactus_v5"
				},
				{
					"name": "cactus_v6"
				},
				{
					"name": "cactus_v7"
				}
			]
		}
	},
	"extensionsRequired": [
		"KHR_texture_basisu"
	],
	"extensionsUsed": [
		"KHR_materials_variants",
		"KHR_texture_basisu"
	],
	"images": [
		{
			"bufferView": 0,
			"mimeType": "image/ktx2"
		},
		{
			"bufferView": 1,
			"mimeType": "image/ktx2"
		},
		{
			"bufferView": 2,
			"mimeType": "image/ktx2"
		},
		{
			"bufferView": 3,
			"mimeType": "image/ktx2",
			"name": "k_c2"
		},
		{
			"bufferView": 4,
			"mimeType": "image/ktx2",
			"name": "k_c3"
		},
		{
			"bufferView": 5,
			"mimeType": "image/ktx2",
			"name": "k_c4"
		},
		{
			"bufferView": 6,
			"mimeType": "image/ktx2",
			"name": "k_c5"
		},
		{
			"bufferView": 7,
			"mimeType": "image/ktx2",
			"name": "k_c6"
		},
		{
			"bufferView": 8,
			"mimeType": "image/ktx2",
			"name": "k_c7"
		}
	],
	"materials": [
		{
			"alphaMode": "OPAQUE",
			"name": "cactus_v1",
			"normalTexture": {
				"index": 2
			},
			"occlusionTexture": {
				"index": 1
			},
			"pbrMetallicRoughness": {
				"baseColorTexture": {
					"index": 0
				},
				"metallicRoughnessTexture": {
					"index": 1
				}
			}
		},
		{
			"alphaMode": "OPAQUE",
			"name": "cactus_v2",
			"normalTexture": {
				"index": 2
			},
			"occlusionTexture": {
				"index": 1
			},
			"pbrMetallicRoughness": {
				"baseColorTexture": {
					"index": 3
				},
				"metallicRoughnessTexture": {
					"index": 1
				}
			}
		},
		{
			"alphaMode": "OPAQUE",
			"name": "cactus_v3",
			"normalTexture": {
				"index": 2
			},
			"occlusionTexture": {
				"index": 1
			},
			"pbrMetallicRoughness": {
				"baseColorTexture": {
					"index": 4
				},
				"metallicRoughnessTexture": {
					"index": 1
				}
			}
		},
		{
			"alphaMode": "OPAQUE",
			"name": "cactus_v4",
			"normalTexture": {
				"index": 2
			},
			"occlusionTexture": {
				"index": 1
			},
			"pbrMetallicRoughness": {
				"baseColorTexture": {
					"index": 5
				},
				"metallicRoughnessTexture": {
					"index": 1
				}
			}
		},
		{
			"alphaMode": "OPAQUE",
			"name": "cactus_v5",
			"normalTexture": {
				"index": 2
			},
			"occlusionTexture": {
				"index": 1
			},
			"pbrMetallicRoughness": {
				"baseColorTexture": {
					"index": 6
				},
				"metallicRoughnessTexture": {
					"index": 1
				}
			}
		},
		{
			"alphaMode": "OPAQUE",
			"name": "cactus_v6",
			"normalTexture": {
				"index": 2
			},
			"occlusionTexture": {
				"index": 1
			},
			"pbrMetallicRoughness": {
				"baseColorTexture": {
					"index": 7
				},
				"metallicRoughnessTexture": {
					"index": 1
				}
			}
		},
		{
			"alphaMode": "OPAQUE",
			"name": "cactus_v7",
			"normalTexture": {
				"index": 2
			},
			"occlusionTexture": {
				"index": 1
			},
			"pbrMetallicRoughness": {
				"baseColorTexture": {
					"index": 8
				},
				"metallicRoughnessTexture": {
					"index": 1
				}
			}
		}
	],
	"meshes": [
		{
			"name": "cactus_lp",
			"primitives": [
				{
					"attributes": {
						"NORMAL": 2,
						"POSITION": 1,
						"TEXCOORD_0": 3
					},
					"extensions": {
						"KHR_materials_variants": {
							"mappings": [
								{
									"material": 0,
									"variants": [
										0
									]
								},
								{
									"material": 1,
									"variants": [
										1
									]
								},
								{
									"material": 2,
									"variants": [
										2
									]
								},
								{
									"material": 3,
									"variants": [
										3
									]
								},
								{
									"material": 4,
									"variants": [
										4
									]
								},
								{
									"material": 5,
									"variants": [
										5
									]
								},
								{
									"material": 6,
									"variants": [
										6
									]
								}
							]
						}
					},
					"indices": 0,
					"material": 0,
					"mode": 4
				}
			]
		}
	],
	"nodes": [
		{
			"children": [
				1
			],
			"name": "RootNode"
		},
		{
			"children": [
				2
			],
			"name": "cactus_lp",
			"rotation": [
				-0.70710676908493,
				0.0,
				0.0,
				0.70710676908493
			],
			"translation": [
				89.2529907226562,
				0.0,
				-81.7320709228516
			]
		},
		{
			"mesh": 0,
			"name": "cactus_lp"
		}
	],
	"samplers": [
		{
			"magFilter": 9729,
			"minFilter": 9985,
			"wrapS": 10497,
			"wrapT": 10497
		},
		{},
		{},
		{},
		{},
		{},
		{}
	],
	"scene": 0,
	"scenes": [
		{
			"name": "Scene",
			"nodes": [
				0
			]
		}
	],
	"textures": [
		{
			"extensions": {
				"KHR_texture_basisu": {
					"source": 0
				}
			},
			"name": "k_c1",
			"sampler": 0
		},
		{
			"extensions": {
				"KHR_texture_basisu": {
					"source": 1
				}
			},
			"sampler": 0
		},
		{
			"extensions": {
				"KHR_texture_basisu": {
					"source": 2
				}
			},
			"sampler": 0
		},
		{
			"extensions": {
				"KHR_texture_basisu": {
					"source": 3
				}
			},
			"name": "k_c2",
			"sampler": 1
		},
		{
			"extensions": {
				"KHR_texture_basisu": {
					"source": 4
				}
			},
			"name": "k_c3",
			"sampler": 2
		},
		{
			"extensions": {
				"KHR_texture_basisu": {
					"source": 5
				}
			},
			"name": "k_c4",
			"sampler": 3
		},
		{
			"extensions": {
				"KHR_texture_basisu": {
					"source": 6
				}
			},
			"name": "k_c5",
			"sampler": 4
		},
		{
			"extensions": {
				"KHR_texture_basisu": {
					"source": 7
				}
			},
			"name": "k_c6",
			"sampler": 5
		},
		{
			"extensions": {
				"KHR_texture_basisu": {
					"source": 8
				}
			},
			"name": "k_c7",
			"sampler": 6
		}
	]
}