{
	"accessors": [
		{
			"bufferView": 0,
			"byteOffset": 0,
			"componentType": 5125,
			"count": 11652,
			"type": "SCALAR"
		},
		{
			"bufferView": 1,
			"byteOffset": 0,
			"componentType": 5126,
			"count": 2206,
			"max": [
				61.2283058166504,
				61.8117980957031,
				257.787261962891
			],
			"min": [
				-61.8424835205078,
				-64.5975799560547,
				0.282882690429688
			],
			"type": "VEC3"
		},
		{
			"bufferView": 2,
			"byteOffset": 0,
			"componentType": 5126,
			"count": 2206,
			"type": "VEC3"
		},
		{
			"bufferView": 3,
			"byteOffset": 0,
			"componentType": 5126,
			"count": 2206,
			"type": "VEC2"
		}
	],
	"asset": {
		"extras": {
			"created": "Mon Dec 25 15:01:36 2023"
		},
		"generator": "Gestaltor 2023.1.0 Titan Professional",
		"version": "2.0"
	},
	"bufferViews": [
		{
			"buffer": 0,
			"byteLength": 46608,
			"byteOffset": 0,
			"target": 34963
		},
		{
			"buffer": 0,
			"byteLength": 26472,
			"byteOffset": 46608,
			"target": 34962
		},
		{
			"buffer": 0,
			"byteLength": 26472,
			"byteOffset": 73080,
			"target": 34962
		},
		{
			"buffer": 0,
			"byteLength": 17648,
			"byteOffset": 99552,
			"target": 34962
		}
	],
	"buffers": [
		{
			"byteLength": 117200,
			"uri": "cactus2_opt.bin"
		}
	],
	"extensions": {
		"KHR_materials_variants": {
			"variants": [
				{
					"name": "cactus2_v1"
				},
				{
					"name": "cactus2_v2"
				},
				{
					"name": "cactus2_v3"
				},
				{
					"name": "cactus2_v4"
				},
				{
					"name": "cactus2_v5"
				}
			]
		}
	},
	"extensionsRequired": [
		"KHR_texture_basisu"
	],
	"extensionsUsed": [
		"KHR_materials_variants",
		"KHR_texture_basisu"
	],
	"images": [
		{
			"mimeType": "image/ktx2",
			"uri": "image_1.ktx2"
		},
		{
			"mimeType": "image/ktx2",
			"uri": "image_2.ktx2"
		},
		{
			"mimeType": "image/ktx2",
			"uri": "image_3.ktx2"
		},
		{
			"mimeType": "image/ktx2",
			"name": "ct3_2",
			"uri": "ct3_2.ktx2"
		},
		{
			"mimeType": "image/ktx2",
			"name": "ct3_3",
			"uri": "ct3_3.ktx2"
		},
		{
			"mimeType": "image/ktx2",
			"name": "ct3_4",
			"uri": "ct3_4.ktx2"
		},
		{
			"mimeType": "image/ktx2",
			"name": "ct3_5",
			"uri": "ct3_5.ktx2"
		}
	],
	"materials": [
		{
			"alphaMode": "OPAQUE",
			"name": "cactus2_v1",
			"normalTexture": {
				"index": 2
			},
			"occlusionTexture": {
				"index": 1
			},
			"pbrMetallicRoughness": {
				"baseColorTexture": {
					"index": 0
				},
				"metallicRoughnessTexture": {
					"index": 1
				}
			}
		},
		{
			"alphaMode": "OPAQUE",
			"name": "cactus2_v2",
			"normalTexture": {
				"index": 2
			},
			"occlusionTexture": {
				"index": 1
			},
			"pbrMetallicRoughness": {
				"baseColorTexture": {
					"index": 3
				},
				"metallicRoughnessTexture": {
					"index": 1
				}
			}
		},
		{
			"alphaMode": "OPAQUE",
			"name": "cactus2_v3",
			"normalTexture": {
				"index": 2
			},
			"occlusionTexture": {
				"index": 1
			},
			"pbrMetallicRoughness": {
				"baseColorTexture": {
					"index": 4
				},
				"metallicRoughnessTexture": {
					"index": 1
				}
			}
		},
		{
			"alphaMode": "OPAQUE",
			"name": "cactus2_v4",
			"normalTexture": {
				"index": 2
			},
			"occlusionTexture": {
				"index": 1
			},
			"pbrMetallicRoughness": {
				"baseColorTexture": {
					"index": 5
				},
				"metallicRoughnessTexture": {
					"index": 1
				}
			}
		},
		{
			"alphaMode": "OPAQUE",
			"name": "cactus2_v5",
			"normalTexture": {
				"index": 2
			},
			"occlusionTexture": {
				"index": 1
			},
			"pbrMetallicRoughness": {
				"baseColorTexture": {
					"index": 6
				},
				"metallicRoughnessTexture": {
					"index": 1
				}
			}
		}
	],
	"meshes": [
		{
			"name": "Cylinder001",
			"primitives": [
				{
					"attributes": {
						"NORMAL": 2,
						"POSITION": 1,
						"TEXCOORD_0": 3
					},
					"extensions": {
						"KHR_materials_variants": {
							"mappings": [
								{
									"material": 0,
									"variants": [
										0
									]
								},
								{
									"material": 1,
									"variants": [
										1
									]
								},
								{
									"material": 2,
									"variants": [
										2
									]
								},
								{
									"material": 3,
									"variants": [
										3
									]
								},
								{
									"material": 4,
									"variants": [
										4
									]
								}
							]
						}
					},
					"indices": 0,
					"material": 0,
					"mode": 4
				}
			]
		}
	],
	"nodes": [
		{
			"children": [
				1
			],
			"name": "RootNode"
		},
		{
			"children": [
				2
			],
			"name": "Cylinder001",
			"rotation": [
				-0.696364223957062,
				0.122787803411484,
				0.122787803411484,
				0.696364283561707
			],
			"scale": [
				0.999999940395355,
				0.999999940395355,
				1.0
			],
			"translation": [
				74.0197372436523,
				0.0,
				12.4270324707031
			]
		},
		{
			"mesh": 0,
			"name": "Cylinder001"
		}
	],
	"samplers": [
		{
			"magFilter": 9729,
			"minFilter": 9985,
			"wrapS": 10497,
			"wrapT": 10497
		},
		{},
		{},
		{},
		{}
	],
	"scene": 0,
	"scenes": [
		{
			"name": "Scene",
			"nodes": [
				0
			]
		}
	],
	"textures": [
		{
			"extensions": {
				"KHR_texture_basisu": {
					"source": 0
				}
			},
			"name": "ct3_1",
			"sampler": 0
		},
		{
			"extensions": {
				"KHR_texture_basisu": {
					"source": 1
				}
			},
			"sampler": 0
		},
		{
			"extensions": {
				"KHR_texture_basisu": {
					"source": 2
				}
			},
			"sampler": 0
		},
		{
			"extensions": {
				"KHR_texture_basisu": {
					"source": 3
				}
			},
			"name": "ct3_2",
			"sampler": 1
		},
		{
			"extensions": {
				"KHR_texture_basisu": {
					"source": 4
				}
			},
			"name": "ct3_3",
			"sampler": 2
		},
		{
			"extensions": {
				"KHR_texture_basisu": {
					"source": 5
				}
			},
			"name": "ct3_4",
			"sampler": 3
		},
		{
			"extensions": {
				"KHR_texture_basisu": {
					"source": 6
				}
			},
			"name": "ct3_5",
			"sampler": 4
		}
	]
}