{
	"accessors": [
		{
			"bufferView": 0,
			"byteOffset": 0,
			"componentType": 5126,
			"count": 244,
			"max": [
				2911.775390625,
				-505.5037536621094,
				243.9091796875
			],
			"min": [
				2445.957275390625,
				-1027.9161376953125,
				-221.908935546875
			],
			"type": "VEC3"
		},
		{
			"bufferView": 1,
			"byteOffset": 0,
			"componentType": 5126,
			"count": 244,
			"type": "VEC3"
		},
		{
			"bufferView": 2,
			"byteOffset": 0,
			"componentType": 5126,
			"count": 244,
			"type": "VEC2"
		},
		{
			"bufferView": 3,
			"byteOffset": 0,
			"componentType": 5125,
			"count": 660,
			"type": "SCALAR"
		}
	],
	"asset": {
		"extras": {
			"created": "Mon Dec 25 15:03:07 2023"
		},
		"generator": "Gestaltor 2023.1.0 Titan Professional",
		"version": "2.0"
	},
	"bufferViews": [
		{
			"buffer": 0,
			"byteLength": 2928,
			"byteOffset": 0,
			"byteStride": 12,
			"target": 34962
		},
		{
			"buffer": 0,
			"byteLength": 2928,
			"byteOffset": 2928,
			"byteStride": 12,
			"target": 34962
		},
		{
			"buffer": 0,
			"byteLength": 1952,
			"byteOffset": 5856,
			"byteStride": 8,
			"target": 34962
		},
		{
			"buffer": 0,
			"byteLength": 2640,
			"byteOffset": 7808,
			"target": 34963
		}
	],
	"buffers": [
		{
			"byteLength": 10448,
			"uri": "desertfigures_sep4_opt.bin"
		}
	],
	"extensionsRequired": [
		"KHR_texture_basisu"
	],
	"extensionsUsed": [
		"KHR_materials_pbrSpecularGlossiness",
		"KHR_texture_basisu"
	],
	"images": [
		{
			"mimeType": "image/ktx2",
			"name": "desertfigure_5CompleteMap2_1",
			"uri": "desertfigure_5CompleteMap2_1.ktx2"
		}
	],
	"materials": [
		{
			"alphaMode": "BLEND",
			"doubleSided": true,
			"emissiveFactor": [
				1.0,
				1.0,
				1.0
			],
			"emissiveTexture": {
				"index": 0
			},
			"extensions": {
				"KHR_materials_pbrSpecularGlossiness": {
					"diffuseTexture": {
						"index": 0
					}
				}
			},
			"name": "df5",
			"pbrMetallicRoughness": {
				"baseColorTexture": {
					"index": 0
				},
				"roughnessFactor": 0.0
			}
		}
	],
	"meshes": [
		{
			"name": "desertfigure_5",
			"primitives": [
				{
					"attributes": {
						"NORMAL": 1,
						"POSITION": 0,
						"TEXCOORD_0": 2
					},
					"indices": 3,
					"material": 0,
					"mode": 4
				}
			]
		}
	],
	"nodes": [
		{
			"matrix": [
				0.01,
				0.0,
				0.0,
				0.0,
				0.0,
				0.01,
				0.0,
				0.0,
				0.0,
				0.0,
				0.01,
				0.0,
				0.0,
				0.0,
				0.0,
				1.0
			],
			"mesh": 0,
			"name": "desertfigure_5"
		},
		{
			"children": [
				0
			],
			"matrix": [
				-4.3711387620604134e-08,
				9.926167350636337e-24,
				-0.9999999999999994,
				0.0,
				4.371138828673793e-08,
				0.9999999999999999,
				-1.910685432077482e-15,
				0.0,
				1.0,
				-4.371138828673802e-08,
				-4.37113876206042e-08,
				0.0,
				23.7691015625,
				2.6794586181640625,
				38.2722265625,
				1.0
			]
		}
	],
	"samplers": [
		{}
	],
	"scenes": [
		{
			"nodes": [
				1
			]
		}
	],
	"textures": [
		{
			"extensions": {
				"KHR_texture_basisu": {
					"source": 0
				}
			},
			"name": "desertfigure_5CompleteMap2_1",
			"sampler": 0
		}
	]
}