{
	"accessors": [
		{
			"bufferView": 0,
			"byteOffset": 0,
			"componentType": 5126,
			"count": 780,
			"max": [
				731.3416748046875,
				1399.4111328125,
				22.0
			],
			"min": [
				-110.294921875,
				-434.8066711425781,
				-944.3656616210938
			],
			"type": "VEC3"
		},
		{
			"bufferView": 1,
			"byteOffset": 0,
			"componentType": 5126,
			"count": 780,
			"type": "VEC3"
		},
		{
			"bufferView": 2,
			"byteOffset": 0,
			"componentType": 5126,
			"count": 780,
			"type": "VEC2"
		},
		{
			"bufferView": 3,
			"byteOffset": 0,
			"componentType": 5125,
			"count": 2148,
			"type": "SCALAR"
		}
	],
	"asset": {
		"extras": {
			"created": "Mon Dec 25 15:03:33 2023"
		},
		"generator": "Gestaltor 2023.1.0 Titan Professional",
		"version": "2.0"
	},
	"bufferViews": [
		{
			"buffer": 0,
			"byteLength": 9360,
			"byteOffset": 0,
			"byteStride": 12,
			"target": 34962
		},
		{
			"buffer": 0,
			"byteLength": 9360,
			"byteOffset": 9360,
			"byteStride": 12,
			"target": 34962
		},
		{
			"buffer": 0,
			"byteLength": 6240,
			"byteOffset": 18720,
			"byteStride": 8,
			"target": 34962
		},
		{
			"buffer": 0,
			"byteLength": 8592,
			"byteOffset": 24960,
			"target": 34963
		}
	],
	"buffers": [
		{
			"byteLength": 33552,
			"uri": "desertfigures_sep5_opt.bin"
		}
	],
	"extensionsUsed": [
		"KHR_materials_pbrSpecularGlossiness"
	],
	"images": [
		{
			"mimeType": "image/png",
			"name": "desertfigure_2CompleteMap2_1",
			"uri": "desertfigure_2CompleteMap2_1.png"
		}
	],
	"materials": [
		{
			"alphaMode": "BLEND",
			"doubleSided": true,
			"emissiveFactor": [
				1.0,
				1.0,
				1.0
			],
			"emissiveTexture": {
				"index": 0
			},
			"extensions": {
				"KHR_materials_pbrSpecularGlossiness": {
					"diffuseTexture": {
						"index": 0
					}
				}
			},
			"name": "df2",
			"pbrMetallicRoughness": {
				"baseColorTexture": {
					"index": 0
				}
			}
		}
	],
	"meshes": [
		{
			"name": "desertfigure_2",
			"primitives": [
				{
					"attributes": {
						"NORMAL": 1,
						"POSITION": 0,
						"TEXCOORD_0": 2
					},
					"indices": 3,
					"material": 0,
					"mode": 4
				}
			]
		}
	],
	"nodes": [
		{
			"matrix": [
				0.01,
				0.0,
				0.0,
				0.0,
				0.0,
				0.01,
				0.0,
				0.0,
				0.0,
				0.0,
				0.01,
				0.0,
				0.0,
				0.0,
				0.0,
				1.0
			],
			"mesh": 0,
			"name": "desertfigure_2"
		},
		{
			"children": [
				0
			],
			"matrix": [
				0.8149680495262146,
				0.31908807158470165,
				-0.4837456941604615,
				0.0,
				-0.04494335555354518,
				0.8670429556118712,
				0.4962021755857424,
				0.0,
				0.577760510721384,
				-0.38264777704016206,
				0.7209532187138652,
				0.0,
				32.66003662109375,
				-3.8779580688476565,
				2.675528869628906,
				1.0
			]
		}
	],
	"samplers": [
		{}
	],
	"scenes": [
		{
			"nodes": [
				1
			]
		}
	],
	"textures": [
		{
			"name": "desertfigure_2CompleteMap2_1",
			"sampler": 0,
			"source": 0
		}
	]
}