{
	"accessors": [
		{
			"bufferView": 0,
			"byteOffset": 0,
			"componentType": 5126,
			"count": 244,
			"max": [
				2977.12353515625,
				-363.2384338378906,
				309.2568359375
			],
			"min": [
				2380.608642578125,
				-1167.0003662109375,
				-287.258056640625
			],
			"type": "VEC3"
		},
		{
			"bufferView": 1,
			"byteOffset": 0,
			"componentType": 5126,
			"count": 244,
			"type": "VEC3"
		},
		{
			"bufferView": 2,
			"byteOffset": 0,
			"componentType": 5126,
			"count": 244,
			"type": "VEC2"
		},
		{
			"bufferView": 3,
			"byteOffset": 0,
			"componentType": 5125,
			"count": 660,
			"type": "SCALAR"
		}
	],
	"asset": {
		"extras": {
			"created": "Mon Dec 25 15:02:51 2023"
		},
		"generator": "Gestaltor 2023.1.0 Titan Professional",
		"version": "2.0"
	},
	"bufferViews": [
		{
			"buffer": 0,
			"byteLength": 2928,
			"byteOffset": 0,
			"byteStride": 12,
			"target": 34962
		},
		{
			"buffer": 0,
			"byteLength": 2928,
			"byteOffset": 2928,
			"byteStride": 12,
			"target": 34962
		},
		{
			"buffer": 0,
			"byteLength": 1952,
			"byteOffset": 5856,
			"byteStride": 8,
			"target": 34962
		},
		{
			"buffer": 0,
			"byteLength": 2640,
			"byteOffset": 7808,
			"target": 34963
		}
	],
	"buffers": [
		{
			"byteLength": 10448,
			"uri": "desertfigures_sep3_opt.bin"
		}
	],
	"extensionsRequired": [
		"KHR_texture_basisu"
	],
	"extensionsUsed": [
		"KHR_materials_pbrSpecularGlossiness",
		"KHR_texture_basisu"
	],
	"images": [
		{
			"mimeType": "image/ktx2",
			"name": "desertfigure_4CompleteMap2_1",
			"uri": "desertfigure_4CompleteMap2_1.ktx2"
		}
	],
	"materials": [
		{
			"alphaMode": "BLEND",
			"doubleSided": true,
			"emissiveFactor": [
				1.0,
				1.0,
				1.0
			],
			"emissiveTexture": {
				"index": 0
			},
			"extensions": {
				"KHR_materials_pbrSpecularGlossiness": {
					"diffuseTexture": {
						"index": 0
					}
				}
			},
			"name": "df4",
			"pbrMetallicRoughness": {
				"baseColorTexture": {
					"index": 0
				}
			}
		}
	],
	"meshes": [
		{
			"name": "desertfigure_4",
			"primitives": [
				{
					"attributes": {
						"NORMAL": 1,
						"POSITION": 0,
						"TEXCOORD_0": 2
					},
					"indices": 3,
					"material": 0,
					"mode": 4
				}
			]
		}
	],
	"nodes": [
		{
			"matrix": [
				0.01,
				0.0,
				0.0,
				0.0,
				0.0,
				0.01,
				0.0,
				0.0,
				0.0,
				0.0,
				0.01,
				0.0,
				0.0,
				0.0,
				0.0,
				1.0
			],
			"mesh": 0,
			"name": "desertfigure_4"
		},
		{
			"children": [
				0
			],
			"matrix": [
				1.0,
				0.0,
				0.0,
				0.0,
				0.0,
				0.9999999999999999,
				4.371138828673793e-08,
				0.0,
				0.0,
				-4.371138828673793e-08,
				0.9999999999999999,
				0.0,
				-3.100458984375,
				4.0912713623046875,
				3.540816345214844,
				1.0
			]
		}
	],
	"samplers": [
		{}
	],
	"scenes": [
		{
			"nodes": [
				1
			]
		}
	],
	"textures": [
		{
			"extensions": {
				"KHR_texture_basisu": {
					"source": 0
				}
			},
			"name": "desertfigure_4CompleteMap2_1",
			"sampler": 0
		}
	]
}