{
	"accessors": [
		{
			"bufferView": 0,
			"byteOffset": 0,
			"componentType": 5126,
			"count": 2964,
			"max": [
				2981.064453125,
				642.202392578125,
				154.98291015625
			],
			"min": [
				2693.098876953125,
				-1484.4954833984375,
				-132.982666015625
			],
			"type": "VEC3"
		},
		{
			"bufferView": 1,
			"byteOffset": 0,
			"componentType": 5126,
			"count": 2964,
			"type": "VEC3"
		},
		{
			"bufferView": 2,
			"byteOffset": 0,
			"componentType": 5126,
			"count": 2964,
			"type": "VEC2"
		},
		{
			"bufferView": 3,
			"byteOffset": 0,
			"componentType": 5125,
			"count": 8460,
			"type": "SCALAR"
		}
	],
	"asset": {
		"extras": {
			"created": "Mon Dec 25 15:02:35 2023"
		},
		"generator": "Gestaltor 2023.1.0 Titan Professional",
		"version": "2.0"
	},
	"bufferViews": [
		{
			"buffer": 0,
			"byteLength": 35568,
			"byteOffset": 0,
			"byteStride": 12,
			"target": 34962
		},
		{
			"buffer": 0,
			"byteLength": 35568,
			"byteOffset": 35568,
			"byteStride": 12,
			"target": 34962
		},
		{
			"buffer": 0,
			"byteLength": 23712,
			"byteOffset": 71136,
			"byteStride": 8,
			"target": 34962
		},
		{
			"buffer": 0,
			"byteLength": 33840,
			"byteOffset": 94848,
			"target": 34963
		}
	],
	"buffers": [
		{
			"byteLength": 128688,
			"uri": "desertfigures_sep2_opt.bin"
		}
	],
	"extensionsRequired": [
		"KHR_texture_basisu"
	],
	"extensionsUsed": [
		"KHR_materials_pbrSpecularGlossiness",
		"KHR_texture_basisu"
	],
	"images": [
		{
			"mimeType": "image/ktx2",
			"name": "desertfigure_3CompleteMap2_1",
			"uri": "desertfigure_3CompleteMap2_1.ktx2"
		}
	],
	"materials": [
		{
			"alphaMode": "BLEND",
			"doubleSided": true,
			"emissiveFactor": [
				1.0,
				1.0,
				1.0
			],
			"emissiveTexture": {
				"index": 0
			},
			"extensions": {
				"KHR_materials_pbrSpecularGlossiness": {
					"diffuseTexture": {
						"index": 0
					}
				}
			},
			"name": "df3",
			"pbrMetallicRoughness": {
				"baseColorTexture": {
					"index": 0
				}
			}
		}
	],
	"meshes": [
		{
			"name": "desertfigure_3",
			"primitives": [
				{
					"attributes": {
						"NORMAL": 1,
						"POSITION": 0,
						"TEXCOORD_0": 2
					},
					"indices": 3,
					"material": 0,
					"mode": 4
				}
			]
		}
	],
	"nodes": [
		{
			"matrix": [
				0.01,
				0.0,
				0.0,
				0.0,
				0.0,
				0.01,
				0.0,
				0.0,
				0.0,
				0.0,
				0.01,
				0.0,
				0.0,
				0.0,
				0.0,
				1.0
			],
			"mesh": 0,
			"name": "desertfigure_3"
		},
		{
			"children": [
				0
			],
			"matrix": [
				0.7071067690849304,
				6.617444787171477e-24,
				0.7071067690849305,
				0.0,
				-3.090861966370539e-08,
				0.9999999999999994,
				3.0908619663705375e-08,
				0.0,
				-0.7071067690849304,
				-4.371138837455534e-08,
				0.7071067690849303,
				0.0,
				10.38390380859375,
				7.24736328125,
				-10.212489624023437,
				1.0
			]
		}
	],
	"samplers": [
		{}
	],
	"scenes": [
		{
			"nodes": [
				1
			]
		}
	],
	"textures": [
		{
			"extensions": {
				"KHR_texture_basisu": {
					"source": 0
				}
			},
			"name": "desertfigure_3CompleteMap2_1",
			"sampler": 0
		}
	]
}