{
	"accessors": [
		{
			"bufferView": 0,
			"byteOffset": 0,
			"componentType": 5126,
			"count": 1375,
			"max": [
				98.7864761352539,
				98.7864761352539,
				140.82913208007813
			],
			"min": [
				-98.78654479980469,
				-98.78652954101563,
				-103.97172546386719
			],
			"type": "VEC3"
		},
		{
			"bufferView": 1,
			"byteOffset": 0,
			"componentType": 5126,
			"count": 1375,
			"type": "VEC3"
		},
		{
			"bufferView": 2,
			"byteOffset": 0,
			"componentType": 5126,
			"count": 1375,
			"type": "VEC2"
		},
		{
			"bufferView": 3,
			"byteOffset": 0,
			"componentType": 5125,
			"count": 6708,
			"type": "SCALAR"
		}
	],
	"asset": {
		"extras": {
			"created": "Mon Dec 25 15:05:43 2023"
		},
		"generator": "Gestaltor 2023.1.0 Titan Professional",
		"version": "2.0"
	},
	"bufferViews": [
		{
			"buffer": 0,
			"byteLength": 16500,
			"byteOffset": 0,
			"byteStride": 12,
			"target": 34962
		},
		{
			"buffer": 0,
			"byteLength": 16500,
			"byteOffset": 16500,
			"byteStride": 12,
			"target": 34962
		},
		{
			"buffer": 0,
			"byteLength": 11000,
			"byteOffset": 33000,
			"byteStride": 8,
			"target": 34962
		},
		{
			"buffer": 0,
			"byteLength": 26832,
			"byteOffset": 44000,
			"target": 34963
		}
	],
	"buffers": [
		{
			"byteLength": 70832,
			"uri": "inflated_lighting_creature_6_opt.bin"
		}
	],
	"extensionsRequired": [
		"KHR_texture_basisu"
	],
	"extensionsUsed": [
		"KHR_texture_basisu"
	],
	"images": [
		{
			"mimeType": "image/ktx2",
			"name": "lc6_00000",
			"uri": "lc6_00000.ktx2"
		},
		{
			"mimeType": "image/ktx2",
			"name": "lc6_l_00000",
			"uri": "lc6_l_00000.ktx2"
		}
	],
	"materials": [
		{
			"doubleSided": true,
			"emissiveFactor": [
				0.0,
				0.0,
				0.0
			],
			"emissiveTexture": {
				"index": 1,
				"texCoord": 0
			},
			"name": "adskMatinflated_lighting_creature6",
			"pbrMetallicRoughness": {
				"baseColorTexture": {
					"index": 0
				},
				"metallicFactor": 0.0,
				"roughnessFactor": 0.9200000166893005
			}
		}
	],
	"meshes": [
		{
			"name": "inflated_lighting_creature6",
			"primitives": [
				{
					"attributes": {
						"NORMAL": 1,
						"POSITION": 0,
						"TEXCOORD_0": 2
					},
					"indices": 3,
					"material": 0,
					"mode": 4
				}
			]
		}
	],
	"nodes": [
		{
			"matrix": [
				0.01,
				0.0,
				0.0,
				0.0,
				0.0,
				0.01,
				0.0,
				0.0,
				0.0,
				0.0,
				0.01,
				0.0,
				0.0,
				0.0,
				0.0,
				1.0
			],
			"mesh": 0,
			"name": "inflated_lighting_creature6"
		},
		{
			"children": [
				0
			],
			"matrix": [
				0.28642427921295155,
				7.524398785255583e-17,
				-0.6142388582229614,
				0.0,
				-0.6142388582229613,
				7.524398785255582e-17,
				-0.2864242792129515,
				0.0,
				7.524398811251863e-17,
				0.6777375936508179,
				7.524398811251863e-17,
				0.0,
				1.4717869567871094,
				0.7072411346435546,
				2.3187188720703125,
				1.0
			]
		}
	],
	"samplers": [
		{},
		{}
	],
	"scenes": [
		{
			"nodes": [
				1
			]
		}
	],
	"textures": [
		{
			"extensions": {
				"KHR_texture_basisu": {
					"source": 0
				}
			},
			"name": "lc6_00000",
			"sampler": 0
		},
		{
			"extensions": {
				"KHR_texture_basisu": {
					"source": 1
				}
			},
			"name": "lc6_l_00000",
			"sampler": 1
		}
	]
}