{
	"accessors": [
		{
			"bufferView": 0,
			"byteOffset": 0,
			"componentType": 5126,
			"count": 1298,
			"max": [
				98.7864761352539,
				98.7864761352539,
				140.61312866210938
			],
			"min": [
				-98.78654479980469,
				-98.78652954101563,
				-103.97172546386719
			],
			"type": "VEC3"
		},
		{
			"bufferView": 1,
			"byteOffset": 0,
			"componentType": 5126,
			"count": 1298,
			"type": "VEC3"
		},
		{
			"bufferView": 2,
			"byteOffset": 0,
			"componentType": 5126,
			"count": 1298,
			"type": "VEC2"
		},
		{
			"bufferView": 3,
			"byteOffset": 0,
			"componentType": 5125,
			"count": 6708,
			"type": "SCALAR"
		}
	],
	"asset": {
		"extras": {
			"created": "Mon Dec 25 15:05:32 2023"
		},
		"generator": "Gestaltor 2023.1.0 Titan Professional",
		"version": "2.0"
	},
	"bufferViews": [
		{
			"buffer": 0,
			"byteLength": 15576,
			"byteOffset": 0,
			"byteStride": 12,
			"target": 34962
		},
		{
			"buffer": 0,
			"byteLength": 15576,
			"byteOffset": 15576,
			"byteStride": 12,
			"target": 34962
		},
		{
			"buffer": 0,
			"byteLength": 10384,
			"byteOffset": 31152,
			"byteStride": 8,
			"target": 34962
		},
		{
			"buffer": 0,
			"byteLength": 26832,
			"byteOffset": 41536,
			"target": 34963
		}
	],
	"buffers": [
		{
			"byteLength": 68368,
			"uri": "inflated_lighting_creature_5_opt.bin"
		}
	],
	"extensionsRequired": [
		"KHR_texture_basisu"
	],
	"extensionsUsed": [
		"KHR_texture_basisu"
	],
	"images": [
		{
			"mimeType": "image/ktx2",
			"name": "lc5_00000",
			"uri": "lc5_00000.ktx2"
		},
		{
			"mimeType": "image/ktx2",
			"name": "lc5_l_00000",
			"uri": "lc5_l_00000.ktx2"
		}
	],
	"materials": [
		{
			"doubleSided": true,
			"emissiveFactor": [
				0.0,
				0.0,
				0.0
			],
			"emissiveTexture": {
				"index": 1
			},
			"name": "adskMatinflated_lighting_creature5",
			"pbrMetallicRoughness": {
				"baseColorTexture": {
					"index": 0
				},
				"metallicFactor": 0.0,
				"roughnessFactor": 0.9200000166893005
			}
		}
	],
	"meshes": [
		{
			"name": "inflated_lighting_creature5",
			"primitives": [
				{
					"attributes": {
						"NORMAL": 1,
						"POSITION": 0,
						"TEXCOORD_0": 2
					},
					"indices": 3,
					"material": 0,
					"mode": 4
				}
			]
		}
	],
	"nodes": [
		{
			"matrix": [
				0.01,
				0.0,
				0.0,
				0.0,
				0.0,
				0.01,
				0.0,
				0.0,
				0.0,
				0.0,
				0.01,
				0.0,
				0.0,
				0.0,
				0.0,
				1.0
			],
			"mesh": 0,
			"name": "inflated_lighting_creature5"
		},
		{
			"children": [
				0
			],
			"matrix": [
				-0.5247105956077567,
				-1.777892954331796e-16,
				0.36740645766258234,
				0.0,
				0.36740645766258256,
				0.0,
				0.524710595607757,
				0.0,
				-1.0667357244558541e-16,
				0.640553414821624,
				2.1334714489117082e-16,
				0.0,
				2.9216067504882814,
				0.6684382629394532,
				-1.2718969726562501,
				1.0
			]
		}
	],
	"samplers": [
		{},
		{}
	],
	"scenes": [
		{
			"nodes": [
				1
			]
		}
	],
	"textures": [
		{
			"extensions": {
				"KHR_texture_basisu": {
					"source": 0
				}
			},
			"name": "lc5_00000",
			"sampler": 0
		},
		{
			"extensions": {
				"KHR_texture_basisu": {
					"source": 1
				}
			},
			"name": "lc5_l_00000",
			"sampler": 1
		}
	]
}