{
	"accessors": [
		{
			"bufferView": 0,
			"byteOffset": 0,
			"componentType": 5126,
			"count": 3385,
			"max": [
				74.37908935546875,
				60.14899826049805,
				168.89910888671875
			],
			"min": [
				-75.5722427368164,
				-60.14899826049805,
				-2.735965208729152e-14
			],
			"type": "VEC3"
		},
		{
			"bufferView": 1,
			"byteOffset": 0,
			"componentType": 5126,
			"count": 3385,
			"type": "VEC3"
		},
		{
			"bufferView": 2,
			"byteOffset": 0,
			"componentType": 5126,
			"count": 3385,
			"type": "VEC2"
		},
		{
			"bufferView": 3,
			"byteOffset": 0,
			"componentType": 5125,
			"count": 17946,
			"type": "SCALAR"
		}
	],
	"asset": {
		"extras": {
			"created": "Mon Dec 25 15:04:44 2023"
		},
		"generator": "Gestaltor 2023.1.0 Titan Professional",
		"version": "2.0"
	},
	"bufferViews": [
		{
			"buffer": 0,
			"byteLength": 40620,
			"byteOffset": 0,
			"byteStride": 12,
			"target": 34962
		},
		{
			"buffer": 0,
			"byteLength": 40620,
			"byteOffset": 40620,
			"byteStride": 12,
			"target": 34962
		},
		{
			"buffer": 0,
			"byteLength": 27080,
			"byteOffset": 81240,
			"byteStride": 8,
			"target": 34962
		},
		{
			"buffer": 0,
			"byteLength": 71784,
			"byteOffset": 108320,
			"target": 34963
		}
	],
	"buffers": [
		{
			"byteLength": 180104,
			"uri": "inflated_lighting_creature_2_opt.bin"
		}
	],
	"extensionsRequired": [
		"KHR_texture_basisu"
	],
	"extensionsUsed": [
		"KHR_texture_basisu"
	],
	"images": [
		{
			"mimeType": "image/ktx2",
			"name": "lc2_00000",
			"uri": "lc2_00000.ktx2"
		},
		{
			"mimeType": "image/ktx2",
			"name": "lc2_l_00000",
			"uri": "lc2_l_00000.ktx2"
		}
	],
	"materials": [
		{
			"doubleSided": true,
			"emissiveFactor": [
				1.0,
				1.0,
				1.0
			],
			"emissiveTexture": {
				"index": 1
			},
			"name": "adskMatinflated_lighting_creature2",
			"pbrMetallicRoughness": {
				"baseColorTexture": {
					"index": 0
				},
				"metallicFactor": 0.0,
				"roughnessFactor": 0.9200000166893005
			}
		}
	],
	"meshes": [
		{
			"name": "inflated_lighting_creature2",
			"primitives": [
				{
					"attributes": {
						"NORMAL": 1,
						"POSITION": 0,
						"TEXCOORD_0": 2
					},
					"indices": 3,
					"material": 0,
					"mode": 4
				}
			]
		}
	],
	"nodes": [
		{
			"matrix": [
				0.01,
				0.0,
				0.0,
				0.0,
				0.0,
				0.01,
				0.0,
				0.0,
				0.0,
				0.0,
				0.01,
				0.0,
				0.0,
				0.0,
				0.0,
				1.0
			],
			"mesh": 0,
			"name": "inflated_lighting_creature2"
		},
		{
			"children": [
				0
			],
			"matrix": [
				-0.9930241107940669,
				-7.195914347284121e-16,
				-0.8332458138465886,
				0.0,
				-0.8332458138465885,
				0.0,
				0.9930241107940668,
				0.0,
				-5.75673131228058e-16,
				1.2963006496429443,
				-2.87836565614029e-16,
				0.0,
				1.4734732055664064,
				0.0,
				-1.815472869873047,
				1.0
			]
		}
	],
	"samplers": [
		{},
		{}
	],
	"scenes": [
		{
			"nodes": [
				1
			]
		}
	],
	"textures": [
		{
			"extensions": {
				"KHR_texture_basisu": {
					"source": 0
				}
			},
			"name": "lc2_00000",
			"sampler": 0
		},
		{
			"extensions": {
				"KHR_texture_basisu": {
					"source": 1
				}
			},
			"name": "lc2_l_00000",
			"sampler": 1
		}
	]
}