{
	"accessors": [
		{
			"bufferView": 2,
			"byteOffset": 0,
			"componentType": 5126,
			"count": 1071,
			"max": [
				98.7864761352539,
				98.7864761352539,
				113.87889099121094
			],
			"min": [
				-98.78654479980469,
				-98.78652954101563,
				-103.97172546386719
			],
			"type": "VEC3"
		},
		{
			"bufferView": 3,
			"byteOffset": 0,
			"componentType": 5126,
			"count": 1071,
			"type": "VEC3"
		},
		{
			"bufferView": 4,
			"byteOffset": 0,
			"componentType": 5126,
			"count": 1071,
			"type": "VEC2"
		},
		{
			"bufferView": 5,
			"byteOffset": 0,
			"componentType": 5125,
			"count": 5388,
			"type": "SCALAR"
		}
	],
	"asset": {
		"extras": {
			"created": "Mon Dec 25 15:04:59 2023"
		},
		"generator": "Gestaltor 2023.1.0 Titan Professional",
		"version": "2.0"
	},
	"bufferViews": [
		{
			"buffer": 0,
			"byteLength": 36568,
			"byteOffset": 0
		},
		{
			"buffer": 0,
			"byteLength": 51210,
			"byteOffset": 36568
		},
		{
			"buffer": 0,
			"byteLength": 12852,
			"byteOffset": 87780,
			"byteStride": 12,
			"target": 34962
		},
		{
			"buffer": 0,
			"byteLength": 12852,
			"byteOffset": 100632,
			"byteStride": 12,
			"target": 34962
		},
		{
			"buffer": 0,
			"byteLength": 8568,
			"byteOffset": 113484,
			"byteStride": 8,
			"target": 34962
		},
		{
			"buffer": 0,
			"byteLength": 21552,
			"byteOffset": 122052,
			"target": 34963
		}
	],
	"buffers": [
		{
			"byteLength": 143604,
			"uri": "inflated_lighting_creature_3_opt.bin"
		}
	],
	"extensionsRequired": [
		"KHR_texture_basisu"
	],
	"extensionsUsed": [
		"KHR_texture_basisu"
	],
	"images": [
		{
			"bufferView": 0,
			"mimeType": "image/ktx2",
			"name": "lc3_00000"
		},
		{
			"bufferView": 1,
			"mimeType": "image/ktx2",
			"name": "lc3_l_00000"
		}
	],
	"materials": [
		{
			"doubleSided": true,
			"emissiveFactor": [
				1.0,
				1.0,
				1.0
			],
			"emissiveTexture": {
				"index": 1
			},
			"name": "adskMatinflated_lighting_creature3",
			"pbrMetallicRoughness": {
				"baseColorFactor": [
					0.4564126133918762,
					0.4564126133918762,
					0.4564126133918762,
					1.0
				],
				"baseColorTexture": {
					"index": 0
				},
				"metallicFactor": 0.0,
				"roughnessFactor": 0.9200000166893005
			}
		}
	],
	"meshes": [
		{
			"name": "inflated_lighting_creature3",
			"primitives": [
				{
					"attributes": {
						"NORMAL": 1,
						"POSITION": 0,
						"TEXCOORD_0": 2
					},
					"indices": 3,
					"material": 0,
					"mode": 4
				}
			]
		}
	],
	"nodes": [
		{
			"matrix": [
				0.01,
				0.0,
				0.0,
				0.0,
				0.0,
				0.01,
				0.0,
				0.0,
				0.0,
				0.0,
				0.01,
				0.0,
				0.0,
				0.0,
				0.0,
				1.0
			],
			"mesh": 0,
			"name": "inflated_lighting_creature3"
		},
		{
			"children": [
				0
			],
			"matrix": [
				0.4529396593570711,
				0.0,
				-0.4529396593570709,
				0.0,
				-0.4529396593570709,
				0.0,
				-0.4529396593570711,
				0.0,
				0.0,
				0.6405534148216248,
				0.0,
				0.0,
				-1.347399139404297,
				0.6684382629394532,
				0.3661492156982422,
				1.0
			]
		}
	],
	"samplers": [
		{},
		{}
	],
	"scenes": [
		{
			"nodes": [
				1
			]
		}
	],
	"textures": [
		{
			"extensions": {
				"KHR_texture_basisu": {
					"source": 0
				}
			},
			"name": "lc3_00000",
			"sampler": 0
		},
		{
			"extensions": {
				"KHR_texture_basisu": {
					"source": 1
				}
			},
			"name": "lc3_l_00000",
			"sampler": 1
		}
	]
}