{
	"accessors": [
		{
			"bufferView": 0,
			"byteOffset": 0,
			"componentType": 5126,
			"count": 1071,
			"max": [
				98.7864761352539,
				98.7864761352539,
				125.78245544433594
			],
			"min": [
				-98.78654479980469,
				-98.78652954101563,
				-103.97172546386719
			],
			"type": "VEC3"
		},
		{
			"bufferView": 1,
			"byteOffset": 0,
			"componentType": 5126,
			"count": 1071,
			"type": "VEC3"
		},
		{
			"bufferView": 2,
			"byteOffset": 0,
			"componentType": 5126,
			"count": 1071,
			"type": "VEC2"
		},
		{
			"bufferView": 3,
			"byteOffset": 0,
			"componentType": 5125,
			"count": 5388,
			"type": "SCALAR"
		}
	],
	"asset": {
		"extras": {
			"created": "Mon Dec 25 15:05:19 2023"
		},
		"generator": "Gestaltor 2023.1.0 Titan Professional",
		"version": "2.0"
	},
	"bufferViews": [
		{
			"buffer": 0,
			"byteLength": 12852,
			"byteOffset": 0,
			"byteStride": 12,
			"target": 34962
		},
		{
			"buffer": 0,
			"byteLength": 12852,
			"byteOffset": 12852,
			"byteStride": 12,
			"target": 34962
		},
		{
			"buffer": 0,
			"byteLength": 8568,
			"byteOffset": 25704,
			"byteStride": 8,
			"target": 34962
		},
		{
			"buffer": 0,
			"byteLength": 21552,
			"byteOffset": 34272,
			"target": 34963
		}
	],
	"buffers": [
		{
			"byteLength": 55824,
			"uri": "inflated_lighting_creature_4_opt.bin"
		}
	],
	"extensionsRequired": [
		"KHR_texture_basisu"
	],
	"extensionsUsed": [
		"KHR_texture_basisu"
	],
	"images": [
		{
			"mimeType": "image/ktx2",
			"name": "lc4_00000",
			"uri": "lc4_00000.ktx2"
		},
		{
			"mimeType": "image/ktx2",
			"name": "lc4_l_00000",
			"uri": "lc4_l_00000.ktx2"
		}
	],
	"materials": [
		{
			"doubleSided": true,
			"emissiveFactor": [
				0.4564126133918762,
				0.4564126133918762,
				0.4564126133918762
			],
			"emissiveTexture": {
				"index": 1
			},
			"name": "adskMatinflated_lighting_creature4",
			"pbrMetallicRoughness": {
				"baseColorTexture": {
					"index": 0
				},
				"metallicFactor": 0.0,
				"roughnessFactor": 0.9200000166893005
			}
		}
	],
	"meshes": [
		{
			"name": "inflated_lighting_creature4",
			"primitives": [
				{
					"attributes": {
						"NORMAL": 1,
						"POSITION": 0,
						"TEXCOORD_0": 2
					},
					"indices": 3,
					"material": 0,
					"mode": 4
				}
			]
		}
	],
	"nodes": [
		{
			"matrix": [
				0.01,
				0.0,
				0.0,
				0.0,
				0.0,
				0.01,
				0.0,
				0.0,
				0.0,
				0.0,
				0.01,
				0.0,
				0.0,
				0.0,
				0.0,
				1.0
			],
			"mesh": 0,
			"name": "inflated_lighting_creature4"
		},
		{
			"children": [
				0
			],
			"matrix": [
				-0.14726522564887995,
				0.0,
				-0.5496010184288025,
				0.0,
				-0.5496010184288025,
				0.0,
				0.14726522564887995,
				0.0,
				0.0,
				0.5689888596534729,
				0.0,
				0.0,
				2.6931658935546876,
				0.5937583541870117,
				1.9519587707519532,
				1.0
			]
		}
	],
	"samplers": [
		{},
		{}
	],
	"scenes": [
		{
			"nodes": [
				1
			]
		}
	],
	"textures": [
		{
			"extensions": {
				"KHR_texture_basisu": {
					"source": 0
				}
			},
			"name": "lc4_00000",
			"sampler": 0
		},
		{
			"extensions": {
				"KHR_texture_basisu": {
					"source": 1
				}
			},
			"name": "lc4_l_00000",
			"sampler": 1
		}
	]
}