{
	"accessors": [
		{
			"bufferView": 0,
			"byteOffset": 0,
			"componentType": 5126,
			"count": 3573,
			"max": [
				11.500114440917969,
				11.497387886047363,
				50.852176666259766
			],
			"min": [
				-11.489147186279297,
				-11.491873741149902,
				12.927120208740234
			],
			"type": "VEC3"
		},
		{
			"bufferView": 1,
			"byteOffset": 0,
			"componentType": 5126,
			"count": 3573,
			"type": "VEC3"
		},
		{
			"bufferView": 2,
			"byteOffset": 0,
			"componentType": 5126,
			"count": 3573,
			"type": "VEC2"
		},
		{
			"bufferView": 3,
			"byteOffset": 0,
			"componentType": 5125,
			"count": 10374,
			"type": "SCALAR"
		},
		{
			"bufferView": 4,
			"byteOffset": 0,
			"componentType": 5126,
			"count": 320,
			"max": [
				11.292510986328125,
				11.094494819641113,
				75.55921936035156
			],
			"min": [
				-10.865525245666504,
				-11.063539505004883,
				42.24988555908203
			],
			"type": "VEC3"
		},
		{
			"bufferView": 5,
			"byteOffset": 0,
			"componentType": 5126,
			"count": 320,
			"type": "VEC3"
		},
		{
			"bufferView": 6,
			"byteOffset": 0,
			"componentType": 5125,
			"count": 480,
			"type": "SCALAR"
		},
		{
			"bufferView": 7,
			"byteOffset": 0,
			"componentType": 5126,
			"count": 3303,
			"max": [
				80.89004516601563,
				142.30702209472656,
				126.76646423339844
			],
			"min": [
				-80.89004516601563,
				-104.82206726074219,
				-140.0192413330078
			],
			"type": "VEC3"
		},
		{
			"bufferView": 8,
			"byteOffset": 0,
			"componentType": 5126,
			"count": 3303,
			"type": "VEC3"
		},
		{
			"bufferView": 9,
			"byteOffset": 0,
			"componentType": 5126,
			"count": 3303,
			"type": "VEC2"
		},
		{
			"bufferView": 10,
			"byteOffset": 0,
			"componentType": 5125,
			"count": 16974,
			"type": "SCALAR"
		}
	],
	"asset": {
		"extras": {
			"created": "Mon Dec 25 15:07:57 2023"
		},
		"generator": "Gestaltor 2023.1.0 Titan Professional",
		"version": "2.0"
	},
	"bufferViews": [
		{
			"buffer": 0,
			"byteLength": 42876,
			"byteOffset": 0,
			"byteStride": 12,
			"target": 34962
		},
		{
			"buffer": 0,
			"byteLength": 42876,
			"byteOffset": 42876,
			"byteStride": 12,
			"target": 34962
		},
		{
			"buffer": 0,
			"byteLength": 28584,
			"byteOffset": 85752,
			"byteStride": 8,
			"target": 34962
		},
		{
			"buffer": 0,
			"byteLength": 41496,
			"byteOffset": 114336,
			"target": 34963
		},
		{
			"buffer": 0,
			"byteLength": 3840,
			"byteOffset": 155832,
			"byteStride": 12,
			"target": 34962
		},
		{
			"buffer": 0,
			"byteLength": 3840,
			"byteOffset": 159672,
			"byteStride": 12,
			"target": 34962
		},
		{
			"buffer": 0,
			"byteLength": 1920,
			"byteOffset": 163512,
			"target": 34963
		},
		{
			"buffer": 0,
			"byteLength": 39636,
			"byteOffset": 165432,
			"byteStride": 12,
			"target": 34962
		},
		{
			"buffer": 0,
			"byteLength": 39636,
			"byteOffset": 205068,
			"byteStride": 12,
			"target": 34962
		},
		{
			"buffer": 0,
			"byteLength": 26424,
			"byteOffset": 244704,
			"byteStride": 8,
			"target": 34962
		},
		{
			"buffer": 0,
			"byteLength": 67896,
			"byteOffset": 271128,
			"target": 34963
		}
	],
	"buffers": [
		{
			"byteLength": 339024,
			"uri": "luftbaloon_eyed_opt.bin"
		}
	],
	"extensions": {
		"KHR_materials_variants": {
			"variants": [
				{
					"name": "luftbaloon_baloon_pink"
				},
				{
					"name": "luftbaloon_baloon_orange"
				},
				{
					"name": "luftbaloon_baloon_blue"
				},
				{
					"name": "luftbaloon_baloon_metallic"
				}
			]
		}
	},
	"extensionsRequired": [
		"KHR_texture_basisu"
	],
	"extensionsUsed": [
		"KHR_materials_variants",
		"KHR_texture_basisu"
	],
	"images": [
		{
			"mimeType": "image/ktx2",
			"name": "lbtex1_nornal.png",
			"uri": "lbtex1_nornal.png.ktx2"
		},
		{
			"mimeType": "image/ktx2",
			"name": "luftbaloon_basebasecolortexture.png",
			"uri": "luftbaloon_basebasecolortexture.png.ktx2"
		},
		{
			"mimeType": "image/ktx2",
			"name": "luftbaloon_basemetallicroughnesstex.png",
			"uri": "luftbaloon_basemetallicroughnesstex.png.ktx2"
		},
		{
			"mimeType": "image/ktx2",
			"name": "lb_tex2__baseColor",
			"uri": "lb_tex2__baseColor.ktx2"
		},
		{
			"mimeType": "image/ktx2",
			"name": "lb_tex2__baseColor",
			"uri": "image_1.ktx2"
		},
		{
			"mimeType": "image/ktx2",
			"name": "lb_tex2__baseColor",
			"uri": "image_2.ktx2"
		},
		{
			"mimeType": "image/ktx2",
			"name": "lb_tex2__baseColor",
			"uri": "image_3.ktx2"
		},
		{
			"mimeType": "image/ktx2",
			"name": "lb_tex2__occlusionRoughnessMetallic",
			"uri": "lb_tex2__occlusionRoughnessMetallic.ktx2"
		},
		{
			"mimeType": "image/ktx2",
			"name": "lb_tex2__occlusionRoughnessMetallic",
			"uri": "image_4.ktx2"
		}
	],
	"materials": [
		{
			"doubleSided": true,
			"name": "luftbaloon_base",
			"normalTexture": {
				"index": 0
			},
			"pbrMetallicRoughness": {
				"baseColorTexture": {
					"index": 1
				},
				"metallicRoughnessTexture": {
					"index": 2
				}
			}
		},
		{
			"name": "luftbaloon_ropes",
			"pbrMetallicRoughness": {
				"baseColorFactor": [
					2.332800067961216e-05,
					2.332800067961216e-05,
					2.332800067961216e-05,
					1.0
				],
				"metallicFactor": 0.0,
				"roughnessFactor": 0.9399999976158142
			}
		},
		{
			"emissiveFactor": [
				0.0,
				0.0,
				0.0
			],
			"name": "luftbaloon_baloon_pink",
			"occlusionTexture": {
				"index": 7
			},
			"pbrMetallicRoughness": {
				"baseColorFactor": [
					1.0,
					1.0,
					1.0,
					1.0
				],
				"baseColorTexture": {
					"index": 3
				},
				"metallicFactor": 0.0,
				"metallicRoughnessTexture": {
					"index": 7
				},
				"roughnessFactor": 0.9100000262260437
			}
		},
		{
			"emissiveFactor": [
				0.0,
				0.0,
				0.0
			],
			"name": "luftbaloon_baloon_orange",
			"occlusionTexture": {
				"index": 7
			},
			"pbrMetallicRoughness": {
				"baseColorTexture": {
					"index": 4,
					"texCoord": 1
				},
				"metallicFactor": 0.0,
				"metallicRoughnessTexture": {
					"index": 7
				},
				"roughnessFactor": 0.9100000262260437
			}
		},
		{
			"emissiveFactor": [
				0.0,
				0.0,
				0.0
			],
			"name": "luftbaloon_baloon_blue",
			"occlusionTexture": {
				"index": 7
			},
			"pbrMetallicRoughness": {
				"baseColorTexture": {
					"index": 5,
					"texCoord": 1
				},
				"metallicFactor": 0.0,
				"metallicRoughnessTexture": {
					"index": 7
				},
				"roughnessFactor": 0.9100000262260437
			}
		},
		{
			"emissiveFactor": [
				0.0,
				0.0,
				0.0
			],
			"name": "luftbaloon_baloon_metallic",
			"occlusionTexture": {
				"index": 8
			},
			"pbrMetallicRoughness": {
				"baseColorTexture": {
					"index": 6
				},
				"metallicFactor": 0.0,
				"metallicRoughnessTexture": {
					"index": 8
				},
				"roughnessFactor": 0.9100000262260437
			}
		}
	],
	"meshes": [
		{
			"name": "basket_001",
			"primitives": [
				{
					"attributes": {
						"NORMAL": 1,
						"POSITION": 0,
						"TEXCOORD_0": 2
					},
					"indices": 3,
					"material": 0,
					"mode": 4
				}
			]
		},
		{
			"name": "luftbaloon_mushroon_eye_001",
			"primitives": [
				{
					"attributes": {
						"NORMAL": 5,
						"POSITION": 4
					},
					"indices": 6,
					"material": 1,
					"mode": 4
				}
			]
		},
		{
			"name": "luftbalooneye_base_001",
			"primitives": [
				{
					"attributes": {
						"NORMAL": 8,
						"POSITION": 7,
						"TEXCOORD_0": 9,
						"TEXCOORD_1": 9
					},
					"extensions": {
						"KHR_materials_variants": {
							"mappings": [
								{
									"material": 2,
									"variants": [
										0
									]
								},
								{
									"material": 3,
									"variants": [
										1
									]
								},
								{
									"material": 4,
									"variants": [
										2
									]
								},
								{
									"material": 5,
									"variants": [
										3
									]
								}
							]
						}
					},
					"indices": 10,
					"material": 2,
					"mode": 4
				}
			]
		}
	],
	"nodes": [
		{
			"matrix": [
				0.01,
				0.0,
				0.0,
				0.0,
				0.0,
				0.01,
				0.0,
				0.0,
				0.0,
				0.0,
				0.01,
				0.0,
				0.0,
				0.0,
				0.0,
				1.0
			],
			"mesh": 1,
			"name": "luftbaloon_mushroon_eye_001"
		},
		{
			"children": [
				0
			],
			"matrix": [
				1.0,
				0.0,
				0.0,
				0.0,
				0.0,
				2.220446049250313e-16,
				-1.0,
				0.0,
				0.0,
				1.0,
				2.220446049250313e-16,
				0.0,
				-0.4717903137207031,
				-0.663440933227539,
				0.43277530670166015,
				1.0
			]
		},
		{
			"matrix": [
				0.01,
				0.0,
				0.0,
				0.0,
				0.0,
				0.01,
				0.0,
				0.0,
				0.0,
				0.0,
				0.01,
				0.0,
				0.0,
				0.0,
				0.0,
				1.0
			],
			"mesh": 0,
			"name": "basket_001"
		},
		{
			"children": [
				2
			],
			"matrix": [
				1.0,
				0.0,
				0.0,
				0.0,
				0.0,
				2.220446049250313e-16,
				-1.0,
				0.0,
				0.0,
				1.0,
				2.220446049250313e-16,
				0.0,
				-0.4717903137207031,
				-0.663440933227539,
				0.43277530670166015,
				1.0
			]
		},
		{
			"matrix": [
				0.01,
				0.0,
				0.0,
				0.0,
				0.0,
				0.01,
				0.0,
				0.0,
				0.0,
				0.0,
				0.01,
				0.0,
				0.0,
				0.0,
				0.0,
				1.0
			],
			"mesh": 2,
			"name": "luftbalooneye_base_001"
		},
		{
			"children": [
				4
			],
			"matrix": [
				1.0550132989883423,
				0.0,
				0.1670967191457748,
				0.0,
				-8.698195484238006e-08,
				1.0681639909744263,
				5.491856429009654e-07,
				0.0,
				-0.1670967191457748,
				-5.560312472350032e-07,
				1.0550132989883423,
				0.0,
				-0.4698448944091797,
				1.2082233428955078,
				0.43178089141845705,
				1.0
			]
		}
	],
	"samplers": [
		{
			"magFilter": 9729,
			"minFilter": 9729,
			"wrapS": 10497,
			"wrapT": 10497
		},
		{
			"magFilter": 9729,
			"minFilter": 9729,
			"wrapS": 10497,
			"wrapT": 10497
		},
		{
			"magFilter": 9729,
			"minFilter": 9729,
			"wrapS": 10497,
			"wrapT": 10497
		},
		{},
		{},
		{},
		{},
		{},
		{}
	],
	"scenes": [
		{
			"nodes": [
				1,
				3,
				5
			]
		}
	],
	"textures": [
		{
			"extensions": {
				"KHR_texture_basisu": {
					"source": 0
				}
			},
			"name": "texture_source0_sampler0",
			"sampler": 0
		},
		{
			"extensions": {
				"KHR_texture_basisu": {
					"source": 1
				}
			},
			"name": "texture_source1_sampler1",
			"sampler": 1
		},
		{
			"extensions": {
				"KHR_texture_basisu": {
					"source": 2
				}
			},
			"name": "texture_source2_sampler2",
			"sampler": 2
		},
		{
			"extensions": {
				"KHR_texture_basisu": {
					"source": 3
				}
			},
			"name": "lb_tex2__baseColor",
			"sampler": 3
		},
		{
			"extensions": {
				"KHR_texture_basisu": {
					"source": 4
				}
			},
			"name": "lb_tex2__baseColor",
			"sampler": 4
		},
		{
			"extensions": {
				"KHR_texture_basisu": {
					"source": 5
				}
			},
			"name": "lb_tex2__baseColor",
			"sampler": 5
		},
		{
			"extensions": {
				"KHR_texture_basisu": {
					"source": 6
				}
			},
			"name": "lb_tex2__baseColor",
			"sampler": 6
		},
		{
			"extensions": {
				"KHR_texture_basisu": {
					"source": 7
				}
			},
			"name": "lb_tex2__occlusionRoughnessMetallic",
			"sampler": 7
		},
		{
			"extensions": {
				"KHR_texture_basisu": {
					"source": 8
				}
			},
			"name": "lb_tex2__occlusionRoughnessMetallic",
			"sampler": 8
		}
	]
}