{
	"accessors": [
		{
			"bufferView": 0,
			"byteOffset": 0,
			"componentType": 5125,
			"count": 1140,
			"type": "SCALAR"
		},
		{
			"bufferView": 1,
			"byteOffset": 0,
			"componentType": 5126,
			"count": 266,
			"max": [
				8.47972679138184,
				1.68530082702637,
				0.200004577636719
			],
			"min": [
				-8.47972583770752,
				-1.6852970123291,
				0.0
			],
			"type": "VEC3"
		},
		{
			"bufferView": 2,
			"byteOffset": 0,
			"componentType": 5126,
			"count": 266,
			"type": "VEC3"
		},
		{
			"bufferView": 3,
			"byteOffset": 0,
			"componentType": 5126,
			"count": 266,
			"type": "VEC2"
		},
		{
			"bufferView": 4,
			"byteOffset": 0,
			"componentType": 5125,
			"count": 36054,
			"type": "SCALAR"
		},
		{
			"bufferView": 5,
			"byteOffset": 0,
			"componentType": 5126,
			"count": 6290,
			"max": [
				242.827072143555,
				13.0112228393555,
				24.7676448822021
			],
			"min": [
				201.025726318359,
				-4.770339012146,
				-12.1150131225586
			],
			"type": "VEC3"
		},
		{
			"bufferView": 6,
			"byteOffset": 0,
			"componentType": 5126,
			"count": 6290,
			"type": "VEC3"
		},
		{
			"bufferView": 7,
			"byteOffset": 0,
			"componentType": 5126,
			"count": 6290,
			"type": "VEC2"
		}
	],
	"asset": {
		"extras": {
			"created": "Mon Dec 25 15:09:52 2023"
		},
		"generator": "Gestaltor 2023.1.0 Titan Professional",
		"version": "2.0"
	},
	"bufferViews": [
		{
			"buffer": 0,
			"byteLength": 4560,
			"byteOffset": 0,
			"target": 34963
		},
		{
			"buffer": 0,
			"byteLength": 3192,
			"byteOffset": 4560,
			"target": 34962
		},
		{
			"buffer": 0,
			"byteLength": 3192,
			"byteOffset": 7752,
			"target": 34962
		},
		{
			"buffer": 0,
			"byteLength": 2128,
			"byteOffset": 10944,
			"target": 34962
		},
		{
			"buffer": 0,
			"byteLength": 144216,
			"byteOffset": 13072,
			"target": 34963
		},
		{
			"buffer": 0,
			"byteLength": 75480,
			"byteOffset": 157288,
			"target": 34962
		},
		{
			"buffer": 0,
			"byteLength": 75480,
			"byteOffset": 232768,
			"target": 34962
		},
		{
			"buffer": 0,
			"byteLength": 50320,
			"byteOffset": 308248,
			"target": 34962
		}
	],
	"buffers": [
		{
			"byteLength": 358568,
			"uri": "morojenki_4_opt.bin"
		}
	],
	"extensionsRequired": [
		"KHR_texture_basisu"
	],
	"extensionsUsed": [
		"KHR_texture_basisu"
	],
	"images": [
		{
			"mimeType": "image/ktx2",
			"uri": "image_1.ktx2"
		},
		{
			"mimeType": "image/ktx2",
			"uri": "image_2.ktx2"
		},
		{
			"mimeType": "image/ktx2",
			"uri": "image_3.ktx2"
		},
		{
			"mimeType": "image/ktx2",
			"uri": "image_4.ktx2"
		}
	],
	"materials": [
		{
			"alphaMode": "OPAQUE",
			"name": "07 - Default",
			"occlusionTexture": {
				"index": 1
			},
			"pbrMetallicRoughness": {
				"baseColorTexture": {
					"index": 0
				},
				"metallicRoughnessTexture": {
					"index": 1
				}
			}
		},
		{
			"alphaMode": "OPAQUE",
			"name": "09 - Default",
			"occlusionTexture": {
				"index": 3
			},
			"pbrMetallicRoughness": {
				"baseColorTexture": {
					"index": 2
				},
				"metallicRoughnessTexture": {
					"index": 3
				}
			}
		}
	],
	"meshes": [
		{
			"name": "Rectangle004",
			"primitives": [
				{
					"attributes": {
						"NORMAL": 2,
						"POSITION": 1,
						"TEXCOORD_0": 3
					},
					"indices": 0,
					"material": 1,
					"mode": 4
				}
			]
		},
		{
			"name": "tyMesher001_mesh004",
			"primitives": [
				{
					"attributes": {
						"NORMAL": 6,
						"POSITION": 5,
						"TEXCOORD_0": 7
					},
					"indices": 4,
					"material": 0,
					"mode": 4
				}
			]
		}
	],
	"nodes": [
		{
			"children": [
				1,
				3
			],
			"name": "RootNode"
		},
		{
			"children": [
				2
			],
			"name": "Rectangle004",
			"rotation": [
				0.101073391735554,
				-0.235326647758484,
				0.589095890522003,
				0.766401708126068
			],
			"translation": [
				41.2719268798828,
				17.9812850952148,
				-31.9054012298584
			]
		},
		{
			"mesh": 0,
			"name": "Rectangle004"
		},
		{
			"children": [
				4
			],
			"name": "tyMesher001_mesh004",
			"rotation": [
				8.14603424714733e-08,
				0.0,
				0.0,
				1.0
			],
			"translation": [
				-184.026443481445,
				4.57034635543823,
				-49.3607597351074
			]
		},
		{
			"mesh": 1,
			"name": "tyMesher001_mesh004"
		}
	],
	"samplers": [
		{
			"magFilter": 9729,
			"minFilter": 9985,
			"wrapS": 10497,
			"wrapT": 10497
		}
	],
	"scene": 0,
	"scenes": [
		{
			"name": "Scene",
			"nodes": [
				0
			]
		}
	],
	"textures": [
		{
			"extensions": {
				"KHR_texture_basisu": {
					"source": 0
				}
			},
			"sampler": 0
		},
		{
			"extensions": {
				"KHR_texture_basisu": {
					"source": 1
				}
			},
			"sampler": 0
		},
		{
			"extensions": {
				"KHR_texture_basisu": {
					"source": 2
				}
			},
			"sampler": 0
		},
		{
			"extensions": {
				"KHR_texture_basisu": {
					"source": 3
				}
			},
			"sampler": 0
		}
	]
}