{
	"accessors": [
		{
			"bufferView": 0,
			"byteOffset": 0,
			"componentType": 5125,
			"count": 1140,
			"type": "SCALAR"
		},
		{
			"bufferView": 1,
			"byteOffset": 0,
			"componentType": 5126,
			"count": 262,
			"max": [
				8.47972774505615,
				1.68529987335205,
				0.200005292892456
			],
			"min": [
				-8.4797248840332,
				-1.68529605865479,
				-1.19209289550781e-06
			],
			"type": "VEC3"
		},
		{
			"bufferView": 2,
			"byteOffset": 0,
			"componentType": 5126,
			"count": 262,
			"type": "VEC3"
		},
		{
			"bufferView": 3,
			"byteOffset": 0,
			"componentType": 5126,
			"count": 262,
			"type": "VEC2"
		},
		{
			"bufferView": 4,
			"byteOffset": 0,
			"componentType": 5125,
			"count": 34038,
			"type": "SCALAR"
		},
		{
			"bufferView": 5,
			"byteOffset": 0,
			"componentType": 5126,
			"count": 5938,
			"max": [
				283.472930908203,
				16.3379135131836,
				29.1502265930176
			],
			"min": [
				237.168029785156,
				-4.769850730896,
				-12.4501981735229
			],
			"type": "VEC3"
		},
		{
			"bufferView": 6,
			"byteOffset": 0,
			"componentType": 5126,
			"count": 5938,
			"type": "VEC3"
		},
		{
			"bufferView": 7,
			"byteOffset": 0,
			"componentType": 5126,
			"count": 5938,
			"type": "VEC2"
		}
	],
	"asset": {
		"extras": {
			"created": "Mon Dec 25 15:10:04 2023"
		},
		"generator": "Gestaltor 2023.1.0 Titan Professional",
		"version": "2.0"
	},
	"bufferViews": [
		{
			"buffer": 0,
			"byteLength": 4560,
			"byteOffset": 0,
			"target": 34963
		},
		{
			"buffer": 0,
			"byteLength": 3144,
			"byteOffset": 4560,
			"target": 34962
		},
		{
			"buffer": 0,
			"byteLength": 3144,
			"byteOffset": 7704,
			"target": 34962
		},
		{
			"buffer": 0,
			"byteLength": 2096,
			"byteOffset": 10848,
			"target": 34962
		},
		{
			"buffer": 0,
			"byteLength": 136152,
			"byteOffset": 12944,
			"target": 34963
		},
		{
			"buffer": 0,
			"byteLength": 71256,
			"byteOffset": 149096,
			"target": 34962
		},
		{
			"buffer": 0,
			"byteLength": 71256,
			"byteOffset": 220352,
			"target": 34962
		},
		{
			"buffer": 0,
			"byteLength": 47504,
			"byteOffset": 291608,
			"target": 34962
		}
	],
	"buffers": [
		{
			"byteLength": 339112,
			"uri": "morojenki_5_opt.bin"
		}
	],
	"extensionsRequired": [
		"KHR_texture_basisu"
	],
	"extensionsUsed": [
		"KHR_texture_basisu"
	],
	"images": [
		{
			"mimeType": "image/ktx2",
			"uri": "image_1.ktx2"
		},
		{
			"mimeType": "image/ktx2",
			"uri": "image_2.ktx2"
		},
		{
			"mimeType": "image/ktx2",
			"uri": "image_3.ktx2"
		},
		{
			"mimeType": "image/ktx2",
			"uri": "image_4.ktx2"
		}
	],
	"materials": [
		{
			"alphaMode": "OPAQUE",
			"name": "08 - Default",
			"occlusionTexture": {
				"index": 1
			},
			"pbrMetallicRoughness": {
				"baseColorTexture": {
					"index": 0
				},
				"metallicRoughnessTexture": {
					"index": 1
				}
			}
		},
		{
			"alphaMode": "OPAQUE",
			"name": "09 - Default",
			"occlusionTexture": {
				"index": 3
			},
			"pbrMetallicRoughness": {
				"baseColorTexture": {
					"index": 2
				},
				"metallicRoughnessTexture": {
					"index": 3
				}
			}
		}
	],
	"meshes": [
		{
			"name": "Rectangle005",
			"primitives": [
				{
					"attributes": {
						"NORMAL": 2,
						"POSITION": 1,
						"TEXCOORD_0": 3
					},
					"indices": 0,
					"material": 1,
					"mode": 4
				}
			]
		},
		{
			"name": "tyMesher001_mesh005",
			"primitives": [
				{
					"attributes": {
						"NORMAL": 6,
						"POSITION": 5,
						"TEXCOORD_0": 7
					},
					"indices": 4,
					"material": 0,
					"mode": 4
				}
			]
		}
	],
	"nodes": [
		{
			"children": [
				1,
				3
			],
			"name": "RootNode"
		},
		{
			"children": [
				2
			],
			"name": "Rectangle005",
			"rotation": [
				-0.068041980266571,
				-0.440647929906845,
				0.593818008899689,
				0.669761061668396
			],
			"translation": [
				71.923698425293,
				21.2216567993164,
				8.1167163848877
			]
		},
		{
			"mesh": 0,
			"name": "Rectangle005"
		},
		{
			"children": [
				4
			],
			"name": "tyMesher001_mesh005",
			"rotation": [
				8.14603424714733e-08,
				0.0,
				0.0,
				1.0
			],
			"translation": [
				-187.631088256836,
				4.57034635543823,
				-11.5120162963867
			]
		},
		{
			"mesh": 1,
			"name": "tyMesher001_mesh005"
		}
	],
	"samplers": [
		{
			"magFilter": 9729,
			"minFilter": 9985,
			"wrapS": 10497,
			"wrapT": 10497
		}
	],
	"scene": 0,
	"scenes": [
		{
			"name": "Scene",
			"nodes": [
				0
			]
		}
	],
	"textures": [
		{
			"extensions": {
				"KHR_texture_basisu": {
					"source": 0
				}
			},
			"sampler": 0
		},
		{
			"extensions": {
				"KHR_texture_basisu": {
					"source": 1
				}
			},
			"sampler": 0
		},
		{
			"extensions": {
				"KHR_texture_basisu": {
					"source": 2
				}
			},
			"sampler": 0
		},
		{
			"extensions": {
				"KHR_texture_basisu": {
					"source": 3
				}
			},
			"sampler": 0
		}
	]
}