{
	"accessors": [
		{
			"bufferView": 0,
			"byteOffset": 0,
			"componentType": 5125,
			"count": 1140,
			"type": "SCALAR"
		},
		{
			"bufferView": 1,
			"byteOffset": 0,
			"componentType": 5126,
			"count": 258,
			"max": [
				8.47972297668457,
				1.68530082702637,
				0.200003147125244
			],
			"min": [
				-8.47972869873047,
				-1.68529605865479,
				4.76837158203125e-07
			],
			"type": "VEC3"
		},
		{
			"bufferView": 2,
			"byteOffset": 0,
			"componentType": 5126,
			"count": 258,
			"type": "VEC3"
		},
		{
			"bufferView": 3,
			"byteOffset": 0,
			"componentType": 5126,
			"count": 258,
			"type": "VEC2"
		},
		{
			"bufferView": 4,
			"byteOffset": 0,
			"componentType": 5125,
			"count": 35292,
			"type": "SCALAR"
		},
		{
			"bufferView": 5,
			"byteOffset": 0,
			"componentType": 5126,
			"count": 6157,
			"max": [
				104.057922363281,
				11.3620767593384,
				28.1455974578857
			],
			"min": [
				66.6578521728516,
				-4.77034091949463,
				-6.32572460174561
			],
			"type": "VEC3"
		},
		{
			"bufferView": 6,
			"byteOffset": 0,
			"componentType": 5126,
			"count": 6157,
			"type": "VEC3"
		},
		{
			"bufferView": 7,
			"byteOffset": 0,
			"componentType": 5126,
			"count": 6157,
			"type": "VEC2"
		}
	],
	"asset": {
		"extras": {
			"created": "Mon Dec 25 15:08:58 2023"
		},
		"generator": "Gestaltor 2023.1.0 Titan Professional",
		"version": "2.0"
	},
	"bufferViews": [
		{
			"buffer": 0,
			"byteLength": 4560,
			"byteOffset": 0,
			"target": 34963
		},
		{
			"buffer": 0,
			"byteLength": 3096,
			"byteOffset": 4560,
			"target": 34962
		},
		{
			"buffer": 0,
			"byteLength": 3096,
			"byteOffset": 7656,
			"target": 34962
		},
		{
			"buffer": 0,
			"byteLength": 2064,
			"byteOffset": 10752,
			"target": 34962
		},
		{
			"buffer": 0,
			"byteLength": 141168,
			"byteOffset": 12816,
			"target": 34963
		},
		{
			"buffer": 0,
			"byteLength": 73884,
			"byteOffset": 153984,
			"target": 34962
		},
		{
			"buffer": 0,
			"byteLength": 73884,
			"byteOffset": 227868,
			"target": 34962
		},
		{
			"buffer": 0,
			"byteLength": 49256,
			"byteOffset": 301752,
			"target": 34962
		}
	],
	"buffers": [
		{
			"byteLength": 351008,
			"uri": "morojenki_1_opt.bin"
		}
	],
	"extensionsRequired": [
		"KHR_texture_basisu"
	],
	"extensionsUsed": [
		"KHR_texture_basisu"
	],
	"images": [
		{
			"mimeType": "image/ktx2",
			"uri": "image_1.ktx2"
		},
		{
			"mimeType": "image/ktx2",
			"uri": "image_2.ktx2"
		},
		{
			"mimeType": "image/ktx2",
			"uri": "image_3.ktx2"
		},
		{
			"mimeType": "image/ktx2",
			"uri": "image_4.ktx2"
		}
	],
	"materials": [
		{
			"alphaMode": "OPAQUE",
			"name": "01 - Default",
			"occlusionTexture": {
				"index": 1
			},
			"pbrMetallicRoughness": {
				"baseColorTexture": {
					"index": 0
				},
				"metallicRoughnessTexture": {
					"index": 1
				}
			}
		},
		{
			"alphaMode": "OPAQUE",
			"name": "09 - Default",
			"occlusionTexture": {
				"index": 3
			},
			"pbrMetallicRoughness": {
				"baseColorTexture": {
					"index": 2
				},
				"metallicRoughnessTexture": {
					"index": 3
				}
			}
		}
	],
	"meshes": [
		{
			"name": "Rectangle001",
			"primitives": [
				{
					"attributes": {
						"NORMAL": 2,
						"POSITION": 1,
						"TEXCOORD_0": 3
					},
					"indices": 0,
					"material": 1,
					"mode": 4
				}
			]
		},
		{
			"name": "tyMesher001_mesh001",
			"primitives": [
				{
					"attributes": {
						"NORMAL": 6,
						"POSITION": 5,
						"TEXCOORD_0": 7
					},
					"indices": 4,
					"material": 0,
					"mode": 4
				}
			]
		}
	],
	"nodes": [
		{
			"children": [
				1,
				3
			],
			"name": "RootNode"
		},
		{
			"children": [
				2
			],
			"name": "Rectangle001",
			"rotation": [
				-0.524432718753815,
				0.0385721474885941,
				0.474310338497162,
				0.706053972244263
			],
			"scale": [
				0.999999940395355,
				1.0,
				1.0
			],
			"translation": [
				43.442310333252,
				16.230224609375,
				-6.39096021652222
			]
		},
		{
			"mesh": 0,
			"name": "Rectangle001"
		},
		{
			"children": [
				4
			],
			"name": "tyMesher001_mesh001",
			"rotation": [
				8.14603424714733e-08,
				0.0,
				0.0,
				1.0
			],
			"translation": [
				-57.1430511474609,
				4.57034635543823,
				-3.58180403709412
			]
		},
		{
			"mesh": 1,
			"name": "tyMesher001_mesh001"
		}
	],
	"samplers": [
		{
			"magFilter": 9729,
			"minFilter": 9985,
			"wrapS": 10497,
			"wrapT": 10497
		}
	],
	"scene": 0,
	"scenes": [
		{
			"name": "Scene",
			"nodes": [
				0
			]
		}
	],
	"textures": [
		{
			"extensions": {
				"KHR_texture_basisu": {
					"source": 0
				}
			},
			"sampler": 0
		},
		{
			"extensions": {
				"KHR_texture_basisu": {
					"source": 1
				}
			},
			"sampler": 0
		},
		{
			"extensions": {
				"KHR_texture_basisu": {
					"source": 2
				}
			},
			"sampler": 0
		},
		{
			"extensions": {
				"KHR_texture_basisu": {
					"source": 3
				}
			},
			"sampler": 0
		}
	]
}