{
	"accessors": [
		{
			"bufferView": 0,
			"byteOffset": 0,
			"componentType": 5125,
			"count": 1140,
			"type": "SCALAR"
		},
		{
			"bufferView": 1,
			"byteOffset": 0,
			"componentType": 5126,
			"count": 266,
			"max": [
				8.4797248840332,
				1.68530464172363,
				0.200008392333984
			],
			"min": [
				-8.4797248840332,
				-1.6852970123291,
				3.814697265625e-06
			],
			"type": "VEC3"
		},
		{
			"bufferView": 2,
			"byteOffset": 0,
			"componentType": 5126,
			"count": 266,
			"type": "VEC3"
		},
		{
			"bufferView": 3,
			"byteOffset": 0,
			"componentType": 5126,
			"count": 266,
			"type": "VEC2"
		},
		{
			"bufferView": 4,
			"byteOffset": 0,
			"componentType": 5125,
			"count": 35898,
			"type": "SCALAR"
		},
		{
			"bufferView": 5,
			"byteOffset": 0,
			"componentType": 5126,
			"count": 6259,
			"max": [
				192.671478271484,
				16.4063549041748,
				28.9546680450439
			],
			"min": [
				155.674301147461,
				-4.77033996582031,
				-10.0075874328613
			],
			"type": "VEC3"
		},
		{
			"bufferView": 6,
			"byteOffset": 0,
			"componentType": 5126,
			"count": 6259,
			"type": "VEC3"
		},
		{
			"bufferView": 7,
			"byteOffset": 0,
			"componentType": 5126,
			"count": 6259,
			"type": "VEC2"
		}
	],
	"asset": {
		"extras": {
			"created": "Mon Dec 25 15:09:31 2023"
		},
		"generator": "Gestaltor 2023.1.0 Titan Professional",
		"version": "2.0"
	},
	"bufferViews": [
		{
			"buffer": 0,
			"byteLength": 4560,
			"byteOffset": 0,
			"target": 34963
		},
		{
			"buffer": 0,
			"byteLength": 3192,
			"byteOffset": 4560,
			"target": 34962
		},
		{
			"buffer": 0,
			"byteLength": 3192,
			"byteOffset": 7752,
			"target": 34962
		},
		{
			"buffer": 0,
			"byteLength": 2128,
			"byteOffset": 10944,
			"target": 34962
		},
		{
			"buffer": 0,
			"byteLength": 143592,
			"byteOffset": 13072,
			"target": 34963
		},
		{
			"buffer": 0,
			"byteLength": 75108,
			"byteOffset": 156664,
			"target": 34962
		},
		{
			"buffer": 0,
			"byteLength": 75108,
			"byteOffset": 231772,
			"target": 34962
		},
		{
			"buffer": 0,
			"byteLength": 50072,
			"byteOffset": 306880,
			"target": 34962
		}
	],
	"buffers": [
		{
			"byteLength": 356952,
			"uri": "morojenki_3_opt.bin"
		}
	],
	"extensionsRequired": [
		"KHR_texture_basisu"
	],
	"extensionsUsed": [
		"KHR_texture_basisu"
	],
	"images": [
		{
			"mimeType": "image/ktx2",
			"uri": "image_1.ktx2"
		},
		{
			"mimeType": "image/ktx2",
			"uri": "image_2.ktx2"
		},
		{
			"mimeType": "image/ktx2",
			"uri": "image_3.ktx2"
		},
		{
			"mimeType": "image/ktx2",
			"uri": "image_4.ktx2"
		}
	],
	"materials": [
		{
			"alphaMode": "OPAQUE",
			"name": "03 - Default",
			"occlusionTexture": {
				"index": 1
			},
			"pbrMetallicRoughness": {
				"baseColorTexture": {
					"index": 0
				},
				"metallicRoughnessTexture": {
					"index": 1
				}
			}
		},
		{
			"alphaMode": "OPAQUE",
			"name": "09 - Default",
			"occlusionTexture": {
				"index": 3
			},
			"pbrMetallicRoughness": {
				"baseColorTexture": {
					"index": 2
				},
				"metallicRoughnessTexture": {
					"index": 3
				}
			}
		}
	],
	"meshes": [
		{
			"name": "Rectangle003",
			"primitives": [
				{
					"attributes": {
						"NORMAL": 2,
						"POSITION": 1,
						"TEXCOORD_0": 3
					},
					"indices": 0,
					"material": 1,
					"mode": 4
				}
			]
		},
		{
			"name": "tyMesher001_mesh003",
			"primitives": [
				{
					"attributes": {
						"NORMAL": 6,
						"POSITION": 5,
						"TEXCOORD_0": 7
					},
					"indices": 4,
					"material": 0,
					"mode": 4
				}
			]
		}
	],
	"nodes": [
		{
			"children": [
				1,
				3
			],
			"name": "RootNode"
		},
		{
			"children": [
				2
			],
			"name": "Rectangle003",
			"rotation": [
				-0.116270042955875,
				0.0542980432510376,
				0.586285829544067,
				0.79987621307373
			],
			"scale": [
				0.999999940395355,
				0.999999940395355,
				0.999999940395355
			],
			"translation": [
				97.998176574707,
				21.7052040100098,
				-51.1760787963867
			]
		},
		{
			"mesh": 0,
			"name": "Rectangle003"
		},
		{
			"children": [
				4
			],
			"name": "tyMesher001_mesh003",
			"rotation": [
				8.14603424714733e-08,
				0.0,
				0.0,
				1.0
			],
			"translation": [
				-81.6486511230469,
				4.57034635543823,
				-48.6383438110352
			]
		},
		{
			"mesh": 1,
			"name": "tyMesher001_mesh003"
		}
	],
	"samplers": [
		{
			"magFilter": 9729,
			"minFilter": 9985,
			"wrapS": 10497,
			"wrapT": 10497
		}
	],
	"scene": 0,
	"scenes": [
		{
			"name": "Scene",
			"nodes": [
				0
			]
		}
	],
	"textures": [
		{
			"extensions": {
				"KHR_texture_basisu": {
					"source": 0
				}
			},
			"sampler": 0
		},
		{
			"extensions": {
				"KHR_texture_basisu": {
					"source": 1
				}
			},
			"sampler": 0
		},
		{
			"extensions": {
				"KHR_texture_basisu": {
					"source": 2
				}
			},
			"sampler": 0
		},
		{
			"extensions": {
				"KHR_texture_basisu": {
					"source": 3
				}
			},
			"sampler": 0
		}
	]
}