{
	"accessors": [
		{
			"bufferView": 0,
			"byteOffset": 0,
			"componentType": 5125,
			"count": 1140,
			"type": "SCALAR"
		},
		{
			"bufferView": 1,
			"byteOffset": 0,
			"componentType": 5126,
			"count": 270,
			"max": [
				8.47972679138184,
				1.685302734375,
				0.200000762939453
			],
			"min": [
				-8.47972393035889,
				-1.6852912902832,
				-5.7220458984375e-06
			],
			"type": "VEC3"
		},
		{
			"bufferView": 2,
			"byteOffset": 0,
			"componentType": 5126,
			"count": 270,
			"type": "VEC3"
		},
		{
			"bufferView": 3,
			"byteOffset": 0,
			"componentType": 5126,
			"count": 270,
			"type": "VEC2"
		},
		{
			"bufferView": 4,
			"byteOffset": 0,
			"componentType": 5125,
			"count": 34278,
			"type": "SCALAR"
		},
		{
			"bufferView": 5,
			"byteOffset": 0,
			"componentType": 5126,
			"count": 5988,
			"max": [
				150.496002197266,
				13.703857421875,
				25.0637378692627
			],
			"min": [
				111.773834228516,
				-4.77033996582031,
				-9.79778861999512
			],
			"type": "VEC3"
		},
		{
			"bufferView": 6,
			"byteOffset": 0,
			"componentType": 5126,
			"count": 5988,
			"type": "VEC3"
		},
		{
			"bufferView": 7,
			"byteOffset": 0,
			"componentType": 5126,
			"count": 5988,
			"type": "VEC2"
		}
	],
	"asset": {
		"extras": {
			"created": "Mon Dec 25 15:09:17 2023"
		},
		"generator": "Gestaltor 2023.1.0 Titan Professional",
		"version": "2.0"
	},
	"bufferViews": [
		{
			"buffer": 0,
			"byteLength": 4560,
			"byteOffset": 0,
			"target": 34963
		},
		{
			"buffer": 0,
			"byteLength": 3240,
			"byteOffset": 4560,
			"target": 34962
		},
		{
			"buffer": 0,
			"byteLength": 3240,
			"byteOffset": 7800,
			"target": 34962
		},
		{
			"buffer": 0,
			"byteLength": 2160,
			"byteOffset": 11040,
			"target": 34962
		},
		{
			"buffer": 0,
			"byteLength": 137112,
			"byteOffset": 13200,
			"target": 34963
		},
		{
			"buffer": 0,
			"byteLength": 71856,
			"byteOffset": 150312,
			"target": 34962
		},
		{
			"buffer": 0,
			"byteLength": 71856,
			"byteOffset": 222168,
			"target": 34962
		},
		{
			"buffer": 0,
			"byteLength": 47904,
			"byteOffset": 294024,
			"target": 34962
		}
	],
	"buffers": [
		{
			"byteLength": 341928,
			"uri": "morojenki_2_opt.bin"
		}
	],
	"extensionsRequired": [
		"KHR_texture_basisu"
	],
	"extensionsUsed": [
		"KHR_texture_basisu"
	],
	"images": [
		{
			"mimeType": "image/ktx2",
			"uri": "image_1.ktx2"
		},
		{
			"mimeType": "image/ktx2",
			"uri": "image_2.ktx2"
		},
		{
			"mimeType": "image/ktx2",
			"uri": "image_3.ktx2"
		},
		{
			"mimeType": "image/ktx2",
			"uri": "image_4.ktx2"
		}
	],
	"materials": [
		{
			"alphaMode": "OPAQUE",
			"name": "02 - Default",
			"occlusionTexture": {
				"index": 1
			},
			"pbrMetallicRoughness": {
				"baseColorTexture": {
					"index": 0
				},
				"metallicRoughnessTexture": {
					"index": 1
				}
			}
		},
		{
			"alphaMode": "OPAQUE",
			"name": "09 - Default",
			"occlusionTexture": {
				"index": 3
			},
			"pbrMetallicRoughness": {
				"baseColorTexture": {
					"index": 2
				},
				"metallicRoughnessTexture": {
					"index": 3
				}
			}
		}
	],
	"meshes": [
		{
			"name": "Rectangle002",
			"primitives": [
				{
					"attributes": {
						"NORMAL": 2,
						"POSITION": 1,
						"TEXCOORD_0": 3
					},
					"indices": 0,
					"material": 1,
					"mode": 4
				}
			]
		},
		{
			"name": "tyMesher001_mesh002",
			"primitives": [
				{
					"attributes": {
						"NORMAL": 6,
						"POSITION": 5,
						"TEXCOORD_0": 7
					},
					"indices": 4,
					"material": 0,
					"mode": 4
				}
			]
		}
	],
	"nodes": [
		{
			"children": [
				1,
				3
			],
			"name": "RootNode"
		},
		{
			"children": [
				2
			],
			"name": "Rectangle002",
			"rotation": [
				0.227924704551697,
				0.466337293386459,
				0.803507626056671,
				0.291471034288406
			],
			"scale": [
				1.0,
				0.999999940395355,
				1.0
			],
			"translation": [
				67.8483581542969,
				16.741117477417,
				42.9792518615723
			]
		},
		{
			"mesh": 0,
			"name": "Rectangle002"
		},
		{
			"children": [
				4
			],
			"name": "tyMesher001_mesh002",
			"rotation": [
				6.65685888634471e-08,
				0.57636833190918,
				-4.69511611811413e-08,
				0.817190051078796
			],
			"scale": [
				0.999999940395355,
				1.0,
				0.999999940395355
			],
			"translation": [
				34.819938659668,
				4.57034635543823,
				157.517181396484
			]
		},
		{
			"mesh": 1,
			"name": "tyMesher001_mesh002"
		}
	],
	"samplers": [
		{
			"magFilter": 9729,
			"minFilter": 9985,
			"wrapS": 10497,
			"wrapT": 10497
		}
	],
	"scene": 0,
	"scenes": [
		{
			"name": "Scene",
			"nodes": [
				0
			]
		}
	],
	"textures": [
		{
			"extensions": {
				"KHR_texture_basisu": {
					"source": 0
				}
			},
			"sampler": 0
		},
		{
			"extensions": {
				"KHR_texture_basisu": {
					"source": 1
				}
			},
			"sampler": 0
		},
		{
			"extensions": {
				"KHR_texture_basisu": {
					"source": 2
				}
			},
			"sampler": 0
		},
		{
			"extensions": {
				"KHR_texture_basisu": {
					"source": 3
				}
			},
			"sampler": 0
		}
	]
}