{
	"accessors": [
		{
			"bufferView": 0,
			"byteOffset": 0,
			"componentType": 5125,
			"count": 1764,
			"type": "SCALAR"
		},
		{
			"bufferView": 1,
			"byteOffset": 0,
			"componentType": 5126,
			"count": 324,
			"max": [
				96.1883087158203,
				125.672576904297,
				60.3359909057617
			],
			"min": [
				-97.285400390625,
				-117.539428710938,
				-69.5165405273438
			],
			"type": "VEC3"
		},
		{
			"bufferView": 2,
			"byteOffset": 0,
			"componentType": 5126,
			"count": 324,
			"type": "VEC3"
		},
		{
			"bufferView": 3,
			"byteOffset": 0,
			"componentType": 5126,
			"count": 324,
			"type": "VEC2"
		},
		{
			"bufferView": 4,
			"byteOffset": 0,
			"componentType": 5125,
			"count": 2304,
			"type": "SCALAR"
		},
		{
			"bufferView": 5,
			"byteOffset": 0,
			"componentType": 5126,
			"count": 418,
			"max": [
				131.780044555664,
				105.870727539062,
				72.9344177246094
			],
			"min": [
				-131.467407226562,
				-105.671295166016,
				-74.8508911132812
			],
			"type": "VEC3"
		},
		{
			"bufferView": 6,
			"byteOffset": 0,
			"componentType": 5126,
			"count": 418,
			"type": "VEC3"
		},
		{
			"bufferView": 7,
			"byteOffset": 0,
			"componentType": 5126,
			"count": 418,
			"type": "VEC2"
		},
		{
			"bufferView": 8,
			"byteOffset": 0,
			"componentType": 5125,
			"count": 2304,
			"type": "SCALAR"
		},
		{
			"bufferView": 9,
			"byteOffset": 0,
			"componentType": 5126,
			"count": 418,
			"max": [
				143.361389160156,
				92.2241516113281,
				88.8356018066406
			],
			"min": [
				-143.095703125,
				-92.8964233398438,
				-90.9080810546875
			],
			"type": "VEC3"
		},
		{
			"bufferView": 10,
			"byteOffset": 0,
			"componentType": 5126,
			"count": 418,
			"type": "VEC3"
		},
		{
			"bufferView": 11,
			"byteOffset": 0,
			"componentType": 5126,
			"count": 418,
			"type": "VEC2"
		},
		{
			"bufferView": 12,
			"byteOffset": 0,
			"componentType": 5125,
			"count": 2304,
			"type": "SCALAR"
		},
		{
			"bufferView": 13,
			"byteOffset": 0,
			"componentType": 5126,
			"count": 418,
			"max": [
				145.484954833984,
				128.234588623047,
				78.0604248046875
			],
			"min": [
				-155.538299560547,
				-133.902435302734,
				-82.6699523925781
			],
			"type": "VEC3"
		},
		{
			"bufferView": 14,
			"byteOffset": 0,
			"componentType": 5126,
			"count": 418,
			"type": "VEC3"
		},
		{
			"bufferView": 15,
			"byteOffset": 0,
			"componentType": 5126,
			"count": 418,
			"type": "VEC2"
		},
		{
			"bufferView": 16,
			"byteOffset": 0,
			"componentType": 5125,
			"count": 2916,
			"type": "SCALAR"
		},
		{
			"bufferView": 17,
			"byteOffset": 0,
			"componentType": 5126,
			"count": 524,
			"max": [
				163.644760131836,
				134.760711669922,
				65.9749755859375
			],
			"min": [
				-157.74609375,
				-137.341491699219,
				-66.6105651855469
			],
			"type": "VEC3"
		},
		{
			"bufferView": 18,
			"byteOffset": 0,
			"componentType": 5126,
			"count": 524,
			"type": "VEC3"
		},
		{
			"bufferView": 19,
			"byteOffset": 0,
			"componentType": 5126,
			"count": 524,
			"type": "VEC2"
		}
	],
	"asset": {
		"extras": {
			"created": "Mon Dec 25 15:10:35 2023"
		},
		"generator": "Gestaltor 2023.1.0 Titan Professional",
		"version": "2.0"
	},
	"bufferViews": [
		{
			"buffer": 0,
			"byteLength": 7056,
			"byteOffset": 0,
			"target": 34963
		},
		{
			"buffer": 0,
			"byteLength": 3888,
			"byteOffset": 7056,
			"target": 34962
		},
		{
			"buffer": 0,
			"byteLength": 3888,
			"byteOffset": 10944,
			"target": 34962
		},
		{
			"buffer": 0,
			"byteLength": 2592,
			"byteOffset": 14832,
			"target": 34962
		},
		{
			"buffer": 0,
			"byteLength": 9216,
			"byteOffset": 17424,
			"target": 34963
		},
		{
			"buffer": 0,
			"byteLength": 5016,
			"byteOffset": 26640,
			"target": 34962
		},
		{
			"buffer": 0,
			"byteLength": 5016,
			"byteOffset": 31656,
			"target": 34962
		},
		{
			"buffer": 0,
			"byteLength": 3344,
			"byteOffset": 36672,
			"target": 34962
		},
		{
			"buffer": 0,
			"byteLength": 9216,
			"byteOffset": 40016,
			"target": 34963
		},
		{
			"buffer": 0,
			"byteLength": 5016,
			"byteOffset": 49232,
			"target": 34962
		},
		{
			"buffer": 0,
			"byteLength": 5016,
			"byteOffset": 54248,
			"target": 34962
		},
		{
			"buffer": 0,
			"byteLength": 3344,
			"byteOffset": 59264,
			"target": 34962
		},
		{
			"buffer": 0,
			"byteLength": 9216,
			"byteOffset": 62608,
			"target": 34963
		},
		{
			"buffer": 0,
			"byteLength": 5016,
			"byteOffset": 71824,
			"target": 34962
		},
		{
			"buffer": 0,
			"byteLength": 5016,
			"byteOffset": 76840,
			"target": 34962
		},
		{
			"buffer": 0,
			"byteLength": 3344,
			"byteOffset": 81856,
			"target": 34962
		},
		{
			"buffer": 0,
			"byteLength": 11664,
			"byteOffset": 85200,
			"target": 34963
		},
		{
			"buffer": 0,
			"byteLength": 6288,
			"byteOffset": 96864,
			"target": 34962
		},
		{
			"buffer": 0,
			"byteLength": 6288,
			"byteOffset": 103152,
			"target": 34962
		},
		{
			"buffer": 0,
			"byteLength": 4192,
			"byteOffset": 109440,
			"target": 34962
		}
	],
	"buffers": [
		{
			"byteLength": 113632,
			"uri": "rocks_1_opt.bin"
		}
	],
	"extensionsRequired": [
		"KHR_texture_basisu"
	],
	"extensionsUsed": [
		"KHR_texture_basisu"
	],
	"images": [
		{
			"mimeType": "image/ktx2",
			"uri": "image_1.ktx2"
		},
		{
			"mimeType": "image/ktx2",
			"uri": "image_2.ktx2"
		},
		{
			"mimeType": "image/ktx2",
			"uri": "image_3.ktx2"
		},
		{
			"mimeType": "image/ktx2",
			"uri": "image_4.ktx2"
		},
		{
			"mimeType": "image/ktx2",
			"uri": "image_5.ktx2"
		},
		{
			"mimeType": "image/ktx2",
			"uri": "image_6.ktx2"
		},
		{
			"mimeType": "image/ktx2",
			"uri": "image_7.ktx2"
		},
		{
			"mimeType": "image/ktx2",
			"uri": "image_8.ktx2"
		},
		{
			"mimeType": "image/ktx2",
			"uri": "image_9.ktx2"
		},
		{
			"mimeType": "image/ktx2",
			"uri": "image_10.ktx2"
		},
		{
			"mimeType": "image/ktx2",
			"uri": "image_11.ktx2"
		},
		{
			"mimeType": "image/ktx2",
			"uri": "image_12.ktx2"
		},
		{
			"mimeType": "image/ktx2",
			"uri": "image_13.ktx2"
		},
		{
			"mimeType": "image/ktx2",
			"uri": "image_14.ktx2"
		},
		{
			"mimeType": "image/ktx2",
			"uri": "image_15.ktx2"
		}
	],
	"materials": [
		{
			"alphaMode": "OPAQUE",
			"name": "col1_gray",
			"normalTexture": {
				"index": 2
			},
			"occlusionTexture": {
				"index": 1
			},
			"pbrMetallicRoughness": {
				"baseColorTexture": {
					"index": 0
				},
				"metallicRoughnessTexture": {
					"index": 1
				}
			}
		},
		{
			"alphaMode": "OPAQUE",
			"name": "col1_lightgray",
			"normalTexture": {
				"index": 5
			},
			"occlusionTexture": {
				"index": 4
			},
			"pbrMetallicRoughness": {
				"baseColorTexture": {
					"index": 3
				},
				"metallicRoughnessTexture": {
					"index": 4
				}
			}
		},
		{
			"alphaMode": "OPAQUE",
			"name": "col1_orange",
			"normalTexture": {
				"index": 8
			},
			"occlusionTexture": {
				"index": 7
			},
			"pbrMetallicRoughness": {
				"baseColorTexture": {
					"index": 6
				},
				"metallicRoughnessTexture": {
					"index": 7
				}
			}
		},
		{
			"alphaMode": "OPAQUE",
			"name": "col1_sand",
			"normalTexture": {
				"index": 11
			},
			"occlusionTexture": {
				"index": 10
			},
			"pbrMetallicRoughness": {
				"baseColorTexture": {
					"index": 9
				},
				"metallicRoughnessTexture": {
					"index": 10
				}
			}
		},
		{
			"alphaMode": "OPAQUE",
			"name": "col1_white",
			"normalTexture": {
				"index": 14
			},
			"occlusionTexture": {
				"index": 13
			},
			"pbrMetallicRoughness": {
				"baseColorTexture": {
					"index": 12
				},
				"metallicRoughnessTexture": {
					"index": 13
				}
			}
		}
	],
	"meshes": [
		{
			"name": "Proxy.Stone_005",
			"primitives": [
				{
					"attributes": {
						"NORMAL": 2,
						"POSITION": 1,
						"TEXCOORD_0": 3
					},
					"indices": 0,
					"material": 2,
					"mode": 4
				}
			]
		},
		{
			"name": "Proxy.Stone_011",
			"primitives": [
				{
					"attributes": {
						"NORMAL": 6,
						"POSITION": 5,
						"TEXCOORD_0": 7
					},
					"indices": 4,
					"material": 1,
					"mode": 4
				}
			]
		},
		{
			"name": "Proxy.Stone_016",
			"primitives": [
				{
					"attributes": {
						"NORMAL": 10,
						"POSITION": 9,
						"TEXCOORD_0": 11
					},
					"indices": 8,
					"material": 4,
					"mode": 4
				}
			]
		},
		{
			"name": "Proxy.Stone_025",
			"primitives": [
				{
					"attributes": {
						"NORMAL": 14,
						"POSITION": 13,
						"TEXCOORD_0": 15
					},
					"indices": 12,
					"material": 3,
					"mode": 4
				}
			]
		},
		{
			"name": "Proxy.Stone_026",
			"primitives": [
				{
					"attributes": {
						"NORMAL": 18,
						"POSITION": 17,
						"TEXCOORD_0": 19
					},
					"indices": 16,
					"material": 0,
					"mode": 4
				}
			]
		}
	],
	"nodes": [
		{
			"children": [
				1,
				3,
				5,
				7,
				9
			],
			"name": "RootNode"
		},
		{
			"children": [
				2
			],
			"name": "Proxy.Stone_005",
			"rotation": [
				-0.70710676908493,
				0.0,
				0.0,
				0.70710676908493
			],
			"translation": [
				-0.204795837402344,
				744.705932617188,
				6.09712982177734
			]
		},
		{
			"mesh": 0,
			"name": "Proxy.Stone_005"
		},
		{
			"children": [
				4
			],
			"name": "Proxy.Stone_011",
			"rotation": [
				0.066396676003933,
				-0.703982532024384,
				0.703982651233673,
				-0.0663966163992882
			],
			"translation": [
				3.82925415039062,
				1116.64135742188,
				2.13026762008667
			]
		},
		{
			"mesh": 1,
			"name": "Proxy.Stone_011"
		},
		{
			"children": [
				6
			],
			"name": "Proxy.Stone_016",
			"rotation": [
				0.472653239965439,
				-0.52592670917511,
				0.52592670917511,
				-0.472653239965439
			],
			"translation": [
				-1.04422760009766,
				561.352600097656,
				1.69443428516388
			]
		},
		{
			"mesh": 2,
			"name": "Proxy.Stone_016"
		},
		{
			"children": [
				8
			],
			"name": "Proxy.Stone_025",
			"rotation": [
				-0.70710676908493,
				0.0,
				0.0,
				0.70710676908493
			],
			"translation": [
				4.27330350875854,
				371.051696777344,
				-0.803388833999634
			]
		},
		{
			"mesh": 3,
			"name": "Proxy.Stone_025"
		},
		{
			"children": [
				10
			],
			"name": "Proxy.Stone_026",
			"rotation": [
				0.49455451965332,
				-0.505386769771576,
				0.505386829376221,
				-0.49455451965332
			],
			"translation": [
				0.897661089897156,
				933.680725097656,
				0.740101337432861
			]
		},
		{
			"mesh": 4,
			"name": "Proxy.Stone_026"
		}
	],
	"samplers": [
		{
			"magFilter": 9729,
			"minFilter": 9985,
			"wrapS": 10497,
			"wrapT": 10497
		}
	],
	"scene": 0,
	"scenes": [
		{
			"name": "Scene",
			"nodes": [
				0
			]
		}
	],
	"textures": [
		{
			"extensions": {
				"KHR_texture_basisu": {
					"source": 0
				}
			},
			"sampler": 0
		},
		{
			"extensions": {
				"KHR_texture_basisu": {
					"source": 1
				}
			},
			"sampler": 0
		},
		{
			"extensions": {
				"KHR_texture_basisu": {
					"source": 2
				}
			},
			"sampler": 0
		},
		{
			"extensions": {
				"KHR_texture_basisu": {
					"source": 3
				}
			},
			"sampler": 0
		},
		{
			"extensions": {
				"KHR_texture_basisu": {
					"source": 4
				}
			},
			"sampler": 0
		},
		{
			"extensions": {
				"KHR_texture_basisu": {
					"source": 5
				}
			},
			"sampler": 0
		},
		{
			"extensions": {
				"KHR_texture_basisu": {
					"source": 6
				}
			},
			"sampler": 0
		},
		{
			"extensions": {
				"KHR_texture_basisu": {
					"source": 7
				}
			},
			"sampler": 0
		},
		{
			"extensions": {
				"KHR_texture_basisu": {
					"source": 8
				}
			},
			"sampler": 0
		},
		{
			"extensions": {
				"KHR_texture_basisu": {
					"source": 9
				}
			},
			"sampler": 0
		},
		{
			"extensions": {
				"KHR_texture_basisu": {
					"source": 10
				}
			},
			"sampler": 0
		},
		{
			"extensions": {
				"KHR_texture_basisu": {
					"source": 11
				}
			},
			"sampler": 0
		},
		{
			"extensions": {
				"KHR_texture_basisu": {
					"source": 12
				}
			},
			"sampler": 0
		},
		{
			"extensions": {
				"KHR_texture_basisu": {
					"source": 13
				}
			},
			"sampler": 0
		},
		{
			"extensions": {
				"KHR_texture_basisu": {
					"source": 14
				}
			},
			"sampler": 0
		}
	]
}