{
	"accessors": [
		{
			"bufferView": 0,
			"byteOffset": 0,
			"componentType": 5125,
			"count": 1764,
			"type": "SCALAR"
		},
		{
			"bufferView": 1,
			"byteOffset": 0,
			"componentType": 5126,
			"count": 327,
			"max": [
				84.0523071289062,
				81.9876098632812,
				60.9326171875
			],
			"min": [
				-88.3259887695312,
				-87.4367294311523,
				-59.5751800537109
			],
			"type": "VEC3"
		},
		{
			"bufferView": 2,
			"byteOffset": 0,
			"componentType": 5126,
			"count": 327,
			"type": "VEC3"
		},
		{
			"bufferView": 3,
			"byteOffset": 0,
			"componentType": 5126,
			"count": 327,
			"type": "VEC2"
		},
		{
			"bufferView": 4,
			"byteOffset": 0,
			"componentType": 5125,
			"count": 2304,
			"type": "SCALAR"
		},
		{
			"bufferView": 5,
			"byteOffset": 0,
			"componentType": 5126,
			"count": 418,
			"max": [
				133.627182006836,
				122.93628692627,
				76.41552734375
			],
			"min": [
				-148.690673828125,
				-121.616744995117,
				-80.2701721191406
			],
			"type": "VEC3"
		},
		{
			"bufferView": 6,
			"byteOffset": 0,
			"componentType": 5126,
			"count": 418,
			"type": "VEC3"
		},
		{
			"bufferView": 7,
			"byteOffset": 0,
			"componentType": 5126,
			"count": 418,
			"type": "VEC2"
		},
		{
			"bufferView": 8,
			"byteOffset": 0,
			"componentType": 5125,
			"count": 2304,
			"type": "SCALAR"
		},
		{
			"bufferView": 9,
			"byteOffset": 0,
			"componentType": 5126,
			"count": 418,
			"max": [
				95.2206420898438,
				131.213287353516,
				62.9036560058594
			],
			"min": [
				-95.9218444824219,
				-117.674598693848,
				-77.3262023925781
			],
			"type": "VEC3"
		},
		{
			"bufferView": 10,
			"byteOffset": 0,
			"componentType": 5126,
			"count": 418,
			"type": "VEC3"
		},
		{
			"bufferView": 11,
			"byteOffset": 0,
			"componentType": 5126,
			"count": 418,
			"type": "VEC2"
		},
		{
			"bufferView": 12,
			"byteOffset": 0,
			"componentType": 5125,
			"count": 2304,
			"type": "SCALAR"
		},
		{
			"bufferView": 13,
			"byteOffset": 0,
			"componentType": 5126,
			"count": 418,
			"max": [
				85.4908142089844,
				132.091003417969,
				83.4274749755859
			],
			"min": [
				-89.2451782226562,
				-122.866928100586,
				-84.7003173828125
			],
			"type": "VEC3"
		},
		{
			"bufferView": 14,
			"byteOffset": 0,
			"componentType": 5126,
			"count": 418,
			"type": "VEC3"
		},
		{
			"bufferView": 15,
			"byteOffset": 0,
			"componentType": 5126,
			"count": 418,
			"type": "VEC2"
		},
		{
			"bufferView": 16,
			"byteOffset": 0,
			"componentType": 5125,
			"count": 2304,
			"type": "SCALAR"
		},
		{
			"bufferView": 17,
			"byteOffset": 0,
			"componentType": 5126,
			"count": 504,
			"max": [
				111.174377441406,
				130.028228759766,
				99.4938049316406
			],
			"min": [
				-114.514831542969,
				-131.024353027344,
				-99.4695434570312
			],
			"type": "VEC3"
		},
		{
			"bufferView": 18,
			"byteOffset": 0,
			"componentType": 5126,
			"count": 504,
			"type": "VEC3"
		},
		{
			"bufferView": 19,
			"byteOffset": 0,
			"componentType": 5126,
			"count": 504,
			"type": "VEC2"
		}
	],
	"asset": {
		"extras": {
			"created": "Mon Dec 25 15:10:45 2023"
		},
		"generator": "Gestaltor 2023.1.0 Titan Professional",
		"version": "2.0"
	},
	"bufferViews": [
		{
			"buffer": 0,
			"byteLength": 7056,
			"byteOffset": 0,
			"target": 34963
		},
		{
			"buffer": 0,
			"byteLength": 3924,
			"byteOffset": 7056,
			"target": 34962
		},
		{
			"buffer": 0,
			"byteLength": 3924,
			"byteOffset": 10980,
			"target": 34962
		},
		{
			"buffer": 0,
			"byteLength": 2616,
			"byteOffset": 14904,
			"target": 34962
		},
		{
			"buffer": 0,
			"byteLength": 9216,
			"byteOffset": 17520,
			"target": 34963
		},
		{
			"buffer": 0,
			"byteLength": 5016,
			"byteOffset": 26736,
			"target": 34962
		},
		{
			"buffer": 0,
			"byteLength": 5016,
			"byteOffset": 31752,
			"target": 34962
		},
		{
			"buffer": 0,
			"byteLength": 3344,
			"byteOffset": 36768,
			"target": 34962
		},
		{
			"buffer": 0,
			"byteLength": 9216,
			"byteOffset": 40112,
			"target": 34963
		},
		{
			"buffer": 0,
			"byteLength": 5016,
			"byteOffset": 49328,
			"target": 34962
		},
		{
			"buffer": 0,
			"byteLength": 5016,
			"byteOffset": 54344,
			"target": 34962
		},
		{
			"buffer": 0,
			"byteLength": 3344,
			"byteOffset": 59360,
			"target": 34962
		},
		{
			"buffer": 0,
			"byteLength": 9216,
			"byteOffset": 62704,
			"target": 34963
		},
		{
			"buffer": 0,
			"byteLength": 5016,
			"byteOffset": 71920,
			"target": 34962
		},
		{
			"buffer": 0,
			"byteLength": 5016,
			"byteOffset": 76936,
			"target": 34962
		},
		{
			"buffer": 0,
			"byteLength": 3344,
			"byteOffset": 81952,
			"target": 34962
		},
		{
			"buffer": 0,
			"byteLength": 9216,
			"byteOffset": 85296,
			"target": 34963
		},
		{
			"buffer": 0,
			"byteLength": 6048,
			"byteOffset": 94512,
			"target": 34962
		},
		{
			"buffer": 0,
			"byteLength": 6048,
			"byteOffset": 100560,
			"target": 34962
		},
		{
			"buffer": 0,
			"byteLength": 4032,
			"byteOffset": 106608,
			"target": 34962
		}
	],
	"buffers": [
		{
			"byteLength": 110640,
			"uri": "rocks_2_opt.bin"
		}
	],
	"extensionsRequired": [
		"KHR_texture_basisu"
	],
	"extensionsUsed": [
		"KHR_texture_basisu"
	],
	"images": [
		{
			"mimeType": "image/ktx2",
			"uri": "image_1.ktx2"
		},
		{
			"mimeType": "image/ktx2",
			"uri": "image_2.ktx2"
		},
		{
			"mimeType": "image/ktx2",
			"uri": "image_3.ktx2"
		},
		{
			"mimeType": "image/ktx2",
			"uri": "image_4.ktx2"
		},
		{
			"mimeType": "image/ktx2",
			"uri": "image_5.ktx2"
		},
		{
			"mimeType": "image/ktx2",
			"uri": "image_6.ktx2"
		},
		{
			"mimeType": "image/ktx2",
			"uri": "image_7.ktx2"
		},
		{
			"mimeType": "image/ktx2",
			"uri": "image_8.ktx2"
		},
		{
			"mimeType": "image/ktx2",
			"uri": "image_9.ktx2"
		},
		{
			"mimeType": "image/ktx2",
			"uri": "image_10.ktx2"
		},
		{
			"mimeType": "image/ktx2",
			"uri": "image_11.ktx2"
		},
		{
			"mimeType": "image/ktx2",
			"uri": "image_12.ktx2"
		},
		{
			"mimeType": "image/ktx2",
			"uri": "image_13.ktx2"
		},
		{
			"mimeType": "image/ktx2",
			"uri": "image_14.ktx2"
		},
		{
			"mimeType": "image/ktx2",
			"uri": "image_15.ktx2"
		}
	],
	"materials": [
		{
			"alphaMode": "OPAQUE",
			"name": "col2_gray",
			"normalTexture": {
				"index": 2
			},
			"occlusionTexture": {
				"index": 1
			},
			"pbrMetallicRoughness": {
				"baseColorTexture": {
					"index": 0
				},
				"metallicRoughnessTexture": {
					"index": 1
				}
			}
		},
		{
			"alphaMode": "OPAQUE",
			"name": "col2_lightgray",
			"normalTexture": {
				"index": 5
			},
			"occlusionTexture": {
				"index": 4
			},
			"pbrMetallicRoughness": {
				"baseColorTexture": {
					"index": 3
				},
				"metallicRoughnessTexture": {
					"index": 4
				}
			}
		},
		{
			"alphaMode": "OPAQUE",
			"name": "col2_orange",
			"normalTexture": {
				"index": 8
			},
			"occlusionTexture": {
				"index": 7
			},
			"pbrMetallicRoughness": {
				"baseColorTexture": {
					"index": 6
				},
				"metallicRoughnessTexture": {
					"index": 7
				}
			}
		},
		{
			"alphaMode": "OPAQUE",
			"name": "col2_sand",
			"normalTexture": {
				"index": 11
			},
			"occlusionTexture": {
				"index": 10
			},
			"pbrMetallicRoughness": {
				"baseColorTexture": {
					"index": 9
				},
				"metallicRoughnessTexture": {
					"index": 10
				}
			}
		},
		{
			"alphaMode": "OPAQUE",
			"name": "col2_white",
			"normalTexture": {
				"index": 14
			},
			"occlusionTexture": {
				"index": 13
			},
			"pbrMetallicRoughness": {
				"baseColorTexture": {
					"index": 12
				},
				"metallicRoughnessTexture": {
					"index": 13
				}
			}
		}
	],
	"meshes": [
		{
			"name": "Proxy.Stone_004",
			"primitives": [
				{
					"attributes": {
						"NORMAL": 2,
						"POSITION": 1,
						"TEXCOORD_0": 3
					},
					"indices": 0,
					"material": 1,
					"mode": 4
				}
			]
		},
		{
			"name": "Proxy.Stone_009",
			"primitives": [
				{
					"attributes": {
						"NORMAL": 6,
						"POSITION": 5,
						"TEXCOORD_0": 7
					},
					"indices": 4,
					"material": 4,
					"mode": 4
				}
			]
		},
		{
			"name": "Proxy.Stone_012",
			"primitives": [
				{
					"attributes": {
						"NORMAL": 10,
						"POSITION": 9,
						"TEXCOORD_0": 11
					},
					"indices": 8,
					"material": 2,
					"mode": 4
				}
			]
		},
		{
			"name": "Proxy.Stone_017",
			"primitives": [
				{
					"attributes": {
						"NORMAL": 14,
						"POSITION": 13,
						"TEXCOORD_0": 15
					},
					"indices": 12,
					"material": 0,
					"mode": 4
				}
			]
		},
		{
			"name": "Proxy.Stone_024",
			"primitives": [
				{
					"attributes": {
						"NORMAL": 18,
						"POSITION": 17,
						"TEXCOORD_0": 19
					},
					"indices": 16,
					"material": 3,
					"mode": 4
				}
			]
		}
	],
	"nodes": [
		{
			"children": [
				1,
				3,
				5,
				7,
				9
			],
			"name": "RootNode"
		},
		{
			"children": [
				2
			],
			"name": "Proxy.Stone_004",
			"rotation": [
				-0.70710676908493,
				0.0,
				0.0,
				0.70710676908493
			],
			"translation": [
				765.949951171875,
				636.09423828125,
				-502.305206298828
			]
		},
		{
			"mesh": 0,
			"name": "Proxy.Stone_004"
		},
		{
			"children": [
				4
			],
			"name": "Proxy.Stone_009",
			"rotation": [
				-0.489715427160263,
				-0.510077238082886,
				0.510077238082886,
				0.48971551656723
			],
			"translation": [
				753.096801757812,
				815.941650390625,
				-498.920867919922
			]
		},
		{
			"mesh": 1,
			"name": "Proxy.Stone_009"
		},
		{
			"children": [
				6
			],
			"name": "Proxy.Stone_012",
			"rotation": [
				-0.683174908161163,
				-0.18240624666214,
				0.18240624666214,
				0.683174908161163
			],
			"translation": [
				771.26953125,
				1004.30834960938,
				-492.811279296875
			]
		},
		{
			"mesh": 2,
			"name": "Proxy.Stone_012"
		},
		{
			"children": [
				8
			],
			"name": "Proxy.Stone_017",
			"rotation": [
				-0.70710676908493,
				0.0,
				0.0,
				0.70710676908493
			],
			"translation": [
				754.88427734375,
				535.898376464844,
				-494.968597412109
			]
		},
		{
			"mesh": 3,
			"name": "Proxy.Stone_017"
		},
		{
			"children": [
				10
			],
			"name": "Proxy.Stone_024",
			"rotation": [
				-0.70710676908493,
				0.0,
				0.0,
				0.70710676908493
			],
			"translation": [
				754.677368164062,
				388.681304931641,
				-500.078674316406
			]
		},
		{
			"mesh": 4,
			"name": "Proxy.Stone_024"
		}
	],
	"samplers": [
		{
			"magFilter": 9729,
			"minFilter": 9985,
			"wrapS": 10497,
			"wrapT": 10497
		}
	],
	"scene": 0,
	"scenes": [
		{
			"name": "Scene",
			"nodes": [
				0
			]
		}
	],
	"textures": [
		{
			"extensions": {
				"KHR_texture_basisu": {
					"source": 0
				}
			},
			"sampler": 0
		},
		{
			"extensions": {
				"KHR_texture_basisu": {
					"source": 1
				}
			},
			"sampler": 0
		},
		{
			"extensions": {
				"KHR_texture_basisu": {
					"source": 2
				}
			},
			"sampler": 0
		},
		{
			"extensions": {
				"KHR_texture_basisu": {
					"source": 3
				}
			},
			"sampler": 0
		},
		{
			"extensions": {
				"KHR_texture_basisu": {
					"source": 4
				}
			},
			"sampler": 0
		},
		{
			"extensions": {
				"KHR_texture_basisu": {
					"source": 5
				}
			},
			"sampler": 0
		},
		{
			"extensions": {
				"KHR_texture_basisu": {
					"source": 6
				}
			},
			"sampler": 0
		},
		{
			"extensions": {
				"KHR_texture_basisu": {
					"source": 7
				}
			},
			"sampler": 0
		},
		{
			"extensions": {
				"KHR_texture_basisu": {
					"source": 8
				}
			},
			"sampler": 0
		},
		{
			"extensions": {
				"KHR_texture_basisu": {
					"source": 9
				}
			},
			"sampler": 0
		},
		{
			"extensions": {
				"KHR_texture_basisu": {
					"source": 10
				}
			},
			"sampler": 0
		},
		{
			"extensions": {
				"KHR_texture_basisu": {
					"source": 11
				}
			},
			"sampler": 0
		},
		{
			"extensions": {
				"KHR_texture_basisu": {
					"source": 12
				}
			},
			"sampler": 0
		},
		{
			"extensions": {
				"KHR_texture_basisu": {
					"source": 13
				}
			},
			"sampler": 0
		},
		{
			"extensions": {
				"KHR_texture_basisu": {
					"source": 14
				}
			},
			"sampler": 0
		}
	]
}