{
	"accessors": [
		{
			"bufferView": 0,
			"byteOffset": 0,
			"componentType": 5126,
			"count": 90,
			"max": [
				20.94110107421875,
				20.41607093811035,
				-0.16101472079753876
			],
			"min": [
				-20.94110107421875,
				-20.416057586669922,
				-676.0732421875
			],
			"type": "VEC3"
		},
		{
			"bufferView": 1,
			"byteOffset": 0,
			"componentType": 5126,
			"count": 90,
			"type": "VEC3"
		},
		{
			"bufferView": 2,
			"byteOffset": 0,
			"componentType": 5126,
			"count": 90,
			"type": "VEC2"
		},
		{
			"bufferView": 3,
			"byteOffset": 0,
			"componentType": 5125,
			"count": 420,
			"type": "SCALAR"
		},
		{
			"bufferView": 4,
			"byteOffset": 0,
			"componentType": 5126,
			"count": 265,
			"max": [
				1.6861622333526611,
				1.6861567497253418,
				4.932847499847412
			],
			"min": [
				-1.6861610412597656,
				-1.6861567497253418,
				-0.5542623996734619
			],
			"type": "VEC3"
		},
		{
			"bufferView": 5,
			"byteOffset": 0,
			"componentType": 5126,
			"count": 265,
			"type": "VEC3"
		},
		{
			"bufferView": 6,
			"byteOffset": 0,
			"componentType": 5126,
			"count": 265,
			"type": "VEC2"
		},
		{
			"bufferView": 7,
			"byteOffset": 0,
			"componentType": 5125,
			"count": 1548,
			"type": "SCALAR"
		},
		{
			"bufferView": 8,
			"byteOffset": 0,
			"componentType": 5126,
			"count": 3446,
			"max": [
				3.412078857421875,
				1.6761932373046875,
				746.4542846679688
			],
			"min": [
				-129.0362548828125,
				-134.40904235839844,
				621.7274169921875
			],
			"type": "VEC3"
		},
		{
			"bufferView": 9,
			"byteOffset": 0,
			"componentType": 5126,
			"count": 3446,
			"type": "VEC3"
		},
		{
			"bufferView": 10,
			"byteOffset": 0,
			"componentType": 5126,
			"count": 3446,
			"type": "VEC2"
		},
		{
			"bufferView": 11,
			"byteOffset": 0,
			"componentType": 5125,
			"count": 20076,
			"type": "SCALAR"
		},
		{
			"bufferView": 12,
			"byteOffset": 0,
			"componentType": 5126,
			"count": 5,
			"max": [
				2.0
			],
			"min": [
				0.0
			],
			"normalized": false,
			"type": "SCALAR"
		},
		{
			"bufferView": 13,
			"byteOffset": 0,
			"componentType": 5126,
			"count": 5,
			"max": [
				0.7071067690849304,
				0.7071067690849304,
				0.7071067690849304,
				0.7071067690849304
			],
			"min": [
				-0.7071067690849304,
				-6.181723932741079e-08,
				-6.181723932741079e-08,
				-0.7071067690849304
			],
			"normalized": false,
			"type": "VEC4"
		}
	],
	"animations": [
		{
			"channels": [
				{
					"sampler": 0,
					"target": {
						"node": 5,
						"path": "rotation"
					}
				}
			],
			"samplers": [
				{
					"input": 12,
					"interpolation": "LINEAR",
					"output": 13
				}
			]
		}
	],
	"asset": {
		"extras": {
			"created": "Mon Dec 25 15:13:02 2023"
		},
		"generator": "Gestaltor 2023.1.0 Titan Professional",
		"version": "2.0"
	},
	"bufferViews": [
		{
			"buffer": 0,
			"byteLength": 1080,
			"byteOffset": 0,
			"byteStride": 12,
			"target": 34962
		},
		{
			"buffer": 0,
			"byteLength": 1080,
			"byteOffset": 1080,
			"byteStride": 12,
			"target": 34962
		},
		{
			"buffer": 0,
			"byteLength": 720,
			"byteOffset": 2160,
			"byteStride": 8,
			"target": 34962
		},
		{
			"buffer": 0,
			"byteLength": 1680,
			"byteOffset": 2880,
			"target": 34963
		},
		{
			"buffer": 0,
			"byteLength": 3180,
			"byteOffset": 4560,
			"byteStride": 12,
			"target": 34962
		},
		{
			"buffer": 0,
			"byteLength": 3180,
			"byteOffset": 7740,
			"byteStride": 12,
			"target": 34962
		},
		{
			"buffer": 0,
			"byteLength": 2120,
			"byteOffset": 10920,
			"byteStride": 8,
			"target": 34962
		},
		{
			"buffer": 0,
			"byteLength": 6192,
			"byteOffset": 13040,
			"target": 34963
		},
		{
			"buffer": 0,
			"byteLength": 41352,
			"byteOffset": 19232,
			"byteStride": 12,
			"target": 34962
		},
		{
			"buffer": 0,
			"byteLength": 41352,
			"byteOffset": 60584,
			"byteStride": 12,
			"target": 34962
		},
		{
			"buffer": 0,
			"byteLength": 27568,
			"byteOffset": 101936,
			"byteStride": 8,
			"target": 34962
		},
		{
			"buffer": 0,
			"byteLength": 80304,
			"byteOffset": 129504,
			"target": 34963
		},
		{
			"buffer": 0,
			"byteLength": 20,
			"byteOffset": 209808
		},
		{
			"buffer": 0,
			"byteLength": 80,
			"byteOffset": 209828
		}
	],
	"buffers": [
		{
			"byteLength": 209908,
			"uri": "windmashine_2_opt.bin"
		}
	],
	"extensions": {
		"KHR_materials_variants": {
			"variants": [
				{
					"name": "wm2_pink"
				},
				{
					"name": "wm2_orange"
				},
				{
					"name": "wm2_blue"
				},
				{
					"name": "wm2_sand"
				}
			]
		}
	},
	"extensionsRequired": [
		"KHR_texture_basisu"
	],
	"extensionsUsed": [
		"KHR_materials_variants",
		"KHR_texture_basisu"
	],
	"images": [
		{
			"mimeType": "image/ktx2",
			"name": "adskMatwm_pillar1basecolortexture.png",
			"uri": "adskMatwm_pillar1basecolortexture.png.ktx2"
		},
		{
			"mimeType": "image/ktx2",
			"name": "adskMatwm_pillar1metallicroughnesstex.png",
			"uri": "adskMatwm_pillar1metallicroughnesstex.png.ktx2"
		},
		{
			"mimeType": "image/ktx2",
			"name": "wm_bladesbasecolortexture.png",
			"uri": "wm_bladesbasecolortexture.png.ktx2"
		},
		{
			"mimeType": "image/ktx2",
			"name": "stolb_03---Default_BaseColor3",
			"uri": "stolb_03---Default_BaseColor3.ktx2"
		},
		{
			"mimeType": "image/ktx2",
			"name": "stolb_03---Default_BaseColor4",
			"uri": "stolb_03---Default_BaseColor4.ktx2"
		},
		{
			"mimeType": "image/ktx2",
			"name": "stolb_03---Default_BaseColor6",
			"uri": "stolb_03---Default_BaseColor6.ktx2"
		},
		{
			"mimeType": "image/ktx2",
			"name": "wc1",
			"uri": "wc1.ktx2"
		},
		{
			"mimeType": "image/ktx2",
			"name": "wc3",
			"uri": "wc3.ktx2"
		},
		{
			"mimeType": "image/ktx2",
			"name": "wc4",
			"uri": "wc4.ktx2"
		}
	],
	"materials": [
		{
			"doubleSided": true,
			"name": "pillar_pink",
			"pbrMetallicRoughness": {
				"baseColorTexture": {
					"index": 0
				},
				"metallicRoughnessTexture": {
					"index": 1
				}
			}
		},
		{
			"name": "wm_blades_pink",
			"pbrMetallicRoughness": {
				"baseColorTexture": {
					"index": 2
				},
				"metallicFactor": 0.18000000715255737,
				"roughnessFactor": 0.36000001430511475
			}
		},
		{
			"doubleSided": true,
			"name": "pillar_orange",
			"pbrMetallicRoughness": {
				"baseColorTexture": {
					"index": 3
				},
				"metallicRoughnessTexture": {
					"index": 1
				}
			}
		},
		{
			"doubleSided": true,
			"name": "pillar_blue",
			"pbrMetallicRoughness": {
				"baseColorTexture": {
					"index": 4
				},
				"metallicRoughnessTexture": {
					"index": 1
				}
			}
		},
		{
			"doubleSided": true,
			"name": "pillar_sand",
			"pbrMetallicRoughness": {
				"baseColorTexture": {
					"index": 5
				},
				"metallicRoughnessTexture": {
					"index": 1
				}
			}
		},
		{
			"name": "wm_blades_orange",
			"pbrMetallicRoughness": {
				"baseColorTexture": {
					"index": 6
				},
				"metallicFactor": 0.18000000715255737,
				"roughnessFactor": 0.36000001430511475
			}
		},
		{
			"name": "wm_blades_blue",
			"pbrMetallicRoughness": {
				"baseColorTexture": {
					"index": 7
				},
				"metallicFactor": 0.18000000715255737,
				"roughnessFactor": 0.36000001430511475
			}
		},
		{
			"name": "wm_blades_sand",
			"pbrMetallicRoughness": {
				"baseColorTexture": {
					"index": 8
				},
				"metallicFactor": 0.18000000715255737,
				"roughnessFactor": 0.36000001430511475
			}
		}
	],
	"meshes": [
		{
			"name": "wm_pillar1",
			"primitives": [
				{
					"attributes": {
						"NORMAL": 1,
						"POSITION": 0,
						"TEXCOORD_0": 2
					},
					"extensions": {
						"KHR_materials_variants": {
							"mappings": [
								{
									"material": 0,
									"variants": [
										0
									]
								},
								{
									"material": 2,
									"variants": [
										1
									]
								},
								{
									"material": 3,
									"variants": [
										2
									]
								},
								{
									"material": 4,
									"variants": [
										3
									]
								}
							]
						}
					},
					"indices": 3,
					"material": 0,
					"mode": 4
				}
			]
		},
		{
			"name": "wm_blades_axis",
			"primitives": [
				{
					"attributes": {
						"NORMAL": 5,
						"POSITION": 4,
						"TEXCOORD_0": 6
					},
					"extensions": {
						"KHR_materials_variants": {
							"mappings": [
								{
									"material": 1,
									"variants": [
										0
									]
								},
								{
									"material": 5,
									"variants": [
										1
									]
								},
								{
									"material": 6,
									"variants": [
										2
									]
								},
								{
									"material": 7,
									"variants": [
										3
									]
								}
							]
						}
					},
					"indices": 7,
					"material": 1,
					"mode": 4
				}
			]
		},
		{
			"name": "Box001",
			"primitives": [
				{
					"attributes": {
						"NORMAL": 9,
						"POSITION": 8,
						"TEXCOORD_0": 10
					},
					"extensions": {
						"KHR_materials_variants": {
							"mappings": [
								{
									"material": 1,
									"variants": [
										0
									]
								},
								{
									"material": 5,
									"variants": [
										1
									]
								},
								{
									"material": 6,
									"variants": [
										2
									]
								},
								{
									"material": 7,
									"variants": [
										3
									]
								}
							]
						}
					},
					"indices": 11,
					"material": 1,
					"mode": 4
				}
			]
		}
	],
	"nodes": [
		{
			"matrix": [
				0.01,
				0.0,
				0.0,
				0.0,
				0.0,
				0.01,
				0.0,
				0.0,
				0.0,
				0.0,
				0.01,
				0.0,
				0.0,
				0.0,
				0.0,
				1.0
			],
			"mesh": 0,
			"name": "wm_pillar1"
		},
		{
			"children": [
				0
			],
			"matrix": [
				1.0,
				0.0,
				0.0,
				0.0,
				0.0,
				2.220446049250313e-16,
				-1.0,
				0.0,
				0.0,
				1.0,
				2.220446049250313e-16,
				0.0,
				0.0,
				6.75965087890625,
				0.0,
				1.0
			],
			"name": "Unnamed Node 1"
		},
		{
			"matrix": [
				0.01,
				0.0,
				0.0,
				0.0,
				0.0,
				0.01,
				0.0,
				0.0,
				0.0,
				0.0,
				0.01,
				0.0,
				0.0,
				0.0,
				0.0,
				1.0
			],
			"mesh": 1,
			"name": "wm_blades_axis"
		},
		{
			"children": [
				2
			],
			"matrix": [
				3.5491111278533927,
				0.0,
				0.0,
				0.0,
				0.0,
				7.880609782192389e-16,
				-3.5491111278533927,
				0.0,
				0.0,
				3.5491111278533927,
				7.880609782192389e-16,
				0.0,
				0.0,
				6.731251831054688,
				0.0,
				1.0
			],
			"name": "Unnamed Node 3"
		},
		{
			"matrix": [
				-0.0050956212522331205,
				-0.008604338676144137,
				5.128585520255034e-10,
				0.0,
				0.008604338676144139,
				-0.005095621252233069,
				8.997687324996323e-10,
				0.0,
				-5.12858196754114e-10,
				8.997689350004308e-10,
				0.009999999999999946,
				0.0,
				0.0,
				0.0,
				0.0,
				1.0
			],
			"mesh": 2,
			"name": "blade1"
		},
		{
			"children": [
				4,
				10,
				11
			],
			"name": "fan",
			"rotation": [
				-0.7071067811865475,
				0.0,
				0.0,
				0.7071067811865476
			],
			"scale": [
				1.0,
				1.0,
				1.0
			],
			"translation": [
				0.0,
				0.0,
				0.0
			]
		},
		{
			"matrix": [
				0.01,
				0.0,
				0.0,
				0.0,
				0.0,
				0.01,
				0.0,
				0.0,
				0.0,
				0.0,
				0.01,
				0.0,
				0.0,
				0.0,
				0.0,
				1.0
			],
			"mesh": 2,
			"name": "Box001"
		},
		{
			"children": [
				6
			],
			"matrix": [
				-0.5000000596046446,
				-2.7755576069186946e-16,
				-0.8660253882408141,
				0.0,
				-0.8660253882408145,
				1.1102230427674782e-16,
				0.5000000596046449,
				0.0,
				5.551115123125784e-17,
				1.0000000000000004,
				-4.440892098500627e-16,
				0.0,
				0.0,
				0.0,
				0.0,
				1.0
			]
		},
		{
			"matrix": [
				0.01,
				0.0,
				0.0,
				0.0,
				0.0,
				0.01,
				0.0,
				0.0,
				0.0,
				0.0,
				0.01,
				0.0,
				0.0,
				0.0,
				0.0,
				1.0
			],
			"mesh": 2,
			"name": "Box001"
		},
		{
			"children": [
				8
			],
			"matrix": [
				-0.4999999105930328,
				2.775557543395436e-16,
				0.8660254478454591,
				0.0,
				0.8660254478454591,
				0.0,
				0.49999991059303284,
				0.0,
				1.1102230246251564e-16,
				0.9999999999999999,
				-2.2204460492503128e-16,
				0.0,
				0.0,
				0.0,
				0.0,
				1.0
			]
		},
		{
			"mesh": 2,
			"name": "blade2",
			"rotation": [
				0.0,
				0.0,
				0.0,
				1.0
			],
			"scale": [
				0.01,
				0.01,
				0.01
			],
			"translation": [
				0.0,
				0.0,
				0.0
			]
		},
		{
			"mesh": 2,
			"name": "blade3",
			"rotation": [
				-3.078013962690736e-15,
				5.159776951032076e-08,
				0.865667043402155,
				0.5006201853375161
			],
			"scale": [
				0.01,
				0.01,
				0.01
			],
			"translation": [
				0.0,
				0.0,
				0.0
			]
		}
	],
	"samplers": [
		{
			"magFilter": 9729,
			"minFilter": 9729,
			"wrapS": 10497,
			"wrapT": 10497
		},
		{
			"magFilter": 9729,
			"minFilter": 9729,
			"wrapS": 10497,
			"wrapT": 10497
		},
		{
			"magFilter": 9729,
			"minFilter": 9729,
			"wrapS": 10497,
			"wrapT": 10497
		},
		{},
		{},
		{},
		{},
		{},
		{}
	],
	"scenes": [
		{
			"nodes": [
				1,
				3,
				5
			]
		}
	],
	"textures": [
		{
			"extensions": {
				"KHR_texture_basisu": {
					"source": 0
				}
			},
			"name": "texture_source0_sampler0",
			"sampler": 0
		},
		{
			"extensions": {
				"KHR_texture_basisu": {
					"source": 1
				}
			},
			"name": "texture_source1_sampler1",
			"sampler": 1
		},
		{
			"extensions": {
				"KHR_texture_basisu": {
					"source": 2
				}
			},
			"name": "texture_source2_sampler2",
			"sampler": 2
		},
		{
			"extensions": {
				"KHR_texture_basisu": {
					"source": 3
				}
			},
			"name": "stolb_03---Default_BaseColor3",
			"sampler": 3
		},
		{
			"extensions": {
				"KHR_texture_basisu": {
					"source": 4
				}
			},
			"name": "stolb_03---Default_BaseColor4",
			"sampler": 4
		},
		{
			"extensions": {
				"KHR_texture_basisu": {
					"source": 5
				}
			},
			"name": "stolb_03---Default_BaseColor6",
			"sampler": 5
		},
		{
			"extensions": {
				"KHR_texture_basisu": {
					"source": 6
				}
			},
			"name": "wc1",
			"sampler": 6
		},
		{
			"extensions": {
				"KHR_texture_basisu": {
					"source": 7
				}
			},
			"name": "wc3",
			"sampler": 7
		},
		{
			"extensions": {
				"KHR_texture_basisu": {
					"source": 8
				}
			},
			"name": "wc4",
			"sampler": 8
		}
	]
}