{
	"accessors": [
		{
			"bufferView": 0,
			"byteOffset": 0,
			"componentType": 5126,
			"count": 90,
			"max": [
				20.94110107421875,
				20.41607093811035,
				-0.16101472079753876
			],
			"min": [
				-20.94110107421875,
				-20.416057586669922,
				-676.0732421875
			],
			"type": "VEC3"
		},
		{
			"bufferView": 1,
			"byteOffset": 0,
			"componentType": 5126,
			"count": 90,
			"type": "VEC3"
		},
		{
			"bufferView": 2,
			"byteOffset": 0,
			"componentType": 5126,
			"count": 90,
			"type": "VEC2"
		},
		{
			"bufferView": 3,
			"byteOffset": 0,
			"componentType": 5125,
			"count": 420,
			"type": "SCALAR"
		},
		{
			"bufferView": 4,
			"byteOffset": 0,
			"componentType": 5126,
			"count": 525,
			"max": [
				9.776334762573242,
				10.027750968933105,
				31.200000762939453
			],
			"min": [
				-9.776334762573242,
				-10.027750968933105,
				7.184997081756592
			],
			"type": "VEC3"
		},
		{
			"bufferView": 5,
			"byteOffset": 0,
			"componentType": 5126,
			"count": 525,
			"type": "VEC3"
		},
		{
			"bufferView": 6,
			"byteOffset": 0,
			"componentType": 5126,
			"count": 525,
			"type": "VEC2"
		},
		{
			"bufferView": 7,
			"byteOffset": 0,
			"componentType": 5125,
			"count": 2652,
			"type": "SCALAR"
		},
		{
			"bufferView": 8,
			"byteOffset": 0,
			"componentType": 5126,
			"count": 265,
			"max": [
				1.6861622333526611,
				1.6861567497253418,
				4.932847499847412
			],
			"min": [
				-1.6861610412597656,
				-1.6861567497253418,
				-18.548870086669922
			],
			"type": "VEC3"
		},
		{
			"bufferView": 9,
			"byteOffset": 0,
			"componentType": 5126,
			"count": 265,
			"type": "VEC3"
		},
		{
			"bufferView": 10,
			"byteOffset": 0,
			"componentType": 5126,
			"count": 265,
			"type": "VEC2"
		},
		{
			"bufferView": 11,
			"byteOffset": 0,
			"componentType": 5125,
			"count": 1548,
			"type": "SCALAR"
		},
		{
			"bufferView": 12,
			"byteOffset": 0,
			"componentType": 5126,
			"count": 3446,
			"max": [
				160.416259765625,
				59.47917556762695,
				45.64701843261719
			],
			"min": [
				0.847808837890625,
				-65.24769592285156,
				-92.82620239257813
			],
			"type": "VEC3"
		},
		{
			"bufferView": 13,
			"byteOffset": 0,
			"componentType": 5126,
			"count": 3446,
			"type": "VEC3"
		},
		{
			"bufferView": 14,
			"byteOffset": 0,
			"componentType": 5126,
			"count": 3446,
			"type": "VEC2"
		},
		{
			"bufferView": 15,
			"byteOffset": 0,
			"componentType": 5125,
			"count": 20076,
			"type": "SCALAR"
		},
		{
			"bufferView": 16,
			"byteOffset": 0,
			"componentType": 5126,
			"count": 5,
			"max": [
				2.0
			],
			"min": [
				0.0
			],
			"normalized": false,
			"type": "SCALAR"
		},
		{
			"bufferView": 17,
			"byteOffset": 0,
			"componentType": 5126,
			"count": 5,
			"max": [
				0.3535534143447876,
				0.6830126643180847,
				0.6123724579811096,
				0.6830126643180847
			],
			"min": [
				-0.6830126643180847,
				-0.6123724579811096,
				-0.6830126643180847,
				-0.3535534143447876
			],
			"normalized": false,
			"type": "VEC4"
		}
	],
	"animations": [
		{
			"channels": [
				{
					"sampler": 0,
					"target": {
						"node": 7,
						"path": "rotation"
					}
				}
			],
			"samplers": [
				{
					"input": 16,
					"interpolation": "LINEAR",
					"output": 17
				}
			]
		}
	],
	"asset": {
		"extras": {
			"created": "Mon Dec 25 15:13:15 2023"
		},
		"generator": "Gestaltor 2023.1.0 Titan Professional",
		"version": "2.0"
	},
	"bufferViews": [
		{
			"buffer": 0,
			"byteLength": 1080,
			"byteOffset": 0,
			"byteStride": 12,
			"target": 34962
		},
		{
			"buffer": 0,
			"byteLength": 1080,
			"byteOffset": 1080,
			"byteStride": 12,
			"target": 34962
		},
		{
			"buffer": 0,
			"byteLength": 720,
			"byteOffset": 2160,
			"byteStride": 8,
			"target": 34962
		},
		{
			"buffer": 0,
			"byteLength": 1680,
			"byteOffset": 2880,
			"target": 34963
		},
		{
			"buffer": 0,
			"byteLength": 6300,
			"byteOffset": 4560,
			"byteStride": 12,
			"target": 34962
		},
		{
			"buffer": 0,
			"byteLength": 6300,
			"byteOffset": 10860,
			"byteStride": 12,
			"target": 34962
		},
		{
			"buffer": 0,
			"byteLength": 4200,
			"byteOffset": 17160,
			"byteStride": 8,
			"target": 34962
		},
		{
			"buffer": 0,
			"byteLength": 10608,
			"byteOffset": 21360,
			"target": 34963
		},
		{
			"buffer": 0,
			"byteLength": 3180,
			"byteOffset": 31968,
			"byteStride": 12,
			"target": 34962
		},
		{
			"buffer": 0,
			"byteLength": 3180,
			"byteOffset": 35148,
			"byteStride": 12,
			"target": 34962
		},
		{
			"buffer": 0,
			"byteLength": 2120,
			"byteOffset": 38328,
			"byteStride": 8,
			"target": 34962
		},
		{
			"buffer": 0,
			"byteLength": 6192,
			"byteOffset": 40448,
			"target": 34963
		},
		{
			"buffer": 0,
			"byteLength": 41352,
			"byteOffset": 46640,
			"byteStride": 12,
			"target": 34962
		},
		{
			"buffer": 0,
			"byteLength": 41352,
			"byteOffset": 87992,
			"byteStride": 12,
			"target": 34962
		},
		{
			"buffer": 0,
			"byteLength": 27568,
			"byteOffset": 129344,
			"byteStride": 8,
			"target": 34962
		},
		{
			"buffer": 0,
			"byteLength": 80304,
			"byteOffset": 156912,
			"target": 34963
		},
		{
			"buffer": 0,
			"byteLength": 20,
			"byteOffset": 237216
		},
		{
			"buffer": 0,
			"byteLength": 80,
			"byteOffset": 237236
		}
	],
	"buffers": [
		{
			"byteLength": 237316,
			"uri": "windmashine_3_opt.bin"
		}
	],
	"extensions": {
		"KHR_materials_variants": {
			"variants": [
				{
					"name": "wm3_pink"
				},
				{
					"name": "wm3_orange"
				},
				{
					"name": "wm3_blue"
				},
				{
					"name": "wm3_sand"
				}
			]
		}
	},
	"extensionsRequired": [
		"KHR_texture_basisu"
	],
	"extensionsUsed": [
		"KHR_materials_variants",
		"KHR_texture_basisu"
	],
	"images": [
		{
			"mimeType": "image/ktx2",
			"name": "wm_pillar_whitebasecolortexture.png",
			"uri": "wm_pillar_whitebasecolortexture.png.ktx2"
		},
		{
			"mimeType": "image/ktx2",
			"name": "wm_pillar_whitemetallicroughnesstex.png",
			"uri": "wm_pillar_whitemetallicroughnesstex.png.ktx2"
		},
		{
			"mimeType": "image/ktx2",
			"name": "wm_pillar2basecolortexture.png",
			"uri": "wm_pillar2basecolortexture.png.ktx2"
		},
		{
			"mimeType": "image/ktx2",
			"name": "wm_pillar2metallicroughnesstex.png",
			"uri": "wm_pillar2metallicroughnesstex.png.ktx2"
		},
		{
			"mimeType": "image/ktx2",
			"name": "Material__0basecolortexture.png",
			"uri": "Material__0basecolortexture.png.ktx2"
		},
		{
			"mimeType": "image/ktx2",
			"name": "wc1",
			"uri": "wc1.ktx2"
		},
		{
			"mimeType": "image/ktx2",
			"name": "wc3",
			"uri": "wc3.ktx2"
		},
		{
			"mimeType": "image/ktx2",
			"name": "wc4",
			"uri": "wc4.ktx2"
		},
		{
			"mimeType": "image/ktx2",
			"name": "stolb_03---Default_BaseColor3",
			"uri": "stolb_03---Default_BaseColor3.ktx2"
		},
		{
			"mimeType": "image/ktx2",
			"name": "stolb_03---Default_BaseColor4",
			"uri": "stolb_03---Default_BaseColor4.ktx2"
		},
		{
			"mimeType": "image/ktx2",
			"name": "stolb_03---Default_BaseColor6",
			"uri": "stolb_03---Default_BaseColor6.ktx2"
		}
	],
	"materials": [
		{
			"doubleSided": true,
			"name": "wm_pillar_pink",
			"pbrMetallicRoughness": {
				"baseColorTexture": {
					"index": 0
				},
				"metallicRoughnessTexture": {
					"index": 1
				}
			}
		},
		{
			"doubleSided": true,
			"name": "wm_pillar2",
			"pbrMetallicRoughness": {
				"baseColorTexture": {
					"index": 2
				},
				"metallicRoughnessTexture": {
					"index": 3
				}
			}
		},
		{
			"name": "blades_pink",
			"pbrMetallicRoughness": {
				"baseColorTexture": {
					"index": 4
				},
				"metallicFactor": 0.18000000715255737,
				"roughnessFactor": 0.36000001430511475
			}
		},
		{
			"doubleSided": true,
			"name": "wm_pillar_orange",
			"pbrMetallicRoughness": {
				"baseColorTexture": {
					"index": 8
				},
				"metallicRoughnessTexture": {
					"index": 1
				}
			}
		},
		{
			"doubleSided": true,
			"name": "wm_pillar_blue",
			"pbrMetallicRoughness": {
				"baseColorTexture": {
					"index": 9
				},
				"metallicRoughnessTexture": {
					"index": 1
				}
			}
		},
		{
			"doubleSided": true,
			"name": "wm_pillar_sand",
			"pbrMetallicRoughness": {
				"baseColorTexture": {
					"index": 10
				},
				"metallicRoughnessTexture": {
					"index": 1
				}
			}
		},
		{
			"name": "blades_orange",
			"pbrMetallicRoughness": {
				"baseColorTexture": {
					"index": 5
				},
				"metallicFactor": 0.18000000715255737,
				"roughnessFactor": 0.36000001430511475
			}
		},
		{
			"name": "blades_blue",
			"pbrMetallicRoughness": {
				"baseColorTexture": {
					"index": 6
				},
				"metallicFactor": 0.18000000715255737,
				"roughnessFactor": 0.36000001430511475
			}
		},
		{
			"name": "blades_sand",
			"pbrMetallicRoughness": {
				"baseColorTexture": {
					"index": 7
				},
				"metallicFactor": 0.18000000715255737,
				"roughnessFactor": 0.36000001430511475
			}
		}
	],
	"meshes": [
		{
			"name": "wm_pillar1",
			"primitives": [
				{
					"attributes": {
						"NORMAL": 1,
						"POSITION": 0,
						"TEXCOORD_0": 2
					},
					"extensions": {
						"KHR_materials_variants": {
							"mappings": [
								{
									"material": 0,
									"variants": [
										0
									]
								},
								{
									"material": 3,
									"variants": [
										1
									]
								},
								{
									"material": 4,
									"variants": [
										2
									]
								},
								{
									"material": 5,
									"variants": [
										3
									]
								}
							]
						}
					},
					"indices": 3,
					"material": 0,
					"mode": 4
				}
			]
		},
		{
			"name": "ChamferCyl002",
			"primitives": [
				{
					"attributes": {
						"NORMAL": 5,
						"POSITION": 4,
						"TEXCOORD_0": 6
					},
					"indices": 7,
					"material": 1,
					"mode": 4
				}
			]
		},
		{
			"name": "wm_blades_axis",
			"primitives": [
				{
					"attributes": {
						"NORMAL": 9,
						"POSITION": 8,
						"TEXCOORD_0": 10
					},
					"extensions": {
						"KHR_materials_variants": {
							"mappings": [
								{
									"material": 2,
									"variants": [
										0
									]
								},
								{
									"material": 6,
									"variants": [
										1
									]
								},
								{
									"material": 7,
									"variants": [
										2
									]
								},
								{
									"material": 8,
									"variants": [
										3
									]
								}
							]
						}
					},
					"indices": 11,
					"material": 2,
					"mode": 4
				}
			]
		},
		{
			"name": "blade1",
			"primitives": [
				{
					"attributes": {
						"NORMAL": 13,
						"POSITION": 12,
						"TEXCOORD_0": 14
					},
					"extensions": {
						"KHR_materials_variants": {
							"mappings": [
								{
									"material": 2,
									"variants": [
										0
									]
								},
								{
									"material": 6,
									"variants": [
										1
									]
								},
								{
									"material": 7,
									"variants": [
										2
									]
								},
								{
									"material": 8,
									"variants": [
										3
									]
								}
							]
						}
					},
					"indices": 15,
					"material": 2,
					"mode": 4
				}
			]
		}
	],
	"nodes": [
		{
			"matrix": [
				0.01,
				0.0,
				0.0,
				0.0,
				0.0,
				0.01,
				0.0,
				0.0,
				0.0,
				0.0,
				0.01,
				0.0,
				0.0,
				0.0,
				0.0,
				1.0
			],
			"mesh": 0,
			"name": "wm_pillar1"
		},
		{
			"children": [
				0
			],
			"matrix": [
				1.0,
				0.0,
				0.0,
				0.0,
				0.0,
				2.220446049250313e-16,
				-1.0,
				0.0,
				0.0,
				1.0,
				2.220446049250313e-16,
				0.0,
				0.0,
				6.75965087890625,
				0.0,
				1.0
			],
			"name": "Unnamed Node 1"
		},
		{
			"matrix": [
				0.01,
				0.0,
				0.0,
				0.0,
				0.0,
				0.01,
				0.0,
				0.0,
				0.0,
				0.0,
				0.01,
				0.0,
				0.0,
				0.0,
				0.0,
				1.0
			],
			"mesh": 1,
			"name": "ChamferCyl002"
		},
		{
			"children": [
				2
			],
			"matrix": [
				1.0,
				0.0,
				0.0,
				0.0,
				0.0,
				2.220446049250313e-16,
				-1.0,
				0.0,
				0.0,
				1.0,
				2.220446049250313e-16,
				0.0,
				-9.975433349609376e-05,
				6.688809814453125,
				-2.559661865234375e-05,
				1.0
			],
			"name": "Unnamed Node 3"
		},
		{
			"matrix": [
				0.01,
				0.0,
				0.0,
				0.0,
				0.0,
				0.01,
				0.0,
				0.0,
				0.0,
				0.0,
				0.01,
				0.0,
				0.0,
				0.0,
				0.0,
				1.0
			],
			"mesh": 2,
			"name": "wm_blades_axis"
		},
		{
			"children": [
				4
			],
			"matrix": [
				3.549111127853393,
				0.0,
				0.0,
				0.0,
				0.0,
				3.549111127853393,
				5.782235916740318e-07,
				0.0,
				0.0,
				-5.782235916740318e-07,
				3.549111127853393,
				0.0,
				0.0004373741149902344,
				6.843851318359375,
				0.6356219482421875,
				1.0
			],
			"name": "Unnamed Node 5"
		},
		{
			"matrix": [
				-0.004989322099267197,
				-9.20818543662793e-10,
				-0.008666410155869803,
				0.0,
				-2.2369938509913513e-09,
				0.009999999999999747,
				2.2534098720513032e-10,
				0.0,
				0.008666410155869563,
				2.0511004996182977e-09,
				-0.004989322099267278,
				0.0,
				0.0,
				0.0,
				0.0,
				1.0
			],
			"mesh": 3,
			"name": "blade1"
		},
		{
			"children": [
				6,
				8,
				9
			],
			"name": "fan",
			"rotation": [
				0.3535534210463145,
				0.6123724181137223,
				-0.6123724181137222,
				-0.3535534210463145
			],
			"scale": [
				0.9999999934544842,
				0.9999999999999999,
				0.9999999934544842
			],
			"translation": [
				0.0,
				6.843851318359375,
				0.7164373779296875
			]
		},
		{
			"mesh": 3,
			"name": "blade2",
			"rotation": [
				0.0,
				0.0,
				0.0,
				1.0
			],
			"scale": [
				0.01,
				0.01,
				0.01
			],
			"translation": [
				0.0,
				0.0,
				0.0
			]
		},
		{
			"mesh": 3,
			"name": "blade3",
			"rotation": [
				1.1337074647438353e-08,
				0.8660439449219149,
				8.48984812827535e-09,
				-0.49996788443267737
			],
			"scale": [
				0.01,
				0.01,
				0.01
			],
			"translation": [
				0.0,
				0.0,
				0.0
			]
		}
	],
	"samplers": [
		{
			"magFilter": 9729,
			"minFilter": 9729,
			"wrapS": 10497,
			"wrapT": 10497
		},
		{
			"magFilter": 9729,
			"minFilter": 9729,
			"wrapS": 10497,
			"wrapT": 10497
		},
		{
			"magFilter": 9729,
			"minFilter": 9729,
			"wrapS": 10497,
			"wrapT": 10497
		},
		{
			"magFilter": 9729,
			"minFilter": 9729,
			"wrapS": 10497,
			"wrapT": 10497
		},
		{
			"magFilter": 9729,
			"minFilter": 9729,
			"wrapS": 10497,
			"wrapT": 10497
		},
		{},
		{},
		{},
		{},
		{},
		{}
	],
	"scenes": [
		{
			"nodes": [
				1,
				3,
				5,
				7
			]
		}
	],
	"textures": [
		{
			"extensions": {
				"KHR_texture_basisu": {
					"source": 0
				}
			},
			"name": "texture_source0_sampler0",
			"sampler": 0
		},
		{
			"extensions": {
				"KHR_texture_basisu": {
					"source": 1
				}
			},
			"name": "texture_source1_sampler1",
			"sampler": 1
		},
		{
			"extensions": {
				"KHR_texture_basisu": {
					"source": 2
				}
			},
			"name": "texture_source2_sampler2",
			"sampler": 2
		},
		{
			"extensions": {
				"KHR_texture_basisu": {
					"source": 3
				}
			},
			"name": "texture_source3_sampler3",
			"sampler": 3
		},
		{
			"extensions": {
				"KHR_texture_basisu": {
					"source": 4
				}
			},
			"name": "texture_source4_sampler4",
			"sampler": 4
		},
		{
			"extensions": {
				"KHR_texture_basisu": {
					"source": 5
				}
			},
			"name": "wc1",
			"sampler": 5
		},
		{
			"extensions": {
				"KHR_texture_basisu": {
					"source": 6
				}
			},
			"name": "wc3",
			"sampler": 6
		},
		{
			"extensions": {
				"KHR_texture_basisu": {
					"source": 7
				}
			},
			"name": "wc4",
			"sampler": 7
		},
		{
			"extensions": {
				"KHR_texture_basisu": {
					"source": 8
				}
			},
			"name": "stolb_03---Default_BaseColor3",
			"sampler": 8
		},
		{
			"extensions": {
				"KHR_texture_basisu": {
					"source": 9
				}
			},
			"name": "stolb_03---Default_BaseColor4",
			"sampler": 9
		},
		{
			"extensions": {
				"KHR_texture_basisu": {
					"source": 10
				}
			},
			"name": "stolb_03---Default_BaseColor6",
			"sampler": 10
		}
	]
}