{
	"accessors": [
		{
			"bufferView": 0,
			"byteOffset": 0,
			"componentType": 5126,
			"count": 812,
			"max": [
				84.05846405029297,
				30.631738662719727,
				46.27579879760742
			],
			"min": [
				-69.77181243896484,
				-30.631738662719727,
				-14.168960571289063
			],
			"type": "VEC3"
		},
		{
			"bufferView": 1,
			"byteOffset": 0,
			"componentType": 5126,
			"count": 812,
			"type": "VEC3"
		},
		{
			"bufferView": 2,
			"byteOffset": 0,
			"componentType": 5126,
			"count": 812,
			"type": "VEC2"
		},
		{
			"bufferView": 3,
			"byteOffset": 0,
			"componentType": 5125,
			"count": 4320,
			"type": "SCALAR"
		},
		{
			"bufferView": 4,
			"byteOffset": 0,
			"componentType": 5126,
			"count": 606,
			"max": [
				29.478410720825195,
				8.761383056640625,
				394.6446533203125
			],
			"min": [
				-10.633749961853027,
				-6.044678688049316,
				-4.000805854797363
			],
			"type": "VEC3"
		},
		{
			"bufferView": 5,
			"byteOffset": 0,
			"componentType": 5126,
			"count": 606,
			"type": "VEC3"
		},
		{
			"bufferView": 6,
			"byteOffset": 0,
			"componentType": 5126,
			"count": 606,
			"type": "VEC2"
		},
		{
			"bufferView": 7,
			"byteOffset": 0,
			"componentType": 5125,
			"count": 3168,
			"type": "SCALAR"
		},
		{
			"bufferView": 8,
			"byteOffset": 0,
			"componentType": 5126,
			"count": 834,
			"max": [
				15.76516342163086,
				15.763317108154297,
				2.3660898208618164
			],
			"min": [
				-15.765162467956543,
				-15.763318061828613,
				-44.905818939208984
			],
			"type": "VEC3"
		},
		{
			"bufferView": 9,
			"byteOffset": 0,
			"componentType": 5126,
			"count": 834,
			"type": "VEC3"
		},
		{
			"bufferView": 10,
			"byteOffset": 0,
			"componentType": 5126,
			"count": 834,
			"type": "VEC2"
		},
		{
			"bufferView": 11,
			"byteOffset": 0,
			"componentType": 5125,
			"count": 4284,
			"type": "SCALAR"
		},
		{
			"bufferView": 12,
			"byteOffset": 0,
			"componentType": 5126,
			"count": 90,
			"max": [
				20.94110107421875,
				20.41607093811035,
				0.0
			],
			"min": [
				-20.94110107421875,
				-20.416057586669922,
				-676.0732421875
			],
			"type": "VEC3"
		},
		{
			"bufferView": 13,
			"byteOffset": 0,
			"componentType": 5126,
			"count": 90,
			"type": "VEC3"
		},
		{
			"bufferView": 14,
			"byteOffset": 0,
			"componentType": 5126,
			"count": 90,
			"type": "VEC2"
		},
		{
			"bufferView": 15,
			"byteOffset": 0,
			"componentType": 5125,
			"count": 420,
			"type": "SCALAR"
		},
		{
			"bufferView": 16,
			"byteOffset": 0,
			"componentType": 5126,
			"count": 5,
			"max": [
				2.0
			],
			"min": [
				0.0
			],
			"normalized": false,
			"type": "SCALAR"
		},
		{
			"bufferView": 17,
			"byteOffset": 0,
			"componentType": 5126,
			"count": 5,
			"max": [
				0.701068639755249,
				0.560932993888855,
				0.43052783608436584,
				0.701068639755249
			],
			"min": [
				-0.430527925491333,
				-0.701068639755249,
				-0.701068639755249,
				-0.560932993888855
			],
			"normalized": false,
			"type": "VEC4"
		}
	],
	"animations": [
		{
			"channels": [
				{
					"sampler": 0,
					"target": {
						"node": 3,
						"path": "rotation"
					}
				}
			],
			"samplers": [
				{
					"input": 16,
					"interpolation": "LINEAR",
					"output": 17
				}
			]
		}
	],
	"asset": {
		"extras": {
			"created": "Mon Dec 25 15:12:51 2023"
		},
		"generator": "Gestaltor 2023.1.0 Titan Professional",
		"version": "2.0"
	},
	"bufferViews": [
		{
			"buffer": 0,
			"byteLength": 9744,
			"byteOffset": 0,
			"byteStride": 12,
			"target": 34962
		},
		{
			"buffer": 0,
			"byteLength": 9744,
			"byteOffset": 9744,
			"byteStride": 12,
			"target": 34962
		},
		{
			"buffer": 0,
			"byteLength": 6496,
			"byteOffset": 19488,
			"byteStride": 8,
			"target": 34962
		},
		{
			"buffer": 0,
			"byteLength": 17280,
			"byteOffset": 25984,
			"target": 34963
		},
		{
			"buffer": 0,
			"byteLength": 7272,
			"byteOffset": 43264,
			"byteStride": 12,
			"target": 34962
		},
		{
			"buffer": 0,
			"byteLength": 7272,
			"byteOffset": 50536,
			"byteStride": 12,
			"target": 34962
		},
		{
			"buffer": 0,
			"byteLength": 4848,
			"byteOffset": 57808,
			"byteStride": 8,
			"target": 34962
		},
		{
			"buffer": 0,
			"byteLength": 12672,
			"byteOffset": 62656,
			"target": 34963
		},
		{
			"buffer": 0,
			"byteLength": 10008,
			"byteOffset": 75328,
			"byteStride": 12,
			"target": 34962
		},
		{
			"buffer": 0,
			"byteLength": 10008,
			"byteOffset": 85336,
			"byteStride": 12,
			"target": 34962
		},
		{
			"buffer": 0,
			"byteLength": 6672,
			"byteOffset": 95344,
			"byteStride": 8,
			"target": 34962
		},
		{
			"buffer": 0,
			"byteLength": 17136,
			"byteOffset": 102016,
			"target": 34963
		},
		{
			"buffer": 0,
			"byteLength": 1080,
			"byteOffset": 119152,
			"byteStride": 12,
			"target": 34962
		},
		{
			"buffer": 0,
			"byteLength": 1080,
			"byteOffset": 120232,
			"byteStride": 12,
			"target": 34962
		},
		{
			"buffer": 0,
			"byteLength": 720,
			"byteOffset": 121312,
			"byteStride": 8,
			"target": 34962
		},
		{
			"buffer": 0,
			"byteLength": 1680,
			"byteOffset": 122032,
			"target": 34963
		},
		{
			"buffer": 0,
			"byteLength": 20,
			"byteOffset": 123712
		},
		{
			"buffer": 0,
			"byteLength": 80,
			"byteOffset": 123732
		}
	],
	"buffers": [
		{
			"byteLength": 123812,
			"uri": "windmashine_1_opt.bin"
		}
	],
	"extensions": {
		"KHR_materials_variants": {
			"variants": [
				{
					"name": "vetryak1_pink"
				},
				{
					"name": "vetryak1_orange"
				},
				{
					"name": "vetryak1_blue"
				},
				{
					"name": "vetryak1_sand"
				}
			]
		}
	},
	"extensionsRequired": [
		"KHR_texture_basisu"
	],
	"extensionsUsed": [
		"KHR_materials_variants",
		"KHR_texture_basisu"
	],
	"images": [
		{
			"mimeType": "image/ktx2",
			"name": "vetryak1metallicroughnesstex.png",
			"uri": "vetryak1metallicroughnesstex.png.ktx2"
		},
		{
			"mimeType": "image/ktx2",
			"name": "windmashine_1_windmashine_1_BaseColor11",
			"uri": "windmashine_1_windmashine_1_BaseColor11.ktx2"
		},
		{
			"mimeType": "image/ktx2",
			"name": "windmashine_1_windmashine_1_BaseColor8",
			"uri": "windmashine_1_windmashine_1_BaseColor8.ktx2"
		},
		{
			"mimeType": "image/ktx2",
			"name": "windmashine_1_windmashine_1_BaseColor6",
			"uri": "windmashine_1_windmashine_1_BaseColor6.ktx2"
		},
		{
			"mimeType": "image/ktx2",
			"name": "windmashine_1_windmashine_1_BaseColor7",
			"uri": "windmashine_1_windmashine_1_BaseColor7.ktx2"
		}
	],
	"materials": [
		{
			"doubleSided": true,
			"name": "vetryak1_orange1",
			"pbrMetallicRoughness": {
				"baseColorTexture": {
					"index": 4
				},
				"metallicRoughnessTexture": {
					"index": 0
				}
			}
		},
		{
			"doubleSided": true,
			"name": "vetryak1_pink1",
			"pbrMetallicRoughness": {
				"baseColorTexture": {
					"index": 2
				},
				"metallicRoughnessTexture": {
					"index": 0
				}
			}
		},
		{
			"doubleSided": true,
			"name": "vetryak1_blue",
			"pbrMetallicRoughness": {
				"baseColorTexture": {
					"index": 3
				},
				"metallicRoughnessTexture": {
					"index": 0
				}
			}
		},
		{
			"doubleSided": true,
			"name": "vetryak1_lopasti_sand2",
			"pbrMetallicRoughness": {
				"baseColorTexture": {
					"index": 1
				},
				"metallicRoughnessTexture": {
					"index": 0
				}
			}
		}
	],
	"meshes": [
		{
			"name": "Box001",
			"primitives": [
				{
					"attributes": {
						"NORMAL": 1,
						"POSITION": 0,
						"TEXCOORD_0": 2
					},
					"extensions": {
						"KHR_materials_variants": {
							"mappings": [
								{
									"material": 2,
									"variants": [
										2
									]
								},
								{
									"material": 3,
									"variants": [
										3
									]
								},
								{
									"material": 1,
									"variants": [
										0
									]
								},
								{
									"material": 0,
									"variants": [
										1
									]
								}
							]
						}
					},
					"indices": 3,
					"material": 0,
					"mode": 4
				}
			]
		},
		{
			"name": "Box002",
			"primitives": [
				{
					"attributes": {
						"NORMAL": 5,
						"POSITION": 4,
						"TEXCOORD_0": 6
					},
					"extensions": {
						"KHR_materials_variants": {
							"mappings": [
								{
									"material": 2,
									"variants": [
										2
									]
								},
								{
									"material": 3,
									"variants": [
										3
									]
								},
								{
									"material": 1,
									"variants": [
										0
									]
								},
								{
									"material": 0,
									"variants": [
										1
									]
								}
							]
						}
					},
					"indices": 7,
					"material": 0,
					"mode": 4
				}
			]
		},
		{
			"name": "Cylinder001",
			"primitives": [
				{
					"attributes": {
						"NORMAL": 9,
						"POSITION": 8,
						"TEXCOORD_0": 10
					},
					"indices": 11,
					"material": 0,
					"mode": 4
				}
			]
		},
		{
			"name": "Cylinder002",
			"primitives": [
				{
					"attributes": {
						"NORMAL": 13,
						"POSITION": 12,
						"TEXCOORD_0": 14
					},
					"extensions": {
						"KHR_materials_variants": {
							"mappings": [
								{
									"material": 2,
									"variants": [
										2
									]
								},
								{
									"material": 3,
									"variants": [
										3
									]
								},
								{
									"material": 1,
									"variants": [
										0
									]
								},
								{
									"material": 0,
									"variants": [
										1
									]
								}
							]
						}
					},
					"indices": 15,
					"material": 0,
					"mode": 4
				}
			]
		}
	],
	"nodes": [
		{
			"matrix": [
				0.01,
				0.0,
				0.0,
				0.0,
				0.0,
				0.01,
				0.0,
				0.0,
				0.0,
				0.0,
				0.01,
				0.0,
				0.0,
				0.0,
				0.0,
				1.0
			],
			"mesh": 0,
			"name": "wm_base"
		},
		{
			"children": [
				0
			],
			"matrix": [
				1.0,
				0.0,
				0.0,
				0.0,
				0.0,
				2.220446049250313e-16,
				-1.0,
				0.0,
				0.0,
				1.0,
				2.220446049250313e-16,
				0.0,
				0.13812156677246093,
				6.899577026367187,
				0.18508316040039063,
				1.0
			],
			"name": "Unnamed Node 1"
		},
		{
			"matrix": [
				0.01,
				0.0,
				0.0,
				0.0,
				0.0,
				0.01,
				0.0,
				0.0,
				0.0,
				0.0,
				0.01,
				0.0,
				0.0,
				0.0,
				0.0,
				1.0
			],
			"mesh": 2,
			"name": "lopast_pivot"
		},
		{
			"children": [
				2,
				6,
				7,
				8
			],
			"name": "fan",
			"rotation": [
				-0.4305279386917084,
				-0.560932912653608,
				0.4305278492847446,
				0.5609329126536083
			],
			"scale": [
				0.9999999751990741,
				0.999999975199081,
				1.0000000000000067
			],
			"translation": [
				1.000328369140625,
				7.115107421875,
				0.1850831413269043
			]
		},
		{
			"matrix": [
				0.01,
				0.0,
				0.0,
				0.0,
				0.0,
				0.01,
				0.0,
				0.0,
				0.0,
				0.0,
				0.01,
				0.0,
				0.0,
				0.0,
				0.0,
				1.0
			],
			"mesh": 3,
			"name": "wm_pillar"
		},
		{
			"children": [
				4
			],
			"matrix": [
				1.0,
				0.0,
				0.0,
				0.0,
				0.0,
				2.220446049250313e-16,
				-1.0,
				0.0,
				0.0,
				1.0,
				2.220446049250313e-16,
				0.0,
				0.13491353988647461,
				6.75965087890625,
				0.18808139801025392,
				1.0
			],
			"name": "Unnamed Node 5"
		},
		{
			"mesh": 1,
			"name": "lopast_1",
			"rotation": [
				-0.32464199413065986,
				-0.6306215360494334,
				0.6986094531331621,
				0.0941747625986189
			],
			"scale": [
				0.0118,
				0.0118,
				0.0118
			],
			"translation": [
				-0.060087787249567995,
				-0.07398927321675863,
				-0.23878158020845672
			]
		},
		{
			"mesh": 1,
			"name": "lopast_2",
			"rotation": [
				0.7085729365432172,
				0.031625852542516,
				-0.2654106067397042,
				-0.6530554408926877
			],
			"scale": [
				0.0118,
				0.0118,
				0.0118
			],
			"translation": [
				-0.01522321074433465,
				0.07175927256774096,
				-0.23878156283387614
			]
		},
		{
			"mesh": 1,
			"name": "lopast_3",
			"rotation": [
				-0.38050743716978047,
				0.5985732512681297,
				-0.4339425580515877,
				0.5555339858518384
			],
			"scale": [
				0.0118,
				0.0118,
				0.0118
			],
			"translation": [
				0.0882695702009819,
				-0.01154228208272022,
				-0.23878157276419523
			]
		}
	],
	"samplers": [
		{
			"magFilter": 9729,
			"minFilter": 9729,
			"wrapS": 10497,
			"wrapT": 10497
		},
		{},
		{},
		{},
		{}
	],
	"scenes": [
		{
			"nodes": [
				1,
				3,
				5
			]
		}
	],
	"textures": [
		{
			"extensions": {
				"KHR_texture_basisu": {
					"source": 0
				}
			},
			"name": "texture_source1_sampler1",
			"sampler": 0
		},
		{
			"extensions": {
				"KHR_texture_basisu": {
					"source": 1
				}
			},
			"name": "basecolor_lopasti_sand2",
			"sampler": 1
		},
		{
			"extensions": {
				"KHR_texture_basisu": {
					"source": 2
				}
			},
			"name": "windmashine_1_windmashine_1_BaseColor8",
			"sampler": 2
		},
		{
			"extensions": {
				"KHR_texture_basisu": {
					"source": 3
				}
			},
			"name": "windmashine_1_windmashine_1_BaseColor6",
			"sampler": 3
		},
		{
			"extensions": {
				"KHR_texture_basisu": {
					"source": 4
				}
			},
			"name": "windmashine_1_windmashine_1_BaseColor7",
			"sampler": 4
		}
	]
}