{
	"asset":{
		"version":"2.0",
		"generator":"Houdini GLTF 2.0 Exporter"
	},
	"accessors":[
		{
			"bufferView":0,
			"componentType":5125,
			"count":120540,
			"type":"SCALAR",
			"min":[0
			],
			"max":[20307
			]
		},
		{
			"bufferView":1,
			"componentType":5126,
			"count":20308,
			"type":"VEC3",
			"min":[-499.774475,-19.9440861,-499.762695
			],
			"max":[499.759705,42.4197769,499.769073
			]
		},
		{
			"bufferView":2,
			"componentType":5126,
			"count":20308,
			"type":"VEC2",
			"min":[-5.10768186e-05,-6.66379929e-05
			],
			"max":[1.00006711,1.00006306
			]
		}
	],
	"buffers":[
		{
			"uri":"output_data.bin",
			"byteLength":888320,
			"name":"main_buffer"
		}
	],
	"bufferViews":[
		{
			"buffer":0,
			"byteLength":482160,
			"target":34963
		},
		{
			"buffer":0,
			"byteOffset":482160,
			"byteLength":243696,
			"target":34962
		},
		{
			"buffer":0,
			"byteOffset":725856,
			"byteLength":162464,
			"target":34962
		}
	],
	"nodes":[
		{
			"name":"out",
			"mesh":0
		}
	],
	"meshes":[
		{
			"primitives":[
				{
					"attributes":{
						"TEXCOORD_0":2,
						"POSITION":1
					},
					"indices":0,
					"material":0
				}
			],
			"name":"material1"
		}
	],
	"materials":[
		{
			"name":"principledshader1",
			"pbrMetallicRoughness":{
				"metallicFactor":0,
				"roughnessFactor":0.300000012,
				"baseColorTexture":{
					"index":0
				}
			}
		}
	],
	"scenes":[
		{
			"nodes":[0
			]
		}
	],
	"textures":[
		{
			"source":0
		}
	],
	"images":[
		{
			"uri":"bake.jpg",
			"mimeType":"image/jpeg"
		}
	],
	"scene":0
}
