{
	"accessors": [
		{
			"bufferView": 0,
			"byteOffset": 0,
			"componentType": 5125,
			"count": 88557,
			"max": [
				35825.0
			],
			"min": [
				0.0
			],
			"type": "SCALAR"
		},
		{
			"bufferView": 1,
			"byteOffset": 0,
			"componentType": 5126,
			"count": 35826,
			"max": [
				397.533081,
				132.80603,
				326.41522200000003
			],
			"min": [
				190.107956,
				-0.346809387,
				149.813721
			],
			"type": "VEC3"
		},
		{
			"bufferView": 2,
			"byteOffset": 0,
			"componentType": 5126,
			"count": 35826,
			"max": [
				0.998285532,
				0.998086274
			],
			"min": [
				0.00161879836,
				0.00457334518
			],
			"type": "VEC2"
		},
		{
			"bufferView": 3,
			"byteOffset": 0,
			"componentType": 5126,
			"count": 35826,
			"max": [
				1.0,
				1.0,
				1.0
			],
			"min": [
				-1.0,
				-1.0,
				-1.0
			],
			"type": "VEC3"
		},
		{
			"bufferView": 4,
			"byteOffset": 0,
			"componentType": 5126,
			"count": 35826,
			"max": [
				1.0,
				1.0,
				1.0
			],
			"min": [
				1.0,
				1.0,
				1.0
			],
			"type": "VEC3"
		}
	],
	"asset": {
		"copyright": "",
		"extras": {
			"created": "Tue Apr 18 21:27:35 2023"
		},
		"generator": "Gestaltor 2023.1.0 Titan Professional",
		"version": "2.0"
	},
	"bufferViews": [
		{
			"buffer": 0,
			"byteLength": 354228,
			"byteOffset": 0,
			"target": 34963
		},
		{
			"buffer": 0,
			"byteLength": 429912,
			"byteOffset": 354228,
			"target": 34962
		},
		{
			"buffer": 0,
			"byteLength": 286608,
			"byteOffset": 784140,
			"target": 34962
		},
		{
			"buffer": 0,
			"byteLength": 429912,
			"byteOffset": 1070748,
			"target": 34962
		},
		{
			"buffer": 0,
			"byteLength": 429912,
			"byteOffset": 1500660,
			"target": 34962
		}
	],
	"buffers": [
		{
			"byteLength": 1930572,
			"uri": "wagon02_comb_kxt.bin"
		}
	],
	"materials": [
		{
			"pbrMetallicRoughness": {
				"baseColorFactor": [
					0.200000003,
					0.200000003,
					0.200000003,
					1.0
				],
				"baseColorTexture": {
					"index": 0
				},
				"metallicFactor": 0.0,
				"metallicRoughnessTexture": {
					"index": 1
				},
				"roughnessFactor": 0.300000012
			}
		}
	],
	"meshes": [
		{
			"primitives": [
				{
					"attributes": {
						"COLOR_0": 4,
						"NORMAL": 3,
						"POSITION": 1,
						"TEXCOORD_0": 2
					},
					"indices": 0,
					"material": 0,
					"mode": 4
				}
			]
		}
	],
	"nodes": [
		{
			"children": [
				1
			]
		},
		{
			"mesh": 0
		}
	],
	"scene": 0,
	"scenes": [
		{
			"nodes": [
				0
			]
		}
	],
	"textures": [
		{},
		{}
	]
}