{
	"accessors": [
		{
			"bufferView": 0,
			"byteOffset": 0,
			"componentType": 5126,
			"count": 48439,
			"max": [
				115.67129516601563,
				-34.07468032836914,
				243.79190063476563
			],
			"min": [
				-115.67129516601563,
				-196.3907012939453,
				-254.8760528564453
			],
			"type": "VEC3"
		},
		{
			"bufferView": 1,
			"byteOffset": 0,
			"componentType": 5126,
			"count": 48439,
			"type": "VEC3"
		},
		{
			"bufferView": 2,
			"byteOffset": 0,
			"componentType": 5126,
			"count": 48439,
			"type": "VEC2"
		},
		{
			"bufferView": 3,
			"byteOffset": 0,
			"componentType": 5125,
			"count": 190428,
			"type": "SCALAR"
		},
		{
			"bufferView": 4,
			"byteOffset": 0,
			"componentType": 5126,
			"count": 47215,
			"max": [
				95.98639678955078,
				-33.06119918823242,
				232.2292022705078
			],
			"min": [
				-95.98639678955078,
				-202.84449768066406,
				-244.69369506835938
			],
			"type": "VEC3"
		},
		{
			"bufferView": 5,
			"byteOffset": 0,
			"componentType": 5126,
			"count": 47215,
			"type": "VEC3"
		},
		{
			"bufferView": 6,
			"byteOffset": 0,
			"componentType": 5126,
			"count": 47215,
			"type": "VEC2"
		},
		{
			"bufferView": 7,
			"byteOffset": 0,
			"componentType": 5125,
			"count": 211323,
			"type": "SCALAR"
		},
		{
			"bufferView": 8,
			"byteOffset": 0,
			"componentType": 5126,
			"count": 16638,
			"max": [
				2817.712890625,
				-200.62457275390625,
				113.2226791381836
			],
			"min": [
				284.87261962890625,
				-1899.4449462890625,
				-39.17763137817383
			],
			"type": "VEC3"
		},
		{
			"bufferView": 9,
			"byteOffset": 0,
			"componentType": 5126,
			"count": 16638,
			"type": "VEC3"
		},
		{
			"bufferView": 10,
			"byteOffset": 0,
			"componentType": 5126,
			"count": 16638,
			"type": "VEC2"
		},
		{
			"bufferView": 11,
			"byteOffset": 0,
			"componentType": 5125,
			"count": 61044,
			"type": "SCALAR"
		},
		{
			"bufferView": 12,
			"byteOffset": 0,
			"componentType": 5126,
			"count": 3427,
			"max": [
				-66.13843536376953,
				-0.5996170043945313,
				-104.63348388671875
			],
			"min": [
				-93.46930694580078,
				-68.53618621826172,
				-172.5616455078125
			],
			"type": "VEC3"
		},
		{
			"bufferView": 13,
			"byteOffset": 0,
			"componentType": 5126,
			"count": 3427,
			"type": "VEC3"
		},
		{
			"bufferView": 14,
			"byteOffset": 0,
			"componentType": 5126,
			"count": 3427,
			"type": "VEC2"
		},
		{
			"bufferView": 15,
			"byteOffset": 0,
			"componentType": 5125,
			"count": 12024,
			"type": "SCALAR"
		},
		{
			"bufferView": 16,
			"byteOffset": 0,
			"componentType": 5126,
			"count": 2862,
			"max": [
				85.61609649658203,
				-64.63978576660156,
				222.72909545898438
			],
			"min": [
				-85.61609649658203,
				-192.9604949951172,
				-245.16409301757813
			],
			"type": "VEC3"
		},
		{
			"bufferView": 17,
			"byteOffset": 0,
			"componentType": 5126,
			"count": 2862,
			"type": "VEC3"
		},
		{
			"bufferView": 18,
			"byteOffset": 0,
			"componentType": 5125,
			"count": 12666,
			"type": "SCALAR"
		}
	],
	"asset": {
		"extras": {
			"created": "Sat Dec 16 12:26:27 2023"
		},
		"generator": "Gestaltor 2023.1.0 Titan Professional",
		"version": "2.0"
	},
	"bufferViews": [
		{
			"buffer": 0,
			"byteLength": 581268,
			"byteOffset": 0,
			"byteStride": 12,
			"target": 34962
		},
		{
			"buffer": 0,
			"byteLength": 581268,
			"byteOffset": 581268,
			"byteStride": 12,
			"target": 34962
		},
		{
			"buffer": 0,
			"byteLength": 387512,
			"byteOffset": 1162536,
			"byteStride": 8,
			"target": 34962
		},
		{
			"buffer": 0,
			"byteLength": 761712,
			"byteOffset": 1550048,
			"target": 34963
		},
		{
			"buffer": 0,
			"byteLength": 566580,
			"byteOffset": 2311760,
			"byteStride": 12,
			"target": 34962
		},
		{
			"buffer": 0,
			"byteLength": 566580,
			"byteOffset": 2878340,
			"byteStride": 12,
			"target": 34962
		},
		{
			"buffer": 0,
			"byteLength": 377720,
			"byteOffset": 3444920,
			"byteStride": 8,
			"target": 34962
		},
		{
			"buffer": 0,
			"byteLength": 845292,
			"byteOffset": 3822640,
			"target": 34963
		},
		{
			"buffer": 0,
			"byteLength": 199656,
			"byteOffset": 4667932,
			"byteStride": 12,
			"target": 34962
		},
		{
			"buffer": 0,
			"byteLength": 199656,
			"byteOffset": 4867588,
			"byteStride": 12,
			"target": 34962
		},
		{
			"buffer": 0,
			"byteLength": 133104,
			"byteOffset": 5067244,
			"byteStride": 8,
			"target": 34962
		},
		{
			"buffer": 0,
			"byteLength": 244176,
			"byteOffset": 5200348,
			"target": 34963
		},
		{
			"buffer": 0,
			"byteLength": 41124,
			"byteOffset": 5444524,
			"byteStride": 12,
			"target": 34962
		},
		{
			"buffer": 0,
			"byteLength": 41124,
			"byteOffset": 5485648,
			"byteStride": 12,
			"target": 34962
		},
		{
			"buffer": 0,
			"byteLength": 27416,
			"byteOffset": 5526772,
			"byteStride": 8,
			"target": 34962
		},
		{
			"buffer": 0,
			"byteLength": 48096,
			"byteOffset": 5554188,
			"target": 34963
		},
		{
			"buffer": 0,
			"byteLength": 34344,
			"byteOffset": 5602284,
			"byteStride": 12,
			"target": 34962
		},
		{
			"buffer": 0,
			"byteLength": 34344,
			"byteOffset": 5636628,
			"byteStride": 12,
			"target": 34962
		},
		{
			"buffer": 0,
			"byteLength": 50664,
			"byteOffset": 5670972,
			"target": 34963
		}
	],
	"buffers": [
		{
			"byteLength": 5721636,
			"uri": "doodles_opt.bin"
		}
	],
	"extensionsRequired": [
		"KHR_texture_basisu"
	],
	"extensionsUsed": [
		"KHR_materials_pbrSpecularGlossiness",
		"KHR_texture_basisu"
	],
	"images": [
		{
			"mimeType": "image/ktx2",
			"name": "doodles_mat2_normal.jpg",
			"uri": "doodles_mat2_normal.jpg.ktx2"
		},
		{
			"mimeType": "image/ktx2",
			"name": "basebasecolortexture.png",
			"uri": "basebasecolortexture.png.ktx2"
		},
		{
			"mimeType": "image/ktx2",
			"name": "basemetallicroughnesstex.jpeg",
			"uri": "basemetallicroughnesstex.jpeg.ktx2"
		},
		{
			"mimeType": "image/ktx2",
			"name": "doodles_mat3_normal.jpg",
			"uri": "doodles_mat3_normal.jpg.ktx2"
		},
		{
			"mimeType": "image/ktx2",
			"name": "doodles2basecolortexture.jpeg",
			"uri": "doodles2basecolortexture.jpeg.ktx2"
		},
		{
			"mimeType": "image/ktx2",
			"name": "doodles2metallicroughnesstex.jpeg",
			"uri": "doodles2metallicroughnesstex.jpeg.ktx2"
		},
		{
			"mimeType": "image/ktx2",
			"name": "doodles1basecolortexture.jpeg",
			"uri": "doodles1basecolortexture.jpeg.ktx2"
		},
		{
			"mimeType": "image/ktx2",
			"name": "doodles1metallicroughnesstex.jpeg",
			"uri": "doodles1metallicroughnesstex.jpeg.ktx2"
		}
	],
	"materials": [
		{
			"alphaMode": "MASK",
			"doubleSided": true,
			"name": "base",
			"normalTexture": {
				"index": 0
			},
			"pbrMetallicRoughness": {
				"baseColorTexture": {
					"index": 1
				},
				"metallicRoughnessTexture": {
					"index": 2
				}
			}
		},
		{
			"doubleSided": true,
			"name": "doodles2",
			"normalTexture": {
				"index": 3
			},
			"pbrMetallicRoughness": {
				"baseColorTexture": {
					"index": 4
				},
				"metallicRoughnessTexture": {
					"index": 5
				}
			}
		},
		{
			"doubleSided": true,
			"name": "doodles1",
			"pbrMetallicRoughness": {
				"baseColorTexture": {
					"index": 6
				},
				"metallicRoughnessTexture": {
					"index": 7
				}
			}
		},
		{
			"alphaMode": "BLEND",
			"doubleSided": true,
			"extensions": {
				"KHR_materials_pbrSpecularGlossiness": {
					"diffuseFactor": [
						0.031891357153654,
						0.031891357153654,
						0.031891357153654,
						0.500000023841858
					],
					"glossinessFactor": 0.9
				}
			},
			"name": "glass"
		}
	],
	"meshes": [
		{
			"name": "body",
			"primitives": [
				{
					"attributes": {
						"NORMAL": 1,
						"POSITION": 0,
						"TEXCOORD_0": 2
					},
					"indices": 3,
					"material": 0,
					"mode": 4
				}
			]
		},
		{
			"name": "Object001",
			"primitives": [
				{
					"attributes": {
						"NORMAL": 5,
						"POSITION": 4,
						"TEXCOORD_0": 6
					},
					"indices": 7,
					"material": 1,
					"mode": 4
				}
			]
		},
		{
			"name": "doodlelogo",
			"primitives": [
				{
					"attributes": {
						"NORMAL": 9,
						"POSITION": 8,
						"TEXCOORD_0": 10
					},
					"indices": 11,
					"material": 2,
					"mode": 4
				}
			]
		},
		{
			"name": "Object",
			"primitives": [
				{
					"attributes": {
						"NORMAL": 13,
						"POSITION": 12,
						"TEXCOORD_0": 14
					},
					"indices": 15,
					"material": 0,
					"mode": 4
				}
			]
		},
		{
			"name": "Object006",
			"primitives": [
				{
					"attributes": {
						"NORMAL": 17,
						"POSITION": 16
					},
					"indices": 18,
					"material": 3,
					"mode": 4
				}
			]
		}
	],
	"nodes": [
		{
			"matrix": [
				0.01,
				0.0,
				0.0,
				0.0,
				0.0,
				0.01,
				0.0,
				0.0,
				0.0,
				0.0,
				0.01,
				0.0,
				0.0,
				0.0,
				0.0,
				1.0
			],
			"mesh": 0,
			"name": "body"
		},
		{
			"children": [
				0
			],
			"matrix": [
				1.0,
				0.0,
				0.0,
				0.0,
				0.0,
				-1.0,
				1.6292068494294654e-07,
				0.0,
				0.0,
				-1.6292068494294654e-07,
				-1.0,
				0.0,
				3.8276162719726563,
				-0.0016862320899963378,
				0.9833551025390626,
				1.0
			]
		},
		{
			"matrix": [
				0.01,
				0.0,
				0.0,
				0.0,
				0.0,
				0.01,
				0.0,
				0.0,
				0.0,
				0.0,
				0.01,
				0.0,
				0.0,
				0.0,
				0.0,
				1.0
			],
			"mesh": 1,
			"name": "Object001"
		},
		{
			"children": [
				2
			],
			"matrix": [
				1.0,
				0.0,
				0.0,
				0.0,
				0.0,
				-1.0,
				1.6292068494294654e-07,
				0.0,
				0.0,
				-1.6292068494294654e-07,
				-1.0,
				0.0,
				3.8276162719726563,
				-0.0016862320899963378,
				0.9833551025390626,
				1.0
			]
		},
		{
			"matrix": [
				0.01,
				0.0,
				0.0,
				0.0,
				0.0,
				0.01,
				0.0,
				0.0,
				0.0,
				0.0,
				0.01,
				0.0,
				0.0,
				0.0,
				0.0,
				1.0
			],
			"mesh": 2,
			"name": "doodlelogo"
		},
		{
			"children": [
				4
			],
			"matrix": [
				2.2225732170656228e-08,
				8.581462464334972e-23,
				-0.1054304018616677,
				0.0,
				6.985771516809491e-09,
				0.1054304018616676,
				1.4726672105002978e-15,
				0.0,
				0.15981580317019975,
				-1.0589324009096628e-08,
				3.3690692392121305e-08,
				0.0,
				3.7864599609375,
				4.024382629394531,
				2.6115692138671878,
				1.0
			]
		},
		{
			"matrix": [
				0.01,
				0.0,
				0.0,
				0.0,
				0.0,
				0.01,
				0.0,
				0.0,
				0.0,
				0.0,
				0.01,
				0.0,
				0.0,
				0.0,
				0.0,
				1.0
			],
			"mesh": 3,
			"name": "Object"
		},
		{
			"children": [
				6
			],
			"matrix": [
				1.0,
				0.0,
				0.0,
				0.0,
				0.0,
				-1.0,
				1.6292068494294654e-07,
				0.0,
				0.0,
				-1.6292068494294654e-07,
				-1.0,
				0.0,
				3.8276162719726563,
				-0.001686248779296875,
				0.9833551025390626,
				1.0
			]
		},
		{
			"matrix": [
				0.01,
				0.0,
				0.0,
				0.0,
				0.0,
				0.01,
				0.0,
				0.0,
				0.0,
				0.0,
				0.01,
				0.0,
				0.0,
				0.0,
				0.0,
				1.0
			],
			"mesh": 3,
			"name": "Object"
		},
		{
			"children": [
				8
			],
			"matrix": [
				1.0,
				0.0,
				0.0,
				0.0,
				0.0,
				-1.0,
				1.6292068494294654e-07,
				0.0,
				0.0,
				-1.6292068494294654e-07,
				-1.0,
				0.0,
				3.8276162719726563,
				-0.00168609619140625,
				-1.8305569458007813,
				1.0
			]
		},
		{
			"matrix": [
				0.01,
				0.0,
				0.0,
				0.0,
				0.0,
				0.01,
				0.0,
				0.0,
				0.0,
				0.0,
				0.01,
				0.0,
				0.0,
				0.0,
				0.0,
				1.0
			],
			"mesh": 3,
			"name": "Object"
		},
		{
			"children": [
				10
			],
			"matrix": [
				-0.9999999999999987,
				1.1044052673094195e-29,
				-8.742277657347586e-08,
				0.0,
				1.4242978638964877e-14,
				-0.9999999999999987,
				-1.6292068494294654e-07,
				0.0,
				-8.742277657347595e-08,
				-1.6292068494294797e-07,
				1.0,
				0.0,
				3.8088067626953124,
				-0.001686248779296875,
				3.755306396484375,
				1.0
			]
		},
		{
			"matrix": [
				0.01,
				0.0,
				0.0,
				0.0,
				0.0,
				0.01,
				0.0,
				0.0,
				0.0,
				0.0,
				0.01,
				0.0,
				0.0,
				0.0,
				0.0,
				1.0
			],
			"mesh": 3,
			"name": "Object"
		},
		{
			"children": [
				12
			],
			"matrix": [
				-0.9999999999999987,
				1.1044052673094195e-29,
				-8.742277657347586e-08,
				0.0,
				1.4242978638964877e-14,
				-0.9999999999999987,
				-1.6292068494294654e-07,
				0.0,
				-8.742277657347595e-08,
				-1.6292068494294797e-07,
				1.0,
				0.0,
				3.8088067626953124,
				-0.00168609619140625,
				0.9413941955566406,
				1.0
			]
		},
		{
			"matrix": [
				0.01,
				0.0,
				0.0,
				0.0,
				0.0,
				0.01,
				0.0,
				0.0,
				0.0,
				0.0,
				0.01,
				0.0,
				0.0,
				0.0,
				0.0,
				1.0
			],
			"mesh": 4,
			"name": "Object006"
		},
		{
			"children": [
				14
			],
			"matrix": [
				1.0,
				0.0,
				0.0,
				0.0,
				0.0,
				-1.0,
				1.6292068494294654e-07,
				0.0,
				0.0,
				-1.6292068494294654e-07,
				-1.0,
				0.0,
				3.8276162719726563,
				-0.0016862320899963378,
				0.9833551025390626,
				1.0
			]
		}
	],
	"scenes": [
		{
			"nodes": [
				1,
				3,
				5,
				7,
				9,
				11,
				13,
				15
			]
		}
	],
	"textures": [
		{
			"extensions": {
				"KHR_texture_basisu": {
					"source": 0
				}
			},
			"name": "texture_source1_sampler1"
		},
		{
			"extensions": {
				"KHR_texture_basisu": {
					"source": 1
				}
			},
			"name": "texture_source2_sampler2"
		},
		{
			"extensions": {
				"KHR_texture_basisu": {
					"source": 2
				}
			},
			"name": "texture_source3_sampler3"
		},
		{
			"extensions": {
				"KHR_texture_basisu": {
					"source": 3
				}
			},
			"name": "texture_source5_sampler5"
		},
		{
			"extensions": {
				"KHR_texture_basisu": {
					"source": 4
				}
			},
			"name": "texture_source6_sampler6"
		},
		{
			"extensions": {
				"KHR_texture_basisu": {
					"source": 5
				}
			},
			"name": "texture_source7_sampler7"
		},
		{
			"extensions": {
				"KHR_texture_basisu": {
					"source": 6
				}
			},
			"name": "texture_source10_sampler10"
		},
		{
			"extensions": {
				"KHR_texture_basisu": {
					"source": 7
				}
			},
			"name": "texture_source11_sampler11"
		}
	]
}